<svg xmlns="http://www.w3.org/2000/svg" viewBox="0 0 335.5 275.46"><g id="Layer_2" data-name="Layer 2"><g id="Layer_2-2" data-name="Layer 2"><path d="M95.86,275.46H8.66c-6.88,0-8.62-1.74-8.62-8.61,0-13.72-.12-27.45,0-41.17.6-47.87,37.84-88.46,85.5-93.33,51.74-5.29,98,30.56,105,81.78,1.2,8.72.85,17.67,1,26.51s.05,18,0,26.95c0,5.87-2,7.86-7.85,7.86Q139.83,275.48,95.86,275.46Z"/><path d="M180.81,152a92.57,92.57,0,0,1,38.09-18c52.57-11.17,103.24,22.33,114,75.69,1.79,8.84,2,18.05,2.36,27.11.38,10.21.1,20.45.08,30.67,0,5.92-2,7.95-7.76,7.95q-55.19,0-110.37,0c-5.57,0-7.6-2.08-7.61-7.72,0-13.34.06-26.69,0-40-.18-27.6-9.18-52-26.81-73.22C182.25,153.81,181.71,153.14,180.81,152Z"/><path d="M95.88,0A59.88,59.88,0,1,1,36,60,59.9,59.9,0,0,1,95.88,0Z"/><path d="M239.75,0a59.88,59.88,0,1,1-60.06,59.79A59.9,59.9,0,0,1,239.75,0Z"/></g></g></svg>