<svg xmlns="http://www.w3.org/2000/svg" viewBox="0 0 347.15 347.57"><g id="Layer_2" data-name="Layer 2"><g id="Layer_1-2" data-name="Layer 1"><path d="M347.15,19.24V347.5h-3.79q-51.63,0-103.27.07c-2.7,0-4.17-.94-5.71-3.1-8.62-12.11-15.27-25-17.53-39.92-2.75-18.19-.53-35.71,7.9-51.92Q285.13,136.55,346,20.75A15.74,15.74,0,0,1,347.15,19.24Z"/><path d="M18.11,342A74.92,74.92,0,0,1,.78,302.93c-2.62-19.68,1.45-38,10.68-55.49Q75.72,125.58,139.69,3.57c1.09-2.07,2-3.48,4.91-3.47q82.88.18,165.76.09c.85,0,1.7.08,3,.15-.65,1.35-1.14,2.45-1.7,3.52-9.23,17.65-18.52,35.26-27.66,53-1.25,2.42-2.63,3.3-5.39,3.3q-67.92-.14-135.83-.07h-4.87v47.85h-24v47.83h-24v47.95H66v48H42v47.83H18.11Z"/><path d="M221.48,347.5c-4.46,0-8.91.09-13.35-.08a4.06,4.06,0,0,1-2.64-1.6c-9.67-12.95-17-27-19-43.26-2.19-17.78.36-34.87,8.66-50.76q64.2-123,128.52-245.87c2.38-4.58,4.92-6.44,9.88-5.81,3,.38,6.17.07,9.85.07-1,2-1.8,3.52-2.59,5-42,80.18-84.37,160.15-125.76,240.64-17,33-15.18,66.29,4.78,98.09.53.84,1.09,1.67,1.59,2.53C221.57,346.65,221.48,346.94,221.48,347.5Z"/><path d="M30.1,347.22V311.78H176.26a94.94,94.94,0,0,0,15.88,35.44Z"/><path d="M54.14,263.81H176.77c-1.09,11.77-2.18,23.47-3.29,35.51H54.14Z"/><path d="M275.81,72.25c-6.15,11.75-12,23-18,34.17a3.43,3.43,0,0,1-2.56,1.48q-52.38.07-104.76,0c-.11,0-.21-.09-.57-.25V72.25Z"/><path d="M126,120.12H250.54c-.45,1-.75,1.78-1.14,2.51-5.35,10.27-10.66,20.56-16.15,30.74a5,5,0,0,1-3.52,2.4q-51.25.19-102.52.08a7,7,0,0,1-1.25-.26Z"/><path d="M225.57,168.12c-3.78,7.25-7.38,14.17-11,21.08-2.19,4.2-4.29,8.44-6.65,12.53a4.3,4.3,0,0,1-3,2c-34.16.1-68.33.08-102.8.08V168.12Z"/><path d="M78,251.69V216H200.33c-.61,1.28-1.09,2.39-1.65,3.46-5.18,10.06-10.33,20.14-15.62,30.14a4.14,4.14,0,0,1-3,2C146.21,251.7,112.32,251.69,78,251.69Z"/></g></g></svg>