<svg xmlns="http://www.w3.org/2000/svg" viewBox="0 0 288.47 207.05"><g id="Layer_2" data-name="Layer 2"><g id="Layer_2-2" data-name="Layer 2"><path d="M0,190.72c.61-1.23,1.14-2.51,1.85-3.68a12.71,12.71,0,0,1,10.55-6.51c.93-.06,1.87-.07,2.81-.07q128.25,0,256.5-.05c5.8,0,10.53,1.65,13.47,6.9a13.08,13.08,0,0,1-9.18,19.3,31.61,31.61,0,0,1-5.33.34q-126.84,0-253.68.1c-8.27,0-14.19-2.57-17-10.69Z"/><path d="M103.64,110.42l-27.88-9.28Q41.89,89.88,8,78.59c-5.12-1.71-7.3-5.38-5.72-9.51,1.25-3.28,4.35-5,8.18-4.38,1.39.21,2.77.51,4.15.74s2.77.43,4.27.65c0-2.31.07-4.53,0-6.75C18.3,42.18,17.66,25,17.1,7.85,16.93,2.36,20.55-.71,25.94.14c2.6.41,5.17,1,7.78,1.24,3.53.37,5.75,2.21,7.26,5.38C48.94,23.42,57,40,65,56.68a5.61,5.61,0,0,0,4.8,3.49q47.05,7.62,94.07,15.49,35.5,5.93,71,12c9,1.54,17.29,4.45,24.65,10.21,4.69,3.67,10.39,6,15.36,9.33a49.62,49.62,0,0,1,9.11,7.88c8.25,9.18,4.88,19.11-7.2,21.75-8.7,1.91-17.37.88-26-.51-24.43-3.94-48.83-8.14-73.3-11.78-4.18-.62-8.7.94-13,1.65-22.76,3.76-45.48,7.75-68.27,11.21-4,.61-8.33-.84-12.49-1.43-3.34-.47-6.67-1.07-10-1.63s-5.31-2.31-5.61-5c-.34-3,1-5,4.39-6.34,9.3-3.74,18.63-7.43,27.94-11.15C101.32,111.45,102.24,111,103.64,110.42Z"/></g></g></svg>