<svg xmlns="http://www.w3.org/2000/svg" viewBox="0 0 144.76 224.61"><g id="Layer_2" data-name="Layer 2"><g id="Layer_2-2" data-name="Layer 2"><path d="M104.19,112,62.37,76.16Q34.82,52.55,7.25,28.94C2.67,25,.12,20.26.9,14.18a15.23,15.23,0,0,1,10-12.95c6-2.38,11.54-1.24,16.41,2.88,9.7,8.22,19.34,16.53,29,24.8q40.63,34.8,81.3,69.58c5.35,4.57,8.59,10,6.56,17a19.59,19.59,0,0,1-5.55,9Q82.65,172.77,26.38,220.67A15.76,15.76,0,0,1,3.91,219c-5.95-7-5-16.69,2.26-23q47.44-40.67,94.92-81.29C102,114,102.92,113.12,104.19,112Z"/></g></g></svg>