<svg xmlns="http://www.w3.org/2000/svg" viewBox="0 0 316.41 205.88"><g id="Layer_2" data-name="Layer 2"><g id="Layer_1-2" data-name="Layer 1"><path d="M0,100.55c2.51-5.68,7.15-7.13,13-7.13,119.22.06,145.94,0,265.16,0H284c-1.54-1.66-2.46-2.71-3.44-3.7-24-24-48-48-71.85-72.24a17.05,17.05,0,0,1-4.07-8.21c-.71-3.54,1.48-6.35,4.66-8.08a8.37,8.37,0,0,1,9.69.64,42,42,0,0,1,4.15,3.74q44.06,44.1,88.08,88.22c7,7,6.93,11.24,0,18.24q-44.75,44.83-89.48,89.65c-5,5-10.11,5.49-14.38,1.52a9.1,9.1,0,0,1-1.41-11.63,37.33,37.33,0,0,1,4.19-4.8q35-35.08,70-70.13a41.86,41.86,0,0,1,3.74-3l-.5-1.23h-4.47c-119.62,0-146.74,0-266.36,0-5.73,0-10.14-1.61-12.5-7.17Z"/></g></g></svg>