<svg xmlns="http://www.w3.org/2000/svg" viewBox="0 0 357.14 306.5"><g id="Layer_2" data-name="Layer 2"><g id="Layer_1-2" data-name="Layer 1"><path d="M0,148.36C2.29,139.78,8.38,134,14.39,128Q74.29,68.22,134,8.37c9.62-9.62,23.35-11.08,33.58-3.69A25.86,25.86,0,0,1,172.18,42c-.9,1.07-1.84,2.1-2.83,3.09-23.26,23.27-46.4,46.66-69.9,69.68-5.1,5-11.5,8.7-17.24,13h3.51q121.38,0,242.74,0c8.59,0,16.3,2,22.22,8.75a25.44,25.44,0,0,1-13.46,41.76,43.33,43.33,0,0,1-9.67.82q-121.2.08-242.39,0H80.68c.43.5.57.83.81.93,9,3.64,16.17,9.82,22.93,16.65q32,32.35,64.25,64.48c5.83,5.83,9.57,12.46,9.37,20.95-.24,10.11-4.68,17.64-13.91,21.89-9.06,4.18-17.83,3.19-26-2.58a44,44,0,0,1-5.45-4.87Q74.5,238.32,16.29,180.11c-6.54-6.53-13.56-12.66-16.29-22Z"/></g></g></svg>