<svg xmlns="http://www.w3.org/2000/svg" viewBox="0 0 306.46 306.88"><g id="Layer_2" data-name="Layer 2"><g id="Layer_1-2" data-name="Layer 1"><path d="M306.46,229.94v25.74c-1.38.07-2.7.18-4,.18q-106.08,0-212.15,0C60.62,255.82,38,233.17,38,203.46Q37.94,117.21,38,31V26H0V.45A4.8,4.8,0,0,1,1.29.1C14,.08,26.74-.14,39.45.15,53.12.46,63.69,11.93,63.89,26.33c.14,10.6,0,21.21,0,31.81,0,48.39.15,96.78-.1,145.18-.07,13.24,8.77,23.94,20.52,26.17a42.41,42.41,0,0,0,7.82.43q104.58,0,209.16,0Z"/><path d="M89.37,122.9a278.57,278.57,0,0,0,83,17.09v25.94h25.27V140a280.65,280.65,0,0,0,83.21-17.08v81.4H89.37Z"/><path d="M140.41,63.86c0-2.51-.06-4.6,0-6.68A12.27,12.27,0,0,1,152.53,45q32.55-.15,65.11,0a12.08,12.08,0,0,1,11.9,10.37c.44,2.66.47,5.4.72,8.52,7.56,0,15-.13,22.46.06A37.35,37.35,0,0,1,263,65.27c12.68,4,19.19,15.38,17.94,29.28-.08.86-1.39,2-2.37,2.34a246.12,246.12,0,0,1-51.17,14.6,245.19,245.19,0,0,1-61.45,3A247.56,247.56,0,0,1,91.5,96.78,4.19,4.19,0,0,1,89.25,94c-1.69-17.19,10-30,27.27-30.14C124.34,63.81,132.17,63.86,140.41,63.86Z"/><path d="M261.63,306.88a19.27,19.27,0,1,1,19.42-19.16A19.51,19.51,0,0,1,261.63,306.88Z"/><path d="M127.67,287.86a19.22,19.22,0,1,1-19-19.53A19.36,19.36,0,0,1,127.67,287.86Z"/></g></g></svg>