<svg xmlns="http://www.w3.org/2000/svg" viewBox="0 0 319.66 207.74"><g id="Layer_2" data-name="Layer 2"><g id="Layer_1-2" data-name="Layer 1"><path d="M40,192.25v15.47H24.23V192.06H.8c-.41-.78-.62-1-.62-1.2.09-18.08-.74-36.23.54-54.22,1.63-22.91,21.62-43.46,44.35-47.51a74.52,74.52,0,0,1,13-1.14q101.79-.1,203.57,0c27.93,0,50.09,16.94,56.39,43.21a64.29,64.29,0,0,1,1.53,14.06c.18,15.34.06,30.67.06,46.58H295.7v15.94H279.75V192.25Z"/><path d="M287.48,78.4c-12.55-7.46-26.16-6.12-39.58-6.22-.43-2.27-.7-4.21-1.18-6.11-2.44-9.72-10.78-17.28-20.8-17.52q-26-.61-52,.06c-4.08.11-8.06,2.79-12.14,4.11-1.17.37-2.91.66-3.76.07a25.7,25.7,0,0,0-15.13-4.54c-15.34,0-30.67-.13-46,0-14.27.16-23.58,9-24.91,23.87C58.7,72.44,44.91,70.76,32.91,78c-.55-.5-.86-.65-.86-.8.13-14.2-.73-28.49.68-42.57C34.75,14.55,51.52.39,71.82.1c14.21-.2,28.43,0,42.64,0q66,0,132.05,0C266.33.1,282,12.3,286.58,31.15a35.9,35.9,0,0,1,1.08,8.12c.13,12.21.08,24.43.08,36.65C287.74,76.51,287.62,77.09,287.48,78.4Z"/><path d="M151.52,72h-63c-.42-4,1.75-7.55,5.7-7.61q25.61-.4,51.23,0C149.07,64.45,151.21,67.68,151.52,72Z"/><path d="M168.09,71.88c.33-4.89,2.56-7.4,7.19-7.71,4.46-.3,8.95-.18,13.43-.18,11.32,0,22.65,0,34,.13,5.56.06,8.16,2.37,8.85,7.76Z"/></g></g></svg>