<svg xmlns="http://www.w3.org/2000/svg" viewBox="0 0 408.8 408.54" fill="#9b9b9b">
    <g id="Layer_2" data-name="Layer 2">
        <g id="Layer_2-2" data-name="Layer 2">
            <path d="M366.48,408.54H42.32a9.93,9.93,0,0,0-1.84-.67C27.26,405.78,16.89,399.09,9,388.42,4,381.8,1.74,374.12,0,366.22V74a27.55,27.55,0,0,0,.76-2.65C4,54.74,13.4,43,28.61,35.77c8.81-4.17,18.25-4.32,27.74-4.11,3.52.08,7,0,10.86,0V0h32V31.47H309.85V0h32V31.67c6.11,0,12-.34,17.74.1s11.5.88,16.82,2.65c20.05,6.65,32.39,24.76,32.39,46.8q0,138.87,0,277.76c0,.8,0,1.6,0,2.4q-.87,23.6-19.67,37.89C382.39,404.4,374.56,406.76,366.48,408.54Zm10.38-258.42H31.94V357.53c0,13,6,19.07,19,19.07h307c13,0,19-6.05,19-19.06q0-101.39,0-202.78ZM32,117.63H376.78c0-13.3.23-26.33-.09-39.35A14.82,14.82,0,0,0,363.44,64c-7.08-.63-14.26-.13-21.83-.13V95.22h-32V63.89H98.93V95.31h-32V63.67c-7,0-13.47-.24-20,.06a15.4,15.4,0,0,0-14.9,14.92C31.78,91.53,32,104.43,32,117.63Z"/>
            <path d="M60.84,215.12V183.64H92.39v31.48Z"/>
            <path d="M156.21,215.14H124.77V183.69h31.44Z"/>
            <path d="M188.69,183.58h31.49V215H188.69Z"/>
            <path d="M284.06,183.65v31.46H252.62V183.65Z"/>
            <path d="M316.47,183.55h31.44V215H316.47Z"/>
            <path d="M60.86,278.91V247.46H92.3v31.45Z"/>
            <path d="M124.84,247.43h31.44v31.44H124.84Z"/>
            <path d="M220.19,247.53V279H188.75V247.53Z"/>
            <path d="M284,279H252.52V247.57H284Z"/>
            <path d="M316.46,247.43h31.45v31.44H316.46Z"/>
            <path d="M92.44,311.41v31.45H61V311.41Z"/>
            <path d="M156.32,311.41v31.44H124.88V311.41Z"/>
            <path d="M220,343h-31.3V311.4H220Z"/>
            <path d="M252.59,311.31H284v31.44H252.59Z"/>
        </g>
    </g>
</svg>
