<svg xmlns="http://www.w3.org/2000/svg" viewBox="0 0 236.58 288.18"><g id="Layer_2" data-name="Layer 2"><g id="Layer_1-2" data-name="Layer 1"><path d="M119.47,288.14c-23.85,0-47.71.12-71.56-.05-11.16-.09-22.33-.57-33.48-1.19-10.82-.61-16.06-11.22-14-19,5-18.92,11.58-37.2,26-51.48a83.72,83.72,0,0,1,46.19-23.74,5.29,5.29,0,0,1,3.68.93A73.66,73.66,0,0,0,107.4,208a6.68,6.68,0,0,1,3.63,2.66c7,10,19.49,12,29.4,4.82a15.73,15.73,0,0,1,4.95-2.33c11.55-3.24,23.14-6.37,34.72-9.54a4.46,4.46,0,0,0,1.41-.42c5.27-4,9.61-1.57,14.39,1.44,17.91,11.27,28.57,27.82,35.38,47.31,1.55,4.44,3.17,8.87,4.45,13.39,3.5,12.34-4.08,22-17.49,22.14-18.88.2-37.77.19-56.65.23q-21.06,0-42.12,0Z"/><path d="M62.19,112.05A76,76,0,0,1,72.41,63.49c8.35-14.37,20-24.67,36.78-27.81,17.31-3.25,32.27,2.1,44.49,14.39,13.76,13.86,20.85,30.89,21.49,50.42.45,14,.22,28.08-3.55,41.77a67.43,67.43,0,0,1-18.68,31.23,8.05,8.05,0,0,1-3.18,1.68,72.39,72.39,0,0,1-9,2.4,55,55,0,0,1-11.2,1.11A21.44,21.44,0,0,0,112,186a5.25,5.25,0,0,1-4.32,1.31c-12.19-3-21.65-10.13-29.29-19.88a79.37,79.37,0,0,1-16.05-36.37C61.31,124.67,62.19,118,62.19,112.05Z"/><path d="M192,153.32a10,10,0,0,0-2.68-8.38c-1.42-1.44-1.81-4.35-1.84-6.6-.18-13.8-.33-27.6,0-41.39.07-3.37,1.93-6.7,2.91-10.06a6.65,6.65,0,0,0,.5-3.11c-6.86-29.28-23.82-50.3-53.12-58.16-33.14-8.9-64.95,3.43-82.72,34.49-4.06,7.09-6.21,15.29-9,23.08-.42,1.19.43,2.89.84,4.31.74,2.57,2.23,5.1,2.27,7.66.23,14.42.13,28.84.1,43.26,0,5.75-2.9,10-7.46,11.17-5,1.29-8.49-.53-12-5.84a5.39,5.39,0,0,0-3.31-1.68c-11-2.07-18.37-8.26-21.41-19.19C1.18,108.66,11.81,93,26.47,91.68c2.33-.22,2.78-1.85,4.1-3,3.6-3,3.15-6.82,3.19-10.77.17-21.36,9-38.95,24.31-53.3a89.36,89.36,0,0,1,48.08-23.5c25-3.94,47.25,2.41,66.79,18.24a79.1,79.1,0,0,1,28,45.37c1.28,5.76,1.49,11.78,1.95,17.7.27,3.44,4.73,8.74,8.17,9.19,11.65,1.52,20.8,12.07,21.37,24.63a25.09,25.09,0,0,1-20.05,25.2c-3.33.65-5,2.36-7.19,4.67a9.9,9.9,0,0,0-2.86,7.88c.67,22.78-11.94,32.87-30.55,38.88-10,3.22-20.33,5.46-30.44,8.37a8.31,8.31,0,0,0-4.3,3.32,11,11,0,0,1-14.38,3.79,10.56,10.56,0,0,1-3.87-14.55c2.76-4.91,9.51-7,14.17-3.79,2.42,1.65,4.41,1.57,6.91.86,11.07-3.14,22.33-5.7,33.21-9.4C186.49,177,191.87,168.63,192,153.32Z"/></g></g></svg>