<svg xmlns="http://www.w3.org/2000/svg" viewBox="0 0 319.19 319.22"><defs><style>.cls-1{fill:#e63a48;}.cls-2{fill:#eeeae9;}</style></defs><g id="Layer_2" data-name="Layer 2"><g id="Layer_1-2" data-name="Layer 1"><path class="cls-1" d="M159.48,319.21A159.44,159.44,0,0,1,0,159.57C0,71.19,71.78-.4,159.9,0c88.49.41,159.52,71.68,159.29,159.82C319,248.18,247.63,319.36,159.48,319.21Zm16.7-159.85c1.4-1.17,2.52-2,3.48-2.92q17.49-17.43,34.93-34.91c5.64-5.66,6.06-12.92,1.1-17.91s-12.25-4.74-17.9.89q-17.61,17.56-35.19,35.18c-.94.94-1.95,1.83-3,2.83-1.07-1-2-1.85-2.85-2.71q-17.59-17.59-35.19-35.17c-5.71-5.7-12.84-6.13-17.9-1.15s-4.75,12.29,1.11,18.17q17.46,17.46,34.92,34.92c.94.95,1.83,1.95,2.86,3-1,1.06-1.82,2-2.69,2.84q-17.72,17.73-35.42,35.47a18.3,18.3,0,0,0-3.42,4.39,11.74,11.74,0,0,0,3.8,14.94c4.85,3.46,11.08,2.91,15.66-1.63q18.2-18,36.22-36.26c.93-.93,1.27-2.46,1.88-3.71a42.35,42.35,0,0,1,4.32,4.11q18,18,36,36a11.45,11.45,0,0,0,12,3.18,11.32,11.32,0,0,0,8.29-8.79c1.08-4.66-.55-8.51-3.89-11.84C202.41,185.57,189.63,172.78,176.18,159.36Z"/><path class="cls-2" d="M176.18,159.36c13.45,13.42,26.23,26.21,39.06,38.94,3.34,3.33,5,7.18,3.89,11.84a11.32,11.32,0,0,1-8.29,8.79,11.45,11.45,0,0,1-12-3.18q-18-18-36-36a42.35,42.35,0,0,0-4.32-4.11c-.61,1.25-1,2.78-1.88,3.71q-18,18.21-36.22,36.26c-4.58,4.54-10.81,5.09-15.66,1.63a11.74,11.74,0,0,1-3.8-14.94,18.3,18.3,0,0,1,3.42-4.39q17.67-17.77,35.42-35.47c.87-.87,1.69-1.78,2.69-2.84-1-1.09-1.92-2.09-2.86-3q-17.46-17.47-34.92-34.92c-5.86-5.88-6.29-13.08-1.11-18.17s12.19-4.55,17.9,1.15q17.61,17.56,35.19,35.17c.87.86,1.78,1.69,2.85,2.71,1.08-1,2.09-1.89,3-2.83q17.61-17.58,35.19-35.18c5.65-5.63,12.87-6,17.9-.89s4.54,12.25-1.1,17.91Q197.16,139,179.66,156.44C178.7,157.4,177.58,158.19,176.18,159.36Z"/></g></g></svg>