<svg xmlns="http://www.w3.org/2000/svg" viewBox="0 0 374.85 131.78"><g id="Layer_2" data-name="Layer 2"><g id="Layer_1-2" data-name="Layer 1"><path d="M277,113.65H113.54c5-29.58-17.93-45.24-35.82-44.71-21.57.64-39.53,20.33-34.29,44.78-9.51,0-19,.53-28.4-.14S-1.72,102,.35,92.77C2.3,84,4.38,75.32,6.79,66.71A25.82,25.82,0,0,1,31.87,48c4.61,0,9.23-.15,13.84,0,2.38.1,3.48-.82,4.45-2.9q6.09-13,12.53-25.86C69,6.62,79.28.06,93.5.06,136.9,0,180.3.11,223.7,0a34.29,34.29,0,0,1,25.7,10.84c11.34,11.59,22.78,23.08,34.09,34.69A7.37,7.37,0,0,0,289.32,48c18.34-.1,36.67-.07,55,0,17.51,0,30.47,12.94,30.51,30.41q0,12.91,0,25.82c0,6-3.58,9.57-9.47,9.61-6.08,0-12.17,0-18.31,0,5.12-29.53-17.76-45.4-35.79-44.87C289.81,69.57,271.73,89.14,277,113.65ZM124.07,48c17.22,0,34.43,0,51.64,0,6.82,0,10.42-3.6,10.49-10.36.06-5.61,0-11.22,0-16.84C186.2,12.27,183,9,174.45,9c-27.31,0-54.63.15-81.94-.11-6.49-.06-10.69,2.38-13.43,8-3.66,7.49-7.38,15-11,22.45C65.18,45.28,66.9,48,73.56,48Zm110.42,0c7.85,0,15.71.19,23.55-.13a8.39,8.39,0,0,0,5.82-2.8c1.6-2.21-.3-4.36-2.05-6.13-8.69-8.76-17.2-17.71-26.12-26.23a14.71,14.71,0,0,0-8.22-3.48C222.16,8.63,216.76,9,211.4,9c-6.54.08-10.14,3.67-10.21,10.23q-.1,9.16,0,18.32c.06,6.75,3.66,10.3,10.48,10.35C219.28,48,226.88,48,234.49,48Zm-18.26,15v0c-2.11,0-4.24-.15-6.33,0a9.14,9.14,0,0,0-8.67,9,9,9,0,0,0,8.51,8.76,97.24,97.24,0,0,0,12.66,0,9,9,0,0,0,8.67-9c-.07-4.66-3.83-8.45-8.88-8.82C220.21,62.82,218.22,62.94,216.23,62.94Z"/><path d="M105.36,104.87a26.94,26.94,0,1,1-27-27A26.76,26.76,0,0,1,105.36,104.87Zm-18-.06a9,9,0,1,0-9.12,9A9.28,9.28,0,0,0,87.36,104.81Z"/><path d="M338.9,104.9a26.94,26.94,0,1,1-27-27A26.76,26.76,0,0,1,338.9,104.9Zm-18,0a8.95,8.95,0,1,0-9.21,8.87A9.3,9.3,0,0,0,320.9,104.91Z"/></g></g></svg>