<svg xmlns="http://www.w3.org/2000/svg" viewBox="0 0 297.53 219.03"><g id="Layer_2" data-name="Layer 2"><g id="Layer_1-2" data-name="Layer 1"><path d="M297.52,16c.16,4.7-1.83,8.44-4.87,11.81Q252.38,72.5,212.12,117.2q-42.52,47.22-85,94.43-12.81,14.24-26.82,1.07Q53.2,168.35,6.1,124.06c-10-9.37-7.35-24.23,5.08-28.22,6.22-2,11.75-.43,16.61,4q18.89,17.11,37.88,34.11,17.7,15.92,35.4,31.83c8.52,7.61,17.28,7.21,24.89-1.22q68.32-75.66,136.6-151.39c2.51-2.78,4.94-5.65,7.58-8.3a15.44,15.44,0,0,1,17.58-3.45C294.05,4.17,297.24,9.13,297.52,16Z"/></g></g></svg>