<svg xmlns="http://www.w3.org/2000/svg" viewBox="0 0 394.54 410.65"><g id="Layer_2" data-name="Layer 2"><g id="Layer_1-2" data-name="Layer 1"><path d="M129.46,198c5.75.07,9.91,1.76,13.47,5l31.26,28.45c3.47,3.16,5.26,3.07,8.39-.47q48.51-54.81,97-109.61c1.56-1.76,3.34-2.8,5.74-2.14a4.82,4.82,0,0,1,3.86,4.46,7,7,0,0,1-1.07,3.83q-16.62,27-33.37,53.83-31.44,50.63-62.85,101.25c-2.92,4.7-6.81,8-12.32,9.09-6.74,1.32-12.38-.8-16.71-6-9.55-11.58-19-23.24-28.49-34.87-6.16-7.55-12.42-15-18.44-22.67-4.73-6-5.51-12.75-2.17-19.64A17.73,17.73,0,0,1,129.46,198Z"/><path d="M.23,260.79c-.14-13,3.63-23.35,9.94-33.14,13-20.18,13-24.08,0-43.73A57.31,57.31,0,0,1,.45,146.1a17.64,17.64,0,0,1,2.29-6.85C9.83,126.73,20.39,118.32,34,113.6c2.45-.85,4.82-1.94,7.26-2.83,12.11-4.4,16.84-13.64,17.13-25.86.24-9.82,1.08-19.54,5.47-28.58,9-18.62,18.56-24,41.72-23.95,5.09,0,10.17,1.85,15.25,2.88,3.15.64,6.29,1.34,9.43,2,11.41,2.46,19.56-2.64,25.89-11.45,7.89-11,17.6-19.4,30.58-23.93a30.34,30.34,0,0,1,21,0,58.4,58.4,0,0,1,27.8,20.22c.73,1,1.49,1.95,2.16,3,8.23,12.61,19.55,16.2,33.73,11.59,12.19-4,24.41-5.2,37-1.37a30.19,30.19,0,0,1,17.08,12.23,59.08,59.08,0,0,1,10.4,32.24c.1,3.06.41,6.11.57,9.16.65,12.07,8.18,18,18.63,22.16,7.89,3.13,16.21,6.34,22.71,11.54,17.37,13.91,19.65,23.3,14,44.76-1.42,5.34-4.71,10.2-7.23,15.24a25.25,25.25,0,0,1-2.54,3.81c-10.24,13.53-8.68,26.87.75,40,8.49,11.81,12.22,24.85,10.49,39.33a16.85,16.85,0,0,1-1.83,6,55.11,55.11,0,0,1-29.68,25.45c-1.71.64-3.51,1.11-5.16,1.87-18.08,8.34-19.77,9.79-21.17,31.09-.72,10.92-3,21-8.33,30.6-6.07,11-15.76,15.68-27.56,17.27a56.92,56.92,0,0,1-25.83-2.46,86.92,86.92,0,0,0-9.4-2.08c-10.71-2.26-18.74,2-25.1,10.31-2,2.68-4,5.46-6.26,7.92-24.37,26.37-50.4,24.68-73.59-2-.9-1-1.62-2.23-2.52-3.28-12.25-14.37-14.65-16-34.16-11.34-12.32,2.93-24.22,4.68-36.61,1.09A29.79,29.79,0,0,1,69,364a59,59,0,0,1-10.4-32.24c-.1-3.06-.43-6.1-.57-9.15-.69-14.75-11.24-20.31-23.09-24.37-11.51-3.93-21.06-10.4-28.42-20.09C2.3,272.61-.9,266.8.23,260.79Zm292.48,87.95c9,.14,10-.39,11.37-6.78a98.23,98.23,0,0,0,2.6-16.71c1-25.42,13.07-42.89,36.64-52.62a153.56,153.56,0,0,0,16.45-8.06c6.45-3.61,6.72-5,3.74-11.76-.62-1.39-1.28-2.78-2-4.11-2.91-5.2-6-10.3-8.74-15.59-5.07-9.89-9.16-20.22-7.93-31.54,1.16-10.58,5.09-20.36,10.68-29.49,3-4.94,5.65-10.13,8.3-15.28,2.19-4.26,1.13-7.76-3.17-10-6.12-3.14-12.18-6.44-18.51-9.1-21.63-9.11-33.7-24.92-35.57-48.5-.59-7.42-2.21-14.77-3.35-22.15-.51-3.29-2.6-5-5.72-4.65a203.89,203.89,0,0,0-20.8,2.85C259.27,69,242.54,69.3,228,57c-4-3.35-7.61-7.08-11.26-10.78-3.22-3.27-6.12-6.86-9.36-10.11-8.94-8.95-11.32-9-20.11-.14-4.1,4.12-7.8,8.64-11.83,12.83-7.84,8.15-16.54,15.26-27.91,17.62-10.17,2.1-20.37,1.15-30.5-1.26-6.22-1.48-12.63-2.17-19-3.16-4.34-.69-6.77,1.55-7.47,5.54C89.45,74,88.25,80.47,87.72,87c-1.64,20.29-9.16,36.94-28.09,46.82-3,1.55-6,3-9,4.45-4.68,2.26-9.46,4.32-14,6.77-8.4,4.51-9,6.27-4.82,14.67C34,164.21,36.65,168.51,39,173s5.41,9.06,6.75,14c2,7.27,4,14.94,3.67,22.34-.48,10.57-4.91,20.36-10.51,29.48A155.9,155.9,0,0,0,31,253.25c-2.72,5.72-2.16,7.8,3.34,10.92a160.55,160.55,0,0,0,17.27,8.48c21.92,9.15,34.52,25,36.26,49a177.85,177.85,0,0,0,2.64,19.06c1.41,7.68,3.12,8.84,11,7.9,4.24-.51,8.41-1.67,12.66-2.14,10.15-1.13,20.44-3.41,30.47-2.65,13.66,1,23.49,10.22,32.49,19.92,4.68,5,9.3,10.18,14.39,14.8,4.72,4.28,6.71,4.26,11.48-.05,5-4.5,9.53-9.5,14.1-14.44,8.32-9,17.44-17,29.76-19.67,10.15-2.19,20.39-1.31,30.5,1.23C283.26,347.1,289.31,348.06,292.71,348.74Z"/></g></g></svg>