<svg xmlns="http://www.w3.org/2000/svg" viewBox="0 0 382.36 383.13" fill="#fff">
    <g id="Layer_2" data-name="Layer 2">
        <g id="Layer_2-2" data-name="Layer 2">
            <path d="M227.9,383.13c-4.18-1.83-5.8-5.08-5.62-9.56s0-8.73.05-13.1a10.84,10.84,0,0,1,4.22-8.77c6.26-5.15,12.52-10.31,18.61-15.65a5.77,5.77,0,0,0,1.91-4.24c-1.74-15.34-3.72-30.65-5.64-46,0-.36-.16-.72-.31-1.39l-33,10.72q-24.69,8-49.39,16c-7.93,2.56-12-.44-12-8.83,0-4.74.11-9.48,0-14.22s1.64-8.52,5.3-11.76Q195.5,237.8,238.84,199a8.22,8.22,0,0,0,2.42-5.3c.25-8.72-.26-17.48.25-26.19a54.61,54.61,0,0,1,3.22-15.58c2.63-7.1,6.24-13.84,9.49-20.71,2.06-4.34,5.58-6.74,10.38-6.71s8.26,2.5,10.3,6.84c3.17,6.77,6.75,13.39,9.3,20.39a59.3,59.3,0,0,1,3.37,16.3c.55,8.58,0,17.21.25,25.81a7.72,7.72,0,0,0,2.25,5q43.49,39,87.17,77.68c3.54,3.14,5.29,6.72,5.11,11.46s0,9.48,0,14.22c0,8.82-4,11.62-12.5,8.85l-78.17-25.36c-1.18-.38-2.36-.73-3.71-1.15-.76,8.36-1.29,16.56-2.31,24.69-.91,7.28-2.26,14.52-3.63,21.74-.42,2.23-.08,3.68,1.74,5.15,6.12,4.93,12,10.09,18.15,15a12,12,0,0,1,4.83,10.38c-.16,4-.21,8,0,12,.26,4.51-1.37,7.72-5.47,9.65h-4.49c-7.6-2.64-15.31-5-22.75-8-6.18-2.51-11.92-2.86-18.21-.26-7.64,3.16-15.6,5.55-23.42,8.27Z"/>
            <path d="M10.64,110.77C5,106.94-.66,102.82.06,94.51c.4-4.58.06-9.23.08-13.84,0-8.44,4-11.41,11.94-8.85Q43.37,81.93,74.62,92.09L94.34,98.5c1.11-10.62,2.07-20.91,3.32-31.17.61-5.06,1.64-10.08,2.73-15.07.5-2.33.17-3.89-1.8-5.47-6.14-4.9-12.06-10.08-18.15-15A11.72,11.72,0,0,1,75.73,21.7c.15-4.48,0-9,.06-13.47.13-6.41,4.42-9.59,10.5-7.68,9.62,3,19.16,6.31,28.8,9.29a10.16,10.16,0,0,0,5.68.05C129.93,7.06,139,4,148.12,1c7.87-2.58,11.95.39,12,8.77,0,4.11,0,8.23,0,12.35a11.4,11.4,0,0,1-4.45,9.43c-5.79,4.74-11.38,9.72-17.27,14.34-2.66,2.08-3.32,4-2.79,7.49,2.09,13.91,3.59,27.91,5.29,41.88.12,1,.16,2,.26,3.38,8.92-2.87,17.65-5.65,26.37-8.48L223.3,72c8.42-2.75,12.43.14,12.47,9,0,4.62-.13,9.24,0,13.85.18,5-1.75,8.74-5.49,12.06q-43.44,38.44-86.72,77a6.77,6.77,0,0,0-2.57,5.75c.14,8.6.49,17.24-.11,25.81a62.11,62.11,0,0,1-3.63,16.61c-2.41,6.64-5.89,12.9-8.86,19.35-2.07,4.51-5.53,7.11-10.49,7.12s-8.43-2.61-10.51-7.1c-3-6.55-6.54-12.94-9-19.7a62,62,0,0,1-3.55-16.64c-.58-8.57-.24-17.21-.1-25.81a6.37,6.37,0,0,0-2.51-5.4q-31-27.4-61.81-54.94a12.78,12.78,0,0,1-2.13-2.09Z"/>
            <path d="M259.32,74.62a5.58,5.58,0,0,1-11.16-.18,5.58,5.58,0,1,1,11.16.18Z"/>
            <path d="M168.41,350.42a5.59,5.59,0,0,1,5.64,5.28,5.42,5.42,0,0,1-5.38,5.83,5.6,5.6,0,0,1-5.73-5.19A5.8,5.8,0,0,1,168.41,350.42Z"/>
            <path d="M145.23,347.32a5.57,5.57,0,0,1-5.61-5.29,5.58,5.58,0,1,1,11.16-.06A5.54,5.54,0,0,1,145.23,347.32Z"/>
            <path d="M187.69,28.58a5.66,5.66,0,0,1,5.43,5.88,5.45,5.45,0,0,1-5.66,5.2,5.36,5.36,0,0,1-5.37-5.8A5.53,5.53,0,0,1,187.69,28.58Z"/>
            <path d="M243.57,52.15a5.55,5.55,0,0,1-5.33,5.56,5.5,5.5,0,0,1-5.83-5.42,5.58,5.58,0,0,1,11.16-.14Z"/>
            <path d="M264.78,101.24a5.56,5.56,0,0,1-5.64,5.63,5.64,5.64,0,0,1-5.4-5.54,5.58,5.58,0,0,1,5.68-5.61A5.51,5.51,0,0,1,264.78,101.24Z"/>
            <path d="M123.9,287.26a5.44,5.44,0,0,1,5.54,5.68,5.67,5.67,0,0,1-5.53,5.43,5.58,5.58,0,0,1-5.49-5.78A5.36,5.36,0,0,1,123.9,287.26Z"/>
            <path d="M214.69,43.52a5.51,5.51,0,1,1-.08-11,5.51,5.51,0,1,1,.08,11Z"/>
            <path d="M135,319.33a5.58,5.58,0,1,1-6-5.3A5.56,5.56,0,0,1,135,319.33Z"/>
            <path d="M201.1,359.71a5.34,5.34,0,0,1-5.51,5.66,5.51,5.51,0,1,1,0-11A5.38,5.38,0,0,1,201.1,359.71Z"/>
        </g>
    </g>
</svg>
