<svg xmlns="http://www.w3.org/2000/svg" viewBox="0 0 408.95 408.96"><g id="Layer_2" data-name="Layer 2"><g id="Layer_1-2" data-name="Layer 1"><path d="M191,0h27.14c1.29.26,2.57.59,3.87.77,8.26,1.18,16.65,1.82,24.79,3.58,42.81,9.26,79.18,30,108.72,62.37,26.6,29.13,43.54,63.17,50.28,102.14,1.26,7.29,2.12,14.64,3.17,22V218c-.25,1.15-.59,2.28-.75,3.44-.91,7-1.38,14-2.74,20.91-10,50.52-35.06,92.08-75.82,123.51-48.29,37.23-103.06,50.34-162.93,39.39-50.2-9.18-91.44-34.5-122.82-74.74C6,281.92-7.34,226.71,3.8,166.24,13,116.19,38.53,75.37,78.37,43.73A196.69,196.69,0,0,1,169,3.18C176.27,1.93,183.64,1.05,191,0ZM383.39,204.9C383.11,106.31,304.49,26,205,25.69a178.71,178.71,0,0,0-1,357.42C302.45,383.5,382.46,304.52,383.39,204.9Z"/><path d="M191.78,301.47c0-8.34,0-8.23-8-10.4a65.93,65.93,0,0,1-25.9-13.55,12.75,12.75,0,0,1-1.85-17.59c4.17-5.43,11.91-7,17.38-2.61A47.48,47.48,0,0,0,202,268c13.46.44,26.06-2.37,35.44-12.9,8-9,6.84-19.48-2.34-27.3-9.68-8.24-21.25-10.2-33.44-10.67-18.91-.72-35.65-6.91-48.81-21-18-19.26-15.77-47.82,4.65-64.57a70,70,0,0,1,30.88-14.82c2.57-.52,3.59-1.46,3.42-4.14-.22-3.58-.12-7.18,0-10.77a12.75,12.75,0,0,1,25.49-.07c.1,3.59.16,7.19,0,10.78-.12,2.55.59,3.69,3.32,4.22a65.88,65.88,0,0,1,29.65,13.78c6.06,5,7.28,12.49,2.8,18.34s-12.12,6.6-18.44,2c-17.71-12.86-36.34-13.51-55.33-3.38a29.4,29.4,0,0,0-9.79,9.08c-5.57,8-3.46,17.66,4.49,24.45,9.67,8.25,21.25,10.2,33.44,10.67,18.91.73,35.64,6.91,48.81,21,18,19.26,15.77,47.82-4.65,64.58a70,70,0,0,1-30.88,14.81c-2.57.52-3.59,1.46-3.43,4.14.22,3.58.13,7.19,0,10.78a12.76,12.76,0,0,1-25.5.06C191.74,305.2,191.79,303.33,191.78,301.47Z"/></g></g></svg>