<svg xmlns="http://www.w3.org/2000/svg" viewBox="0 0 351.78 343.6"><g id="Layer_2" data-name="Layer 2"><g id="Layer_1-2" data-name="Layer 1"><path d="M79.88,159.83q-31.42,0-62.85,0c-10.11,0-17-6.69-17-16.76Q0,80,0,17C0,6.79,6.79.18,17.32.06,27.17,0,37,0,46.87,0h93.89C153.88,0,160,6.16,160,19.16c0,40.77-.16,81.55.11,122.32.06,10.3-6.8,18.79-18.56,18.49C121,159.45,100.45,159.83,79.88,159.83Z"/><path d="M271.37,159.83q-31.43,0-62.84,0c-10.05,0-16.87-6.76-16.88-16.89q0-63,0-126.06c0-9.6,6.33-16.15,15.93-16.79C208.7,0,209.83,0,211,0h121.2c13.56,0,19.51,6,19.51,19.64,0,40.52-.17,81.05.12,121.57.08,10.45-6.69,19-18.69,18.74C312.53,159.44,291.94,159.83,271.37,159.83Z"/><path d="M80.27,183.79h62.85c10.06,0,16.89,6.75,16.9,16.87q.06,63,0,126.06c0,9.58-6.35,16.16-15.92,16.81-1.61.11-3.24.05-4.86.05H19.54C6,343.58,0,337.6,0,324q0-61.33,0-122.69c0-8.76,4.51-15.07,12.23-17a19.77,19.77,0,0,1,4.81-.42Q48.67,183.77,80.27,183.79Z"/><path d="M271.65,183.79q31.61,0,63.22,0c9.85,0,16.75,6.73,16.77,16.61q.08,63.21,0,126.43c0,9.4-6.28,15.93-15.66,16.67-1,.08-2,.07-3,.07q-61.35,0-122.7,0c-4.44,0-8.7-.51-12.32-3.41a16,16,0,0,1-6.31-13q0-63.58,0-127.18c0-9.59,7-16.22,16.75-16.22Q240.05,183.77,271.65,183.79Z"/></g></g></svg>