<svg xmlns="http://www.w3.org/2000/svg" viewBox="0 0 359.4 408.97" fill="#fff">
    <g id="Layer_2" data-name="Layer 2">
        <g id="Layer_1-2" data-name="Layer 1">
            <path d="M233.13,0c5.58,2.61,11.7,4.47,16.61,8,9.29,6.68,13.51,16.45,13.72,27.89.07,3.84,0,7.67,0,12H268c22.48,0,45-.06,67.45,0,11.56,0,20.73,7.62,23.4,19a23.42,23.42,0,0,1-13.2,26.37,30.31,30.31,0,0,1-11.93,2.36q-89.19.21-178.4.1-65.44,0-130.9,0C10.47,95.77,0,85.28,0,71.72A23.74,23.74,0,0,1,23.86,47.94c22.35-.1,44.7,0,67.05,0h4.9c0-3.35.13-6.49,0-9.62A36.21,36.21,0,0,1,125.16.6a3.09,3.09,0,0,0,1-.6ZM119.79,47.63H239.53c0-3.32,0-6.36,0-9.41,0-9.52-4.71-14.24-14.19-14.26-10.77,0-21.55,0-32.32,0-19.95,0-39.9,0-59.85,0-7.81,0-12.88,4.53-13.33,11.86C119.59,39.65,119.79,43.51,119.79,47.63Z"/>
            <path d="M334.43,120.06c-1.18,14.35-2.32,28.38-3.48,42.42q-1.8,21.84-3.64,43.7-2.24,26.82-4.48,53.63-2.18,26.22-4.3,52.45c-1.48,17.88-2.87,35.77-4.56,53.63-.62,6.56-1.1,13.37-3.23,19.52-5.09,14.67-18.33,23.36-34.12,23.37q-62.26.06-124.53,0c-22.35,0-44.72-.52-67,.15-19.87.59-38-12.94-39.53-37.1-1.36-22-3.57-44-5.37-66-1.7-20.92-3.31-41.86-5-62.79s-3.58-41.57-5.31-62.36c-1.68-20.13-3.26-40.26-4.91-60.68ZM167.66,252.13q0,46.89,0,93.79a23,23,0,0,0,.8,6.68,11.68,11.68,0,0,0,18.74,5.34c3.57-3,4.41-7,4.41-11.46q0-94.19,0-188.38a20.84,20.84,0,0,0-.75-5.89,11.67,11.67,0,0,0-18.94-5.4c-3.39,3-4.26,6.83-4.26,11.12Q167.69,205,167.66,252.13Zm-36,98.07c-.63-11-1.1-20.18-1.68-29.33-1.76-27.86-3.61-55.71-5.34-83.57-1.69-27.19-3.25-54.4-4.93-81.59-.32-5.17-2.67-9.2-7.71-11.1-8.47-3.19-16.67,3.35-16.12,12.83.44,7.57,1,15.12,1.47,22.68q1.74,28.07,3.44,56.12,1.86,30.06,3.75,60.1c1.1,17.64,2.09,35.29,3.28,52.93.47,6.83,6.17,11.94,12.39,11.56C126.75,360.44,131.65,355.1,131.68,350.2ZM263.47,155.06c.13-5.22-4.73-10.85-11.32-11.26-6.2-.38-11.89,4.74-12.57,11.44-.23,2.25-.14,4.52-.28,6.78q-3.06,47.92-6.13,95.87-2.79,44.36-5.51,88.71c-.49,7.76,4.17,13.73,11.25,14.22,6.85.47,12.27-5.17,12.62-13,.29-6.37.68-12.73,1.08-19.1q1.83-29.64,3.72-59.28,1.76-28.44,3.49-56.89C261,194,262.17,175.42,263.47,155.06Z"/>
        </g>
    </g>
</svg>
