<svg xmlns="http://www.w3.org/2000/svg" viewBox="0 0 296.74 207.12"><g id="Layer_2" data-name="Layer 2"><g id="Layer_2-2" data-name="Layer 2"><path d="M296.74,196.69c-2,4.91-4.91,8.94-10.54,10a23,23,0,0,1-4.31.37q-128.59,0-257.2,0c-6,0-10.81-2.1-13.47-7.69-2.38-5-1.64-9.79,1.83-14.09a13.12,13.12,0,0,1,9.86-4.77c1.15-.07,2.31,0,3.47,0q126.29,0,252.56-.1c8.38,0,14.73,2.09,17.8,10.46Z"/><path d="M132.88,105,102,115.24Q69.8,126,37.55,136.68a17.08,17.08,0,0,1-3.64.87,6.76,6.76,0,0,1-6.9-4.24,6.5,6.5,0,0,1,2.11-7.79c2.84-1.94,6-3.48,9.23-5.33-.63-.85-1.2-1.69-1.84-2.48q-16.84-21-33.72-42c-4.46-5.56-3.6-9.67,2.77-13,11.74-6.09,9.14-6,20.79,0Q48.19,74,70,85.39a4.77,4.77,0,0,0,5,0Q141.57,50.7,208.24,16.2A270.12,270.12,0,0,1,237.79,3.13c4.53-1.67,9.88-1.11,14.86-1.54,7-.6,14-1.68,21-1.58a28.26,28.26,0,0,1,12.1,3.24c6.3,3.22,7.55,9.37,4,15.52A36.11,36.11,0,0,1,275.79,32c-12.09,6.81-24.38,13.27-36.65,19.77-12.53,6.63-25.14,13.1-37.68,19.72a16.32,16.32,0,0,0-4.11,3.08c-17.53,18.24-35,36.55-52.54,54.76a28.24,28.24,0,0,1-6.41,4.81c-5,2.8-10.05,5.32-15.11,7.93-3.42,1.75-6,1.52-7.91-.66s-1.9-4.65,0-7.75C121,124.31,126.74,115,132.88,105Z"/></g></g></svg>