<svg xmlns="http://www.w3.org/2000/svg" viewBox="0 0 321.95 322.24"><g id="Layer_2" data-name="Layer 2"><g id="Layer_1-2" data-name="Layer 1"><path d="M160.6,322.22q-51.82,0-103.65,0c-18.13,0-33.26-6.79-44.75-21A52.12,52.12,0,0,1,.06,267.86q-.12-27.31,0-54.63c0-10.1,7.59-17.85,17.25-17.83s17.17,7.72,17.2,17.87c.05,17,.26,33.93-.06,50.89-.28,14.11,10.11,23.41,23.28,23.35q103.28-.48,206.55,0c13,.06,23.54-9,23.28-23.35-.31-17.09-.11-34.18,0-51.27,0-9.32,6.29-16.15,15.7-17.36,7.93-1,16,4.62,18.2,12.91a19.18,19.18,0,0,1,.53,4.79c0,18.21.1,36.42,0,54.63-.19,27.62-22.26,51.44-49.8,53.86-3.47.31-7,.48-10.45.48Q211.11,322.26,160.6,322.22Z"/><path d="M180.32,193.93c11-11,21-21.18,31.24-31.25,6.9-6.82,16.3-7.44,23.36-1.78,8.28,6.63,9,18.24,1.33,26-12.88,13.06-25.9,26-38.87,38.93-3.44,3.44-6.82,7-10.38,10.26-13.37,12.42-34.11,13.31-47.77,1.28-18.73-16.48-37-33.44-55.33-50.38a17.09,17.09,0,0,1-.81-24.24c6.63-7.2,17.18-7.58,24.78-.71,11.56,10.45,23,21,34.54,31.53l3,2.73v-4.87q0-85.69,0-171.39c0-5,.76-9.68,4.07-13.64A17.2,17.2,0,0,1,168.38.91,17.72,17.72,0,0,1,180.29,17c.08,1.37,0,2.74,0,4.11V193.93Z"/></g></g></svg>