<svg xmlns="http://www.w3.org/2000/svg" viewBox="0 0 288.02 264.1"><g id="Layer_2" data-name="Layer 2"><g id="Layer_1-2" data-name="Layer 1"><path d="M143.82,264.09q-53.43,0-106.87,0C15.63,264.07,0,248.52,0,227.27Q0,204,0,180.78c0-7.42,4.9-12.63,11.82-12.68C19,168,24,173.25,24,180.81c0,15.13,0,30.25,0,45.37,0,9,4.84,13.91,13.88,13.91H250.12c9.08,0,13.87-4.81,13.88-13.9q0-22.69,0-45.38c0-7.58,5-12.77,12.15-12.71,6.9.05,11.82,5.29,11.83,12.68,0,15.87.05,31.74,0,47.62a35.74,35.74,0,0,1-35.8,35.67Q198,264.15,143.82,264.09Z"/><path d="M132,178.78V134.13q0-60.93,0-121.85a12,12,0,0,1,23.44-3.77,17.72,17.72,0,0,1,.52,5.16q0,80.23,0,160.46V179c5.21-4.12,9.86-7.79,14.49-11.48q13-10.4,26-20.83c6-4.77,13.13-4.27,17.64,1.22,4.39,5.33,3.4,12.76-2.5,17.5q-29.35,23.58-58.8,47c-6.46,5.15-11.35,5.08-17.88-.12q-28.56-22.78-57.07-45.64c-5.81-4.66-6.88-11.79-2.7-17.21s11.68-6.35,17.58-1.69c12,9.44,23.83,19,35.75,28.49C129.49,177,130.49,177.67,132,178.78Z"/></g></g></svg>