<svg xmlns="http://www.w3.org/2000/svg" viewBox="0 0 383.26 383.26"><g id="Layer_2" data-name="Layer 2"><g id="Layer_1-2" data-name="Layer 1"><path d="M383.26,44.16c-2.57,7.51-8.77,12.12-13.95,17.55-3.17,3.31-6.29,6.67-9.21,9.78L311.53,22.72c2-1.62,4.68-3.59,7.1-5.87,3.89-3.66,7.4-7.76,11.45-11.23,2.66-2.28,6-3.78,9-5.62h8.23c5.35,1.74,9.45,5.21,13.26,9.22q6.54,6.91,13.45,13.46c4,3.8,7.46,7.92,9.22,13.25Z"/><path d="M242.42,62.6A23.37,23.37,0,0,0,239.1,65q-48.85,48.78-97.68,97.58a42.12,42.12,0,0,0-10.67,17.27c-4.86,15.14-10.15,30.15-15,45.29-6.15,19.09,4.6,38.33,23.95,43.24a32.21,32.21,0,0,0,18.4-.75c15.81-5.23,31.6-10.54,47.41-15.79a37,37,0,0,0,14.63-9.37q49-49.14,98.13-98.2a32.16,32.16,0,0,0,2.53-3.23l.87.47c.08,1,.23,2.06.23,3.08q0,98.79,0,197.57a40.88,40.88,0,0,1-41,41.11q-119.92.06-239.85,0A40.91,40.91,0,0,1,0,342.39Q0,222.27,0,102.16A40.88,40.88,0,0,1,40.67,61.41q99.16-.09,198.32,0h2.59Z"/><path d="M295.44,40.29c16,16,31.66,31.65,47.56,47.54-.71.77-1.6,1.77-2.54,2.71q-67.72,67.72-135.52,135.37a24.74,24.74,0,0,1-9.05,5.51c-14.29,5-28.73,9.64-43.07,14.53-4.88,1.66-9.38,1.54-13.17-2.2s-4-8.44-2.27-13.47c5-14.7,9.76-29.49,14.81-44.17a18.58,18.58,0,0,1,4.23-6.87q68.4-68.62,137-137.08C294.08,41.46,294.84,40.84,295.44,40.29Z"/></g></g></svg>