<svg xmlns="http://www.w3.org/2000/svg" viewBox="0 0 381.7 381.54"><g id="Layer_2" data-name="Layer 2"><g id="Layer_2-2" data-name="Layer 2"><path d="M35.89,381.54c-3.77-1.16-7.73-1.89-11.27-3.54C9,370.69.69,358.25.2,341.05c-.39-13.66-.09-27.33-.09-41q0-115.3,0-230.63C.13,48.33,13.41,31.87,33.59,28a49.53,49.53,0,0,1,9.27-.7q79.73-.06,159.47,0c9.26,0,14.94,4.56,15.66,12.42a13.43,13.43,0,0,1-12.55,14.69c-1.49.1-3,.07-4.47.07H43c-7.84,0-13.26,3.45-14.93,9.78a28.78,28.78,0,0,0-.63,7.38q-.06,83.64,0,167.29,0,49.19,0,98.36a43.26,43.26,0,0,0,.25,5.58A13.17,13.17,0,0,0,39,354a43,43,0,0,0,5.2.23H283a45,45,0,0,0,5.2-.22,13.25,13.25,0,0,0,11.51-11.85c.15-1.73.13-3.47.13-5.21q0-64.83,0-129.66a25.45,25.45,0,0,1,1-7.69,13.44,13.44,0,0,1,25.66,1.31,27.45,27.45,0,0,1,.61,6.27q0,65.58,0,131.15c0,22.56-12.64,38-34.75,42.67a3.58,3.58,0,0,0-1,.53Z"/><path d="M381.7,58.09c-.8,3.22-1.44,6.49-2.42,9.66C376.54,76.59,371.49,84,365,90.5q-88.16,88.07-176.32,176.11a25.06,25.06,0,0,1-9.26,5.85c-25.8,8.81-51.71,17.31-77.57,25.94-5.09,1.71-10,1.94-14.52-1.48-5.09-3.85-6.53-9.67-4.17-16.77,7-20.93,14.59-41.67,20.73-62.84C108,203,115.59,191.82,126.15,181.4c55.22-54.52,110-109.54,164.76-164.48C302.31,5.5,315.73-.55,331.93,0,356.41.92,377.39,19.81,381,44.1a12.41,12.41,0,0,0,.68,2.06ZM117.12,264.4c1.22-.31,1.8-.43,2.37-.62,16.22-5.42,32.46-10.81,48.64-16.34a12.58,12.58,0,0,0,4.46-3.15Q258.78,158.18,344.91,72a44.78,44.78,0,0,0,4.22-4.71c6.05-8.09,7-16.92,2.64-25.92-7.85-16.14-27.87-18.76-41.19-5.46q-87,86.88-173.92,173.88a9.36,9.36,0,0,0-2.35,3.25C128.59,229.93,123,246.86,117.12,264.4Z"/></g></g></svg>