<svg xmlns="http://www.w3.org/2000/svg" viewBox="0 0 383.35 384"><g id="Layer_2" data-name="Layer 2"><g id="Layer_1-2" data-name="Layer 1"><path d="M375.12,384H8.33C2.1,381.25,0,376.5,0,369.69c.19-55.48.1-111,.1-166.46v-4.95c1.47.66,2.59,1.13,3.67,1.66Q94,244.94,184.13,290c5.29,2.66,9.9,2.7,15.17.05,35.7-18,71.5-35.77,107.26-53.64Q345,217.24,383.35,198V375.75A15.39,15.39,0,0,1,375.12,384Z"/><path d="M383.35,173.25l-23,11.36V123.52c2,1.45,3.72,2.71,5.45,4,3.71,2.73,7.6,5.26,11.06,8.28,2.45,2.14,4.33,5,6.46,7.46Z"/><path d="M194.72,0l30.9,22.19H157.91L188.73,0Z"/><path d="M191.73,45H324.58c8.89,0,13.1,4.16,13.1,13q0,67.11.09,134.24c0,3-1,4.36-3.54,5.61q-69.57,34.56-139,69.31a6.72,6.72,0,0,1-6.87,0q-69.48-34.8-139.07-69.34c-2.52-1.25-3.58-2.56-3.57-5.59q.18-67.31.09-134.61C45.77,49.31,50.13,45,58.5,45Zm-.19,90h14.59c17.34,0,34.69.06,52,0,8.68,0,14.18-7.53,11.34-15.16-1.76-4.72-6.07-7.32-12.28-7.32q-65.49,0-131,0a22.87,22.87,0,0,0-2.62.06c-7.66.89-12.33,8.35-9.6,15.29,1.76,4.46,6,7.14,11.66,7.14Q158.6,135,191.54,135Zm-33.31,22.5c-11,0-22-.05-32.94,0-6.89,0-12.07,4.88-12.14,11.14s5.16,11.29,12,11.32c22,.07,43.91.12,65.87-.1a15.07,15.07,0,0,0,7.84-2.8c3.86-2.69,4.93-7.66,3.36-12.08a11.45,11.45,0,0,0-11-7.48C180.18,157.44,169.21,157.5,158.23,157.5Z"/><path d="M23,184.57c-7.39-3.66-14.51-7.14-21.54-10.78a3.49,3.49,0,0,1-1.33-2.67c-.1-8.6-.3-17.22.1-25.8a10.93,10.93,0,0,1,3.37-7.13c6.06-5.1,12.6-9.63,19.4-14.71Z"/></g></g></svg>