<svg xmlns="http://www.w3.org/2000/svg" viewBox="0 0 384 287.43"><g id="Layer_2" data-name="Layer 2"><g id="Layer_1-2" data-name="Layer 1"><path d="M0,257.55V80.89A16.3,16.3,0,0,1,2.27,82Q80.15,133.76,158,185.58c22.16,14.74,45.78,14.79,67.95,0q76.83-51,153.6-102.18c1.42-1,3-1.71,4.45-2.56V257.55c-.15.19-.38.36-.44.58C378,278.25,366,287.43,345,287.43H39c-1.5,0-3,0-4.5,0A35.51,35.51,0,0,1,1.44,262.11C1,260.58.48,259.07,0,257.55Z"/><path d="M384,30V41.22a5,5,0,0,0-.68,1.26,33.1,33.1,0,0,1-14.6,21.33q-78.47,52.25-157,104.41c-13,8.61-26.7,8.46-39.72-.17q-78.46-52-156.73-104.24A32.26,32.26,0,0,1,3.51,50.55c-1.4-3-2.35-6.21-3.51-9.33V30c.15-.2.38-.37.44-.59C5.91,9.36,18.1.11,39,.11H325.11c8,0,16-.28,24,.07,15.09.66,25.93,8,32.18,21.75A79.43,79.43,0,0,1,384,30Z"/></g></g></svg>