<svg xmlns="http://www.w3.org/2000/svg" viewBox="0 0 379.41 295.29"><defs><style>.cls-1{fill:#fff;}</style></defs><g id="Layer_2" data-name="Layer 2"><g id="Layer_1-2" data-name="Layer 1"><path d="M112.75,22.91h13.83a6.94,6.94,0,0,0,1.47.51A67.61,67.61,0,0,1,158.4,34.49c20.33,13.71,31.79,32.87,32.88,57.38,1.12,25.41-8.36,47.37-24.51,66.62-3,3.55-5.19,7-8.46,10.48,7,3.5,12.95,6.74,20,10.35a42.78,42.78,0,0,0,13.42,4.45c28.52,4.32,34.59,32.87,34.32,59.81-.15,15.51,13.25,26.78,13.25,42.29,0,6.49-2.87,9.34-9.4,9.34H127.65v-3.1q0-27,0-54a3.65,3.65,0,0,0-1-2.65c-4-2.76-8-4.37-12.66-.91-1.6,1.19-2.35,2.07-2.34,4.09.08,17.81,0,35.62,0,53.44v3.1H9.14C3,295.21,0,292.26,0,286.14c0-15.69,0-31.37,0-47.06a63.17,63.17,0,0,1,.52-7.66c3-23.71,21.54-43.38,45.21-47.24a55.44,55.44,0,0,0,17.38-5.91c5.62-3,11.37-5.72,17.07-8.58.74-.37,1.46-.8,2.52-1.39-.56-.4-.88-.57-1.14-.81-12.77-11-21.68-24.67-27.61-40.32-5.64-14.93-8.28-30.36-4.66-46.08C56,51.92,73.92,33,103,25,106.17,24.1,109.49,23.6,112.75,22.91ZM119.51,208c.31-.15.52-.19.6-.31,6.25-9.34,12.51-18.67,18.67-28.07a3,3,0,0,0,.06-2.56c-3.56-7.11-2.52-12.48,3.56-17.67,2.63-2.24,5.42-4.31,7.85-6.76,13.55-13.69,21.61-30.17,24.72-49.56-15.73,1.36-29.2-2.87-39.1-15.37-.4.12-.5.12-.55.17a8.85,8.85,0,0,0-.76.74c-8.55,10.12-19.47,14.83-32.69,14.64-11.52-.16-23,0-34.56,0H64.42c2.26,15.23,7.81,28.82,17.12,40.61,4.3,5.45,9.55,10.18,14.57,15,5.18,5,6.91,11.47,3.78,16.69-.94,1.55-.6,2.45.25,3.71,6,8.87,11.92,17.79,17.87,26.69C118.49,206.65,119,207.32,119.51,208Zm-11.6,11.82L85,185.31,67.6,194l22.9,34.51Zm75.68,42.95h15.15c5-.14,8.57-3.43,8.65-7.88s-3.64-8-8.73-8.06c-10.1-.06-20.2-.09-30.29,0a11.25,11.25,0,0,0-5.24,1.49,7.37,7.37,0,0,0-3.14,8.54,7.91,7.91,0,0,0,7.93,5.84C173.14,262.84,178.37,262.77,183.59,262.77Z"/><path class="cls-1" d="M142,295.21h-8v-65c.13-2.22,3.61-54.39,34.42-67.55l3.14,7.36c-25.71,11-29.39,58-29.57,60.56Z"/><path d="M256.89,0c7.73,2.12,15.6,3.82,23.15,6.45C290.63,10.13,300.41,15.32,308,24c9.25,10.67,11.14,23,8.58,36.38-.32,1.69-.73,3.37-1.19,5-.91,3.34-1.84,6.26.66,9.82,2.76,3.92,1.65,9,.58,13.46s-3.14,8.75-4.74,13.12a26,26,0,0,0-.83,2.73c-4.4,17.32-12.7,32.25-27,43.39-16.13,12.58-34.35,12.63-50.57.16-14.65-11.28-23.9-26-27.35-44.22a5.89,5.89,0,0,0-.79-2.13c-4.7-7.13-5.62-15.15-5.5-23.39,0-1.37.3-3.17,1.19-4,2.37-2.3,1.41-4.65.84-7.14-2-8.68-3.06-17.45-.9-26.22C205.06,24.39,220,3.4,244,.48A5.68,5.68,0,0,0,245.36,0Z"/><path d="M138,295.21h54.6C175.87,295.28,155,295.21,138,295.21Z"/><path d="M254.69,295.21c-20.25.16-41,0-62.08,0Z"/><path d="M256.25,186.09l-12.84-19.73c10.12,3.61,19.74,3.17,29.74,1.13L261,186.12c3.45,3.85,6.78,7.42,9.9,11.15a4.83,4.83,0,0,1,1.06,3.42q-5.73,35.75-11.71,71.44c-.16,1-1.14,1.89-1.74,2.83-.53-.92-1.38-1.78-1.54-2.76q-6-35.85-11.73-71.72a4.48,4.48,0,0,1,1-3.17C249.44,193.58,252.76,190,256.25,186.09Z"/><path d="M379.41,261.89v24.29a9,9,0,0,1-9,9H138c.13-13.47.14-14.3.19-25.5,0-5.74-.23-11.51,0-17.25.63-13.81,2.07-27.54,5.62-41,3-11.37,7.14-22.29,13.85-32,4.66-6.75,11.63-10.54,19.14-13.16,12.68-4.43,25.41-8.66,36.9-15.83a3.14,3.14,0,0,1,2.51.06c3.36,1.51,4.7,3.84,4.47,7.85-.56,9.78-.49,19.59-.59,29.39a11.66,11.66,0,0,0,.68,4.19q16.23,43.47,32.54,86.9c.84,2.24,1.77,4.31,4.43,4.78s4.71-.93,6.05-4.5q8.66-23,17.26-46c5.1-13.63,10.22-27.26,15.26-40.92a13.89,13.89,0,0,0,.81-4.74c-.11-10.56-.19-21.13-.58-31.69-.13-3.47,2.57-4,4.48-5.2.8-.51,2.66,0,3.69.63,10.41,6.3,21.73,10.54,33.24,14.18,12.75,4,21.85,11.66,27.42,24a133.29,133.29,0,0,1,11.29,38.74c1.32,10.65,2.17,21.39,2.67,32.11C379.4,260.77,379.41,261.33,379.41,261.89Z"/></g></g></svg>