<svg xmlns="http://www.w3.org/2000/svg" viewBox="0 0 335.32 335.12"><g id="Layer_2" data-name="Layer 2"><g id="Layer_1-2" data-name="Layer 1"><path d="M136,203.38c.24-4.18.46-7.88.67-11.44,6.71-2.22,7.79-4.12,6.17-10.57q-2.51-9.94-5.05-19.88c-1.16-4.53-2.95-6-7.63-6q-21.33,0-42.66,0H83.08c-1-7.7-2-15.19-2.93-22.69-.8-6.42-1.29-12.9-2.47-19.25a8.76,8.76,0,0,0-3.87-5.41c-7.4-4.09-15-7.77-22.65-11.48-3.65-1.78-7-.67-8.53,2.53s-.33,6.1,3.31,8c6,3.09,12.08,5.92,18,9.13a5.88,5.88,0,0,1,2.62,3.81c1.65,11.57,3.07,23.18,4.64,35.38H67q-20.58,0-41.17,0c-5.16,0-6.73,1.3-8,6.39-1.66,6.51-3.35,13-5,19.51s-.54,8.32,6,10.5a21.61,21.61,0,0,1,.45,2.86c.06,2.72,0,5.45,0,8.41H.25V0H335V203.36c-8.19,0-16.49,0-24.79-.08-.71,0-1.57-1.06-2.08-1.81-5.8-8.48-20.84-13.6-31-6.81-2.33,1.56-7.39-1.19-7.72-4-.84-7.25-4.33-12.55-11-15.74a6.57,6.57,0,0,1-2.58-2.85c-3.47-6.7-9-10.5-16.42-10.45s-12.91,3.89-16.31,10.63a6.5,6.5,0,0,1-2.68,2.74c-6.5,3.19-10,8.4-10.81,15.49-.43,3.68-5.1,6.08-8.34,4.28-9.7-5.36-23.11-2.51-30,6.27-.81,1-2.19,2.27-3.33,2.3-9.72.18-19.45.1-29.18.1ZM107.79,89.77c.29,33.1,27.35,59.91,60.21,59.68a60.15,60.15,0,0,0,59.52-60.39c-.23-32.8-27.67-59.67-60.58-59.32C134.44,30.08,107.49,57.43,107.79,89.77Zm185.65,83.78.3.6c3.89-1.5,7.82-2.9,11.66-4.55,2.35-1,4.48-2.52,6.82-3.59,6.9-3.14,10.78-8.56,11-16s-3.24-12.82-9.71-16.48a10.93,10.93,0,0,1-4-3.91c-3.51-6.35-8.83-9.93-16-10-7.3-.05-12.72,3.59-16.28,10.07a9.52,9.52,0,0,1-3.74,3.68c-11.3,5.84-13.9,21.18-4,29,5.76,4.56,13.16,7.05,19.88,10.35C290.6,173.37,292.09,173.31,293.44,173.55Z"/><path d="M155.74,251.48H323.15a89.38,89.38,0,0,1-6.67,28.16,96.71,96.71,0,0,1-15.65,25.76c-3.06,3.64-6.81,3.05-9-1.42-5.86-11.87-20.56-14.7-29.11-5-3.64,4.14-7.13,8.14-11.58,11.48-3.81,2.87-5.3,7.39-5.56,12.44h11.65c.78-3.61,2.89-5.59,6.87-5.93,3.22-.27,4.88-2.6,5.37-5.81.62-4.05,2.53-5.92,5.85-6,3.52-.07,5.45,1.78,6.14,6.08.48,3,2.06,5.36,5.09,5.65,4,.39,6.44,2.19,7.16,6.23,11.56,0,22.9,0,34.25,0,4.81,0,7.35,2.08,7.37,5.95s-2.54,6-7.31,6H7.34c-4.79,0-7.34-2.1-7.34-6s2.54-6,7.33-6q14.59,0,29.19,0h4c-3.26-44-6.49-87.59-9.74-131.46h94.15c-3.24,43.72-6.47,87.38-9.72,131.26H198C172.87,305.39,158.91,281.74,155.74,251.48Zm-77.9-36.12A30.28,30.28,0,0,0,47.9,245.48c.12,16.22,13.82,29.84,29.92,29.76a30.3,30.3,0,0,0,29.94-30.13C107.72,229,94,215.34,77.84,215.36Z"/><path d="M155.71,239c0-4.5-.16-8.74,0-13,.25-5.44,5.27-10.34,10.71-10.68,1.87-.11,3.75-.09,5.62,0,3.67.14,6-1.42,7.51-4.89a11.51,11.51,0,0,1,16.92-4.81c1.13.77,2.15,1.7,3.26,2.51a6,6,0,0,0,7.59,0c1.12-.79,2.17-1.68,3.25-2.52,2.18-1.7,3.91-1.88,6.56,0a94,94,0,0,0,14.58,8,17,17,0,0,0,14.53.29,152.88,152.88,0,0,0,16.55-9c2-1.27,3.42-1.5,4.83-.06,5.32,5.44,10.06,4.83,15.77,0,4.68-3.93,13.47-1,15.75,4.85,1.71,4.4,4.55,5.84,8.91,5.58,3.76-.22,7.51-.23,10.63,2.44,2.89,2.47,4.68,5.45,4.64,9.37s0,7.71,0,11.84Z"/><path d="M127.12,167.56l3,11.67H25.63c1-3.95,1.94-7.8,2.91-11.67Z"/><path d="M239.42,204.24c-2.35-1.35-4.49-2.62-6.67-3.84-1.86-1-3.67-2.42-5.68-2.92-3.4-.86-5.46-2.75-5.5-6a5.64,5.64,0,0,1,5.34-6c4.1-.46,6.2-2.51,6.68-6.62.41-3.48,2.75-5.48,6-5.39,3.51.11,5.55,2,5.91,5.48.44,4.13,2.67,6.1,6.75,6.54a5.59,5.59,0,0,1,5.24,6.1c-.14,3.34-2.08,4.93-5.21,5.87-2.2.67-4.15,2.2-6.22,3.32S242,202.9,239.42,204.24Z"/><path d="M146.38,215.59l-3.13,11.6h-9.12c.29-3.89.57-7.63.86-11.6Z"/><path d="M167.84,41.71a47.71,47.71,0,0,1,47.72,48.16c0,26.67-21.51,47.71-48.63,47.64-25.93-.07-47.2-21.71-47.17-48A47.68,47.68,0,0,1,167.84,41.71ZM149.7,89.41c0,5.74-.1,11.47,0,17.2s4.3,8.29,9.42,5.78c11.4-5.58,22.72-11.32,34.09-17,2.53-1.25,4.77-3.2,4.14-6a9.36,9.36,0,0,0-4.2-5.55C182.05,78.06,170.76,72.54,159.49,67c-5.54-2.72-9.68-.17-9.78,6C149.63,78.44,149.69,83.93,149.7,89.41Z"/><path d="M293.43,162.5c-2.59-1.57-4.7-2.89-6.85-4.13-1.76-1-3.47-2.36-5.37-2.8-3.72-.87-5.77-2.74-5.75-6.12,0-3.23,1.94-5.48,5.47-5.9,3.92-.46,6-2.44,6.53-6.37.5-3.77,2.76-5.79,6.13-5.62s5.44,2.14,5.8,5.6c.41,3.94,2.56,6,6.48,6.38,3.46.36,5.36,2.4,5.48,5.89s-2,5.27-5.71,6.14c-1.91.44-3.63,1.77-5.38,2.79C298.11,159.6,296,160.93,293.43,162.5Z"/><path d="M60.41,240.8l27.85,18.54c-4.62,4.51-12.35,5.26-18.69,2C62.35,257.58,58.86,250.21,60.41,240.8Z"/><path d="M95.17,249.74l-28-18.65A17.38,17.38,0,0,1,87.39,230C93.89,234.12,96.87,241.28,95.17,249.74Z"/><path d="M162,81.38,178.4,89.6,162,97.85Z"/></g></g></svg>