<svg xmlns="http://www.w3.org/2000/svg" viewBox="0 0 96.01 390.74"><g id="Layer_2" data-name="Layer 2"><g id="Layer_1-2" data-name="Layer 1"><path d="M54.75,0c6.4,2.54,13.38,4.17,19.1,7.78C88.94,17.3,96.76,31.53,96,49.42c-.84,18.63-2.82,37.22-4.33,55.82q-2,24.69-4.09,49.36Q85.4,180,83.23,205.47c-1.38,16.45-2.69,32.9-4.11,49.35-.94,10.87-1.67,21.78-3.1,32.59-1.78,13.34-14.42,23.67-28.14,23.67s-26.46-10.32-28.13-23.67c-1.72-13.85-2.67-27.79-3.88-41.7q-2.2-25.25-4.28-50.49Q9.5,170.37,7.46,145.49C6.05,128.66,4.51,111.84,3.21,95,1.94,78.42-.11,61.82,0,45.24.16,23.3,17.44,4.59,39,.77A11,11,0,0,0,41,0Z"/><path d="M48.11,328.13a31.31,31.31,0,1,1-31.52,30.94A31.12,31.12,0,0,1,48.11,328.13Z"/></g></g></svg>