<svg xmlns="http://www.w3.org/2000/svg" viewBox="0 0 409.6 383.01"><defs><style>.cls-1{fill:#307e34;}.cls-2{fill:#fff;}.cls-3{fill:#3a8f3d;}.cls-4{fill:#3b8f3e;}</style></defs><g id="Layer_2" data-name="Layer 2"><g id="Layer_1-2" data-name="Layer 1"><path class="cls-1" d="M230.45,101.88q0-25.51.08-51-.06-18.14-.13-36.28c0-10.77-6.46-16.14-17-14.17Q112.46,19.26,11.51,38.05C5.93,39.08,3,42.79,0,46.87V335.11c2.87,6.95,8.61,9.16,15.58,10.44,52,9.54,103.85,19.32,155.77,29,14.51,2.72,29,5.53,43.53,8.18,8.41,1.53,15.39-4.3,15.49-12.93.14-12.63.12-25.27.16-37.9q0-25.51-.08-51ZM148,202.09c9.21,10.51,18.52,20.93,27.6,31.55,6.79,7.92,3.3,19.15-6.5,21.3-5.54,1.21-9.79-1.14-13.37-5.25-10.22-11.75-20.52-23.43-30.78-35.14-1.67-1.9-3.34-3.78-5.32-6-1,1.26-1.92,2.32-2.78,3.42q-14.46,18.57-28.93,37.16c-4.46,5.7-10.07,7.51-15.76,5.22-8.08-3.25-10.68-12.6-5.22-19.84,7.29-9.66,14.84-19.13,22.28-28.68l13.16-16.91L84.21,168.13c-5.35-6.11-10.73-12.18-16-18.32-5.63-6.51-5.49-14.13.27-19.12s13.28-4.07,19,2.38c5.13,5.77,10.17,11.61,15.26,17.41l15.65,17.83c8.48-10.86,16.65-21.33,24.81-31.8,4.09-5.24,8.14-10.53,12.27-15.74,5.27-6.66,13-7.93,18.9-3.19s6.47,12.17,1.34,18.8Q157,160.53,138.18,184.57l-2.59,3.37Z"/><path class="cls-2" d="M175.57,233.64c6.79,7.92,3.3,19.15-6.5,21.3-5.54,1.21-9.79-1.14-13.37-5.25-10.22-11.75-20.52-23.43-30.78-35.14-1.67-1.9-3.34-3.78-5.32-6-1,1.26-1.92,2.32-2.78,3.42q-14.46,18.57-28.93,37.16c-4.46,5.7-10.07,7.51-15.76,5.22-8.08-3.25-10.68-12.6-5.22-19.84,7.29-9.66,14.84-19.13,22.28-28.68l13.16-16.91L84.21,168.13c-5.35-6.11-10.73-12.18-16-18.32-5.63-6.51-5.49-14.13.27-19.12s13.28-4.07,19,2.38c5.13,5.77,10.17,11.61,15.26,17.41l15.65,17.83c8.48-10.86,16.65-21.33,24.81-31.8,4.09-5.24,8.14-10.53,12.27-15.74,5.27-6.66,13-7.93,18.9-3.19s6.47,12.17,1.34,18.8Q157,160.53,138.18,184.57l-2.59,3.37L148,202.09C157.18,212.6,166.49,223,175.57,233.64Z"/><path class="cls-2" d="M230.45,204.08V178.7q18.75,0,37.48-.08c5.91,0,10.34-2.5,12.66-7.94,3.64-8.5-2.59-17.45-12.26-17.58-12.62-.16-25.25-.09-37.88-.12V127.6q18.75,0,37.48-.08c5.91,0,10.34-2.5,12.66-7.94,3.64-8.5-2.59-17.45-12.26-17.58-12.62-.16-25.25-.09-37.88-.12q0-25.51.08-51c54,0,107.89.12,161.84-.11,7.73,0,13.47,2.1,17.23,8.91V323.13c-3.7,6.9-9.45,8.95-17.19,8.92-54-.25-107.92-.12-161.88-.12q0-25.51-.08-51,18.75,0,37.48-.08c5.91,0,10.34-2.5,12.66-7.94,3.64-8.5-2.59-17.45-12.26-17.58-12.62-.16-25.25-.09-37.88-.12V229.8q18.75,0,37.48-.08c5.91,0,10.34-2.5,12.66-7.94,3.64-8.5-2.59-17.45-12.26-17.58C255.71,204,243.08,204.11,230.45,204.08ZM332.61,127.5c4.4,0,8.8.13,13.19,0a12.71,12.71,0,0,0,.17-25.42c-8.78-.23-17.59-.23-26.37,0a12.59,12.59,0,0,0-12.38,12.62,12.74,12.74,0,0,0,12.61,12.81C324.08,127.62,328.35,127.5,332.61,127.5Zm-.08,51.11c4.27,0,8.53.08,12.79,0,7.53-.17,13.07-5.65,13.06-12.77s-5.54-12.6-13.12-12.72c-8.4-.13-16.79-.15-25.18,0-7.35.14-12.78,5.61-12.86,12.58-.08,7.12,5.44,12.7,12.92,12.9C324.27,178.7,328.4,178.61,332.53,178.61Zm.1,51.09c4.4,0,8.8.13,13.19,0a12.72,12.72,0,0,0,12.56-12.45,12.59,12.59,0,0,0-12.42-13q-13.18-.34-26.38,0a12.59,12.59,0,0,0-12.36,12.63,12.75,12.75,0,0,0,12.62,12.8C324.1,229.82,328.37,229.7,332.63,229.7Zm-.22,51.11c4.4,0,8.8.1,13.19,0,7.28-.21,12.73-5.67,12.78-12.64a12.65,12.65,0,0,0-12.6-12.81q-13-.3-26,0a12.65,12.65,0,0,0-12.58,12.83c.07,7,5.52,12.41,12.8,12.63C324.15,280.91,328.28,280.81,332.41,280.81Z"/><path class="cls-3" d="M230.45,101.88c12.63,0,25.26,0,37.88.12,9.67.13,15.9,9.08,12.26,17.58-2.32,5.44-6.75,7.94-12.66,7.94q-18.74,0-37.48.08Z"/><path class="cls-3" d="M230.45,153c12.63,0,25.26,0,37.88.12,9.67.13,15.9,9.08,12.26,17.58-2.32,5.44-6.75,7.94-12.66,7.94q-18.74,0-37.48.08Z"/><path class="cls-3" d="M230.45,204.08c12.63,0,25.26,0,37.88.12,9.67.13,15.9,9.08,12.26,17.58-2.32,5.44-6.75,7.94-12.66,7.94q-18.74,0-37.48.08Z"/><path class="cls-3" d="M230.45,255.18c12.63,0,25.26,0,37.88.12,9.67.13,15.9,9.08,12.26,17.58-2.32,5.44-6.75,7.94-12.66,7.94q-18.74,0-37.48.08Z"/><path class="cls-4" d="M332.61,127.5c-4.26,0-8.53.12-12.78,0a12.74,12.74,0,0,1-12.61-12.81,12.59,12.59,0,0,1,12.38-12.62c8.78-.23,17.59-.23,26.37,0a12.71,12.71,0,0,1-.17,25.42C341.41,127.63,337,127.5,332.61,127.5Z"/><path class="cls-4" d="M332.53,178.61c-4.13,0-8.26.09-12.39,0-7.48-.2-13-5.78-12.92-12.9.08-7,5.51-12.44,12.86-12.58,8.39-.16,16.78-.14,25.18,0,7.58.12,13.11,5.6,13.12,12.72s-5.53,12.6-13.06,12.77C341.06,178.69,336.8,178.61,332.53,178.61Z"/><path class="cls-4" d="M332.63,229.7c-4.26,0-8.53.12-12.79,0a12.75,12.75,0,0,1-12.62-12.8,12.59,12.59,0,0,1,12.36-12.63q13.19-.34,26.38,0a12.59,12.59,0,0,1,12.42,13,12.72,12.72,0,0,1-12.56,12.45C341.43,229.83,337,229.7,332.63,229.7Z"/><path class="cls-4" d="M332.41,280.81c-4.13,0-8.26.1-12.39,0-7.28-.22-12.73-5.66-12.8-12.63a12.65,12.65,0,0,1,12.58-12.83q13-.3,26,0a12.65,12.65,0,0,1,12.6,12.81c-.05,7-5.5,12.43-12.78,12.64C341.21,280.91,336.81,280.81,332.41,280.81Z"/></g></g></svg>