<svg xmlns="http://www.w3.org/2000/svg" viewBox="0 0 383.43 383.56" fill="#fff">
    <g id="Layer_2" data-name="Layer 2">
        <g id="Layer_1-2" data-name="Layer 1">
            <path d="M383.43,108.1c-2.89,7.41-9.34,9.8-16.8,11.35,1.24,2.5,2.32,4.67,3.39,6.84,2.83,5.8,2.06,11.7-2.07,15.9s-10.07,5.06-15.83,2.27c-2.13-1-4.19-2.18-6.67-3.48-.82,2.41-1.59,4.7-2.37,7-2.15,6.24-6.67,9.76-12.62,9.84s-10.76-3.5-13-9.89c-.76-2.22-1.48-4.46-2.22-6.68l-12.72,5.61c3.15-16.7-2.16-29-14.84-37.38,1.46-5.37,4-10.46,3.92-15.51s1.39-8.23,5-11.58c5.26-4.86,7.06-11.55,6.95-19.53l11.62,5.23,2.31-6.75c2.11-6.14,6.81-9.85,12.6-10s10.77,3.69,12.95,10c.76,2.22,1.5,4.45,2.35,7,7.33-4.14,14.77-8.7,22.25-1.41S370.82,82,366.54,89.7c7.44,1.76,14.18,4,16.89,11.66ZM350,104.45a19.72,19.72,0,1,0-39.44.36,19.72,19.72,0,1,0,39.44-.36Z"/>
            <path d="M188.06,383.56c-3.06-2.31-5.94-4.9-9.21-6.84-3.9-2.32-8.13-4.08-12.84-6.38,2-6.11,4.09-12.72,8.65-18.26.79-1,1.8-1.74,2.55-2.73,3.32-4.39,6.58-8.75,13.17-5.73a3.61,3.61,0,0,0,2.55-.19c4.53-1.89,6.75.69,9.75,3.74,6.61,6.72,10.38,14.67,13.15,24.06-9.29,1-15.3,7.73-22.53,12.33Z"/>
            <path d="M215.47,181.52a34.7,34.7,0,0,0,16.47,13.73,33,33,0,0,0,43.7-21.63c.65-2.26,1.61-3.52,4-4.09,5.72-1.35,10.35-4.65,14.64-8.59,1.17-1.07,3.06-1.43,4.67-1.93,7.86-2.43,12.1,3.38,16.86,7.7.9.82,1,3,.83,4.45a134,134,0,0,1-20.08,60.69A135.93,135.93,0,0,1,253.18,275c-4,2.5-8.16,2.61-12.42,3.33a60.93,60.93,0,0,0-39.62,23.84c-1.78,2.32-3.28,3.29-6.42,2.39a18.82,18.82,0,0,0-8.47.15c-2.24.45-3.57.35-5-1.6a65.08,65.08,0,0,0-20.59-18.18,3.89,3.89,0,0,1-1.58-3.19c6.2-40.24,24.56-73.75,55.76-100.09C214.89,181.55,215.05,181.57,215.47,181.52Z"/>
            <path d="M146.1,278.53c-12.67,1.24-21.57-5.63-30.43-12.59a132.67,132.67,0,0,1-41.41-55.25c27-4.14,44.91-19.05,53.73-43.87,5.43,1.41,10.94,4.44,16,3.77,7.25-1,11.89,2.17,16.63,6.14,7.33,6.15,14.49,12.52,21.92,19a175,175,0,0,0-36.39,82.83Z"/>
            <path d="M129.34,68.35c2.2-8.59,4.67-17,15.2-16.87,10.11.15,12.56,8.29,14.64,16.76L165.64,65c6.09-3,11.87-2.31,16.2,2s5.13,10,2.1,16.16c-1,2-2,4-3.28,6.36,2.41.78,4.6,1.46,6.77,2.2,6.32,2.16,10.14,7,10.14,12.88s-3.8,10.74-10.1,12.91c-2.12.73-4.27,1.34-6.79,2.12,1.14,2.25,2.27,4.39,3.33,6.57,3,6,2.13,11.92-2.23,16.17s-10,4.85-15.88,2c-2.1-1-4.16-2.14-6.62-3.41-2.33,8.42-4.52,17.09-15.47,16.75-10.27-.33-12.28-8.6-14.42-16.83-7.68,4.33-15.4,9-22.93,1-7-7.44-2.74-14.77,1.65-22.13-2.72-.89-5.14-1.63-7.51-2.48-6-2.13-9.68-7.14-9.53-12.89s3.78-10.49,9.6-12.49c2.31-.8,4.66-1.48,7.37-2.33-4.12-7.35-8.68-14.61-1.64-22.11C113.94,59.42,121.63,64.14,129.34,68.35Zm15,16.49a19.86,19.86,0,0,0-19.89,19.58,19.85,19.85,0,1,0,39.69,0A19.78,19.78,0,0,0,144.32,84.84Z"/>
            <path d="M224,158.09c-3.38-.19-6.36-.22-9.3-.55-8-.88-15.51-6.75-16.37-14.6-.63-5.75-.92-12.22,3.34-17.39,4.1-5,9.32-7.73,15.87-7.7,2,0,4,0,6.46,0,0-2.39,0-4.58,0-6.77a19.9,19.9,0,0,1,39.76-1.19c.17,2.46,0,4.94,0,8,2.47,0,4.53,0,6.59,0a19.94,19.94,0,0,1,1.83,39.81c-2.57.25-5.18,0-8.07,0-.15,3.23-.19,5.93-.41,8.62A19.91,19.91,0,0,1,224,164.83C224,162.72,224,160.6,224,158.09Zm19.81-7.19A12.81,12.81,0,0,0,257,138.12a13.23,13.23,0,0,0-13-13.55,13.43,13.43,0,0,0-13.31,13.33A13.08,13.08,0,0,0,243.81,150.9Z"/>
            <path d="M273.61,79.89c3.68,6.86,8.05,13.37,2,21.37-4.44-11.5-12.21-18.94-24.16-22.25,4.76-5.85,6.84-12.08,5-19.26a19.15,19.15,0,0,0-8.91-12,19.93,19.93,0,0,0-26.32,5.45c-6.7,9.46-4.33,20.37,6.57,29.15-8.64,5.13-14,12.69-16.71,22.34-.81-8.9-4.18-16.15-11.33-21.48a3.6,3.6,0,0,1-1.07-2.84c1.09-10.07-2.1-18.4-10.74-25.67l12.91-5.25c-1-2.06-2.1-4.1-3.12-6.17-3-6.09-2.27-11.85,2-16.15s10.29-4.95,16.23-2c2,1,3.95,2.06,6.23,3.25.9-2.69,1.66-5.14,2.53-7.55,2.14-5.89,6.85-9.31,12.66-9.28S247.93,15.2,250,21c.82,2.31,1.5,4.67,2.36,7.39,2.53-1.27,4.7-2.41,6.9-3.47,5.53-2.65,11.53-1.81,15.57,2.15s5,9.92,2.43,15.51c-1,2.25-2.2,4.44-3.52,7.06,2.37.81,4.56,1.54,6.73,2.3,6.4,2.21,10.1,6.94,10.09,12.86s-3.68,10.6-10.13,12.83C278.3,78.36,276.18,79,273.61,79.89Z"/>
            <path d="M49.73,86.87,40,96.4l8.33,7.39-.48.94H25.06v13H47.64l.43.81-8.43,6.81,10.09,10c4.89-4.9,10.05-9.95,15-15.16a6.84,6.84,0,0,1,5.84-2.46c2.85.21,5.73,0,8.6.06,3.31.06,4.35,1.55,2.91,4.39-6.09,12-15.75,19.5-29.05,21.69-15.15,2.49-27.69-2.64-37.61-14.22-5.16-6-10.18-12.21-15.46-18.56C6.44,103.63,12.28,95.79,19.15,89,35.74,72.55,63.74,74.88,77.8,93.5c.86,1.15,1,3.08.93,4.64a47.1,47.1,0,0,1-1,6.33c-5,.15-10.1,1.63-14.34-3.57C59.28,95.91,54.38,91.59,49.73,86.87Z"/>
            <path d="M251.55,304.87c-2.18,5.14-4.26,10.54-6.77,15.73a6.56,6.56,0,0,0,0,6.53,88,88,0,0,1,5.4,13.39c1.53,5.17-.19,10.13-2.85,14.59-.56.94-2.66,1.56-3.92,1.39a47.4,47.4,0,0,1-29-15.44c-.68-.73-1.24-1.57-1.94-2.27-3.06-3-4.46-5.93-2.77-10.73,1.19-3.36-.37-7.67-.62-11.56-.07-1.22-.33-2.79.28-3.64,8.37-11.74,19.37-19.46,33.82-21.87,2.47-.41,4.08,0,4.84,2.56C249.08,297.09,250.22,300.6,251.55,304.87Z"/>
            <path d="M130.61,343.12c.84-2.79,1.18-6.65,3-9.52,4.29-6.66,4.48-12.51.18-19.42-2.17-3.49-1.85-8.53-2.65-12.87a1.53,1.53,0,0,1,0-.37c.88-9.15,3.56-11,12.31-8.76,12.31,3.15,21.5,10.62,28.74,20.73a4.06,4.06,0,0,1,.26,3.3,20.18,20.18,0,0,0,0,15.27,4.06,4.06,0,0,1-.31,3.31c-7.74,10.79-17.66,18.44-31,21.18-6.5,1.34-7,1.2-9.07-5.09A72.73,72.73,0,0,1,130.61,343.12Z"/>
            <path d="M90.14,80.44C74.55,64.91,73.67,37.22,88.31,20.6,94.93,13.09,103.1,6.94,110.77,0c12.9,11.23,28.06,19.82,31.9,38.24-8.12,1.06-14.79,4.4-19.8,10.93-.8,1-2.9,1.09-5,1.79V25.27H104.6V41.09l-1.1.69-6.78-8.72L86.88,43.15,99.82,55.38C92.25,62.28,88.88,70.09,90.14,80.44Z"/>
            <path d="M59.88,179.07l9.56,9.72c9.35-9.35,18.76-18.57,27.93-28,3.2-3.31,5.86-6,10.86-2.85,2,1.29,5,1.07,7.59,1.53-.35,23.32-31.84,42.07-64.48,38-.46-13.48-1.2-27,5.78-39.46a4,4,0,0,1,2.05-1.92,54,54,0,0,0,30.16-20.39A87.68,87.68,0,0,1,92.49,145c.25,1.05-.61,2.72-1.48,3.6-9.35,9.51-18.8,18.92-28.25,28.32A25.9,25.9,0,0,1,59.88,179.07Z"/>
            <path d="M30.14,19.83l-9.85,10L55,64.36c-7.69.86-15.36,1.79-23.05,2.48a5.51,5.51,0,0,1-3.58-1.41A47.57,47.57,0,0,1,11.56,32c-.52-6.65-.09-13.38-.09-20.19,16.88-1,33.22-1,47.1,10.26,1.06.87,2.06,1.81,3.13,2.66,4.26,3.39,6.42,7,4.51,13C64.54,43.07,64.79,49,64.26,54Z"/>
            <path d="M208,169.79l-17,15.88-26.94-23.44c1.07-2.43,2.76-3.55,5.93-3.28,7.16.63,7.85.26,18.38-4.58C196.58,164.3,196.58,164.3,208,169.79Z"/>
            <path d="M197.56,323.72a6.71,6.71,0,0,1-6.58,6.7,6.38,6.38,0,0,1-6.78-6.34,6.74,6.74,0,0,1,6.61-7A7.08,7.08,0,0,1,197.56,323.72Z"/>
        </g>
    </g>
</svg>
