<svg xmlns="http://www.w3.org/2000/svg" viewBox="0 0 337.25 337.04"><defs><style>.cls-1{fill:#5d84c3;}.cls-2{fill:#e8462b;}.cls-3{fill:#41ac4a;}.cls-4{fill:#fbbc0b;}</style></defs><g id="Layer_2" data-name="Layer 2"><g id="Layer_1-2" data-name="Layer 1"><path class="cls-1" d="M219.71,254.72a101.45,101.45,0,0,0,42.9-51H172.74V137.28H334.61c.67,4.66,1.63,9.4,2,14.18q7,89.73-61.89,147.91a2.16,2.16,0,0,1-.34.17c-9.73-7.9-19.48-15.77-29.18-23.71C236.67,268.84,228.2,261.76,219.71,254.72Z"/><path class="cls-2" d="M18.9,91.17c14.31-28,35.15-50,61.87-66.49A161.22,161.22,0,0,1,149.76,1c46.39-4.74,88.13,7.23,124.82,36.19.57.44,1.06,1,1.92,1.76L221.86,83.6c-10.92-6.54-22.33-11.32-34.77-13.35-35.72-5.81-66.31,4.12-91.53,30.06C85.68,110.47,78.85,122.57,74,135.8q-9.28-7.5-18.58-15Q37.14,106,18.9,91.17Z"/><path class="cls-3" d="M219.71,254.72c8.49,7,17,14.12,25.49,21.11,9.7,7.94,19.45,15.81,29.18,23.71-9.38,8.31-20.07,14.63-31.25,20.15-26.33,13-54.33,19.07-83.52,16.93-61.42-4.51-107.72-33.79-138.74-87a10.89,10.89,0,0,1-.66-1.7l54.64-44.37c5.54,13.49,13,25.72,23.6,35.91q30.67,29.58,73.32,28.71a97.5,97.5,0,0,0,44.91-12.06C217.66,255.61,218.7,255.19,219.71,254.72Z"/><path class="cls-4" d="M74.85,203.58,20.21,248A153,153,0,0,1,2.87,199Q-7.19,143.44,18,92.8c.27-.55.6-1.08.91-1.63Q37.14,106,55.39,120.8q9.28,7.52,18.58,15A101.41,101.41,0,0,0,74.85,203.58Z"/></g></g></svg>