<svg xmlns="http://www.w3.org/2000/svg" width="29.631" height="1275" viewBox="0 0 29.631 1275">
  <g id="Group_590" data-name="Group 590" transform="translate(-668.685 -314)">
    <path id="Path_685" data-name="Path 685" d="M-8645.5,1204.242v105.9" transform="translate(9329 -890.242)" fill="none" stroke="#383882" stroke-width="1"/>
    <path id="Path_687" data-name="Path 687" d="M-8645.5,1204.242v230.792" transform="translate(9329 -756.138)" fill="none" stroke="#383882" stroke-width="1"/>
    <path id="Path_689" data-name="Path 689" d="M-8645.5,1204.242v230.792" transform="translate(9329 -497.138)" fill="none" stroke="#383882" stroke-width="1"/>
    <path id="Path_691" data-name="Path 691" d="M-8645.5,1204.242v230.792" transform="translate(9329 -238.638)" fill="none" stroke="#383882" stroke-width="1"/>
    <path id="Path_693" data-name="Path 693" d="M-8645.5,1204.242v230.792" transform="translate(9329 20.362)" fill="none" stroke="#383882" stroke-width="1"/>
    <path id="Path_695" data-name="Path 695" d="M-8645.5,1204.242v105.4" transform="translate(9329 279.362)" fill="none" stroke="#383882" stroke-width="1"/>
    <path id="Path_686" data-name="Path 686" d="M23.213,0,37.325,14.1l-14.112,14.1L10.922,15.918,9.109,14.1l1.813-1.813Z" transform="translate(660.283 419.896)" fill="none" stroke="#383882" stroke-width="1"/>
    <path id="Path_688" data-name="Path 688" d="M23.213,0,37.325,14.1l-14.112,14.1L10.922,15.918,9.109,14.1l1.813-1.813Z" transform="translate(660.283 678.896)" fill="none" stroke="#383882" stroke-width="1"/>
    <path id="Path_690" data-name="Path 690" d="M23.213,0,37.325,14.1l-14.112,14.1L10.922,15.918,9.109,14.1l1.813-1.813Z" transform="translate(660.283 937.396)" fill="none" stroke="#383882" stroke-width="1"/>
    <path id="Path_692" data-name="Path 692" d="M23.213,0,37.325,14.1l-14.112,14.1L10.922,15.918,9.109,14.1l1.813-1.813Z" transform="translate(660.283 1196.396)" fill="none" stroke="#383882" stroke-width="1"/>
    <path id="Path_694" data-name="Path 694" d="M23.213,0,37.325,14.1l-14.112,14.1L10.922,15.918,9.109,14.1l1.813-1.813Z" transform="translate(660.283 1455.396)" fill="none" stroke="#383882" stroke-width="1"/>
  </g>
</svg>
