<svg xmlns="http://www.w3.org/2000/svg" viewBox="0 0 345.23 246.41" fill="#fff">
    <g id="Layer_2" data-name="Layer 2">
        <g id="Layer_1-2" data-name="Layer 1">
            <path d="M105.94,246.41c-20.68-.34-41.38-.41-61.82-4.31-9.81-1.88-19.45-4.29-28.23-9.26C-1.48,223-5.21,201.92,7.69,186.6c7-8.37,16.13-14.14,25.6-19.16,11.19-5.93,22.74-11.2,34.16-16.68,5.29-2.54,10.25-5.25,11.31-11.83.71-4.36-.64-8.15-3-11.61-2.9-4.2-6.1-8.19-9-12.41C53.18,95,47.34,73.17,50,49.09,52.94,22,73.41,2.28,100.55.25c13.84-1,26.87,1,38.57,8.72,13.53,9,20.61,22.14,23,37.79,3.95,26.24-3,49.73-18.68,71a68.13,68.13,0,0,0-8.95,16.16c-2.41,6.41-.3,11.6,5.6,15a137.52,137.52,0,0,0,16.86,7.86c15.09,6.27,30,12.82,42.46,23.78,10.52,9.25,13.87,20.94,12,34.4-.87,6.37-4.37,11.31-9.53,15.06-9.73,7.08-21.07,9.9-32.62,12C148.33,245.92,127.13,246.06,105.94,246.41Z"/>
            <path d="M200,160.49c10.56-5.21,20.23-10,29.92-14.73,2-1,4.17-1.67,6.1-2.78,5.86-3.38,7.55-9.06,4.18-15a116.68,116.68,0,0,0-6.84-9.78c-11-15.4-16.06-32.48-14.13-51.38,1.82-17.77,12.62-36.34,38.3-39.23,22.13-2.49,41.91,7.55,48.14,31.71a63,63,0,0,1-.92,33.93,79.49,79.49,0,0,1-13.1,26.21,47.24,47.24,0,0,0-6.7,12.7c-1.65,4.59.23,8.74,4.56,11.1a140.23,140.23,0,0,0,13.17,6.09c11.4,4.74,22.66,9.67,32.17,17.83,8.12,7,11.4,15.66,10.16,26.29-.71,6.08-3.86,10.37-8.73,13.64-7.62,5.12-16.34,7.24-25.19,8.7-23.24,3.82-46.68,3.46-70.11,2.65-4.44-.15-8.86-.61-13.57-.94C231.12,192.51,220.63,174.58,200,160.49Z"/>
        </g>
    </g>
</svg>
