<svg xmlns="http://www.w3.org/2000/svg" viewBox="0 0 335.6 336.36"><g id="Layer_2" data-name="Layer 2"><g id="Layer_1-2" data-name="Layer 1"><path d="M48.05,180.25c-12,0-23.51-.08-35,0C7.46,180.34,3.45,178,1.12,173c-2.23-4.82-1.1-9.7,3.16-14Q81.55,81.54,158.84,4.14c5.79-5.79,12.51-5.47,18.71.74q45.94,46,91.84,92,30.83,30.9,61.65,61.8c5.73,5.75,6.2,13.41.64,18.09A15.33,15.33,0,0,1,323,180.1c-11.59.37-23.2.15-35.4.15v4.42q0,57.18,0,114.37c0,21.79-15.43,37.2-37.23,37.21H204.68c-8.16,0-12.91-4.82-12.91-13.07q0-34.32,0-68.63c0-9.57-4.69-14.28-14.21-14.3-6.73,0-13.47,0-20.21,0-8.58,0-13.47,4.9-13.48,13.5q0,34.5,0,69c0,9-4.57,13.49-13.62,13.49-15,0-29.95-.37-44.91.09-20.74.64-37.7-16.73-37.42-37.62.52-37.87.15-75.75.15-113.63Z"/></g></g></svg>