<svg xmlns="http://www.w3.org/2000/svg" viewBox="0 0 209.71 383.34"><g id="Layer_2" data-name="Layer 2"><g id="Layer_2-2" data-name="Layer 2"><path d="M108.62,0c.88.41,1.74.84,2.63,1.22,7,3,10.94,8.29,11.29,15.78a16.56,16.56,0,0,1-9,16.08c-6.46,3.58-12.9,3.14-19-1-.7-.48-1.37-1-1.82-1.32L77.22,46.3c6.61,9.5,25.09,14.24,39.59,9.78,18.36-5.64,28-20.76,28.06-44.54A73.36,73.36,0,0,1,164,28.3a77.87,77.87,0,0,1,14,26.64c.77,2.47,1.94,3.32,4.51,3.18a85.6,85.6,0,0,1,11.21.14C203.1,59,210,66.92,209.7,76.53a17.61,17.61,0,0,1-17,17c-4.47.15-8.95,0-13.52,0-1.13,3.12-2.15,6.06-3.25,9A75.84,75.84,0,0,1,33.69,102c-3.12-8.39-3.12-8.46-12.31-8.37-4.8,0-9.44-.21-13.58-3.1a17.71,17.71,0,0,1-7.23-19A17.32,17.32,0,0,1,16.3,58.24a85.25,85.25,0,0,1,10.84-.12c2.68.15,4-.73,4.77-3.35a76.33,76.33,0,0,1,18-31.08A75.57,75.57,0,0,1,95.3.64,12.26,12.26,0,0,0,97.39,0Z"/><path d="M208.82,290.71c-2.36,19.71-9.35,37.56-22,52.74-27.18,32.64-62.19,46.1-103.72,37.2-41.3-8.85-67.8-35.23-79.4-75.91A99.28,99.28,0,0,1,.32,280C-.14,259.45,0,238.86.24,218.28A100.93,100.93,0,0,1,14.07,168.4c.62-1.07,1.3-2.1,1.82-2.93C51.64,251.15,116.33,292.13,208.82,290.71Z"/><path d="M34.28,144.84c19.82,19,43.27,29.29,70.68,29.28s50.65-10.26,70.27-29.54c-1.17,28.21-37.1,78.14-70.41,97.91C68.94,219,45.13,186.69,34.28,144.84Z"/><path d="M209.61,267.64c-28.51,1.37-55.7-1.57-82-13.32,31-23.34,52.8-53,65.76-89.7,7.8,12.39,13,25.17,14.67,39,1.17,9.36,1.31,18.87,1.5,28.32C209.79,243.76,209.61,255.58,209.61,267.64Z"/></g></g></svg>