<svg xmlns="http://www.w3.org/2000/svg" viewBox="0 0 357.78 166.23"><g id="Layer_2" data-name="Layer 2"><g id="Layer_1-2" data-name="Layer 1"><path d="M204.61,160c-1.22-9.88-5.84-16.48-15.46-18.77a21,21,0,0,0-4.82-.43q-50.15,0-100.3,0c-1.12,0-2.43-.31-3.34.14-4.57,2.32-8-.11-11.54-2.42-4.39-2.85-8.88-5.53-12.85-8,.26-4.36,1.11-8.44.6-12.34C55.69,109,48,102.68,38.76,102.51c-3.58-.07-7.16,0-11.25,0C29.68,98.23,32.93,96,36.84,96c25.93-.18,51.87-.1,78.33-.1,0,4.14,0,8.09,0,12,.06,8.13,5.21,13.34,13.26,13.4,3.74,0,7.49,0,11.23,0,8.1,0,13.36-5.07,13.63-13.18.14-4,0-7.92,0-12.08h12.82c0,3.57,0,7.25,0,10.93,0,9.28,5.06,14.32,14.33,14.34,3.74,0,7.48.06,11.22,0a12.64,12.64,0,0,0,12.64-12.59c.1-4.1,0-8.21,0-12.59h12.6c.23,3,.29,6.07.72,9.1a18.68,18.68,0,0,0,18.28,16.07c5.24.09,10.49.21,15.72,0a152.43,152.43,0,0,1,42.89,4.35c17.62,4.3,35.47,7.67,53.21,11.48,5.73,1.23,9.49,5.16,10,10.2s-2.3,10-7,11.56a24.39,24.39,0,0,1-7.72,1q-67,.09-134,0Z"/><path d="M57.09,57.66c-12.72,0-25.44.06-38.16,0A12.5,12.5,0,0,1,6.56,46.78a12.38,12.38,0,0,1,8.16-13.9A19.41,19.41,0,0,1,20.94,32q36.3-.09,72.59,0c6.8,0,8.86,2.13,8.88,9,0,3.12.07,6.24,0,9.36-.15,4.83-2.67,7.31-7.51,7.33C82.28,57.68,69.69,57.66,57.09,57.66Z"/><path d="M134.36,166.21q-25.23,0-50.47,0c-3.54,0-6-1.38-7-4.87a5.76,5.76,0,0,1,2.59-6.8,7.9,7.9,0,0,1,4.21-1.11q50.46-.09,100.93,0c4.51,0,7,2.47,7,6.44s-2.71,6.33-7.15,6.34Q159.41,166.25,134.36,166.21Z"/><path d="M36.68,82.82c-.52-4-1-7.89-1.65-12.45H38.8c17.56,0,35.11,0,52.67-.07a5.11,5.11,0,0,1,5.07,2.79c1.9,3.19,4.06,6.22,6.38,9.73Z"/><path d="M22.15,128c-4.86,0-9.73,0-14.59,0-4.62,0-7.53-2.58-7.56-6.47S2.66,115,7.46,115q15-.15,29.93,0c4.69,0,7.54,2.75,7.44,6.61s-3.1,6.33-7.71,6.37C32.13,128,27.14,128,22.15,128Z"/><path d="M60.55,19.22H28.66L26.75,2.87C26.5.69,27.64,0,29.62,0c4.85,0,9.72-.2,14.55.14a7.6,7.6,0,0,1,5.07,2.46C53.1,7.79,56.54,13.25,60.55,19.22Z"/><path d="M262,108.64c-9.17,0-17.49.07-25.81,0a6.08,6.08,0,0,1-6.22-5.74c-.22-2.18,0-4.4,0-6.89,6.25,0,12.26-.56,18.09.23,3,.4,5.87,2.92,8.31,5C258.37,103.06,259.76,105.68,262,108.64Z"/><path d="M140.45,108.47H128V96.07h12.49Z"/><path d="M179.05,108.47V96.14h12.36v12.33Z"/></g></g></svg>