<svg xmlns="http://www.w3.org/2000/svg" viewBox="0 0 305.29 255.34"><g id="Layer_2" data-name="Layer 2"><g id="Layer_2-2" data-name="Layer 2"><path d="M305.29,153.12l-18.11,18.21c-7-7.08-14.19-14.29-22.08-22.24l15.08,68.09H254.75v38.09H229.14V217.46H203.51v37.87H178V217.19h-25.5c8.57-38.57,17-76.66,25.54-114.92h19c18.22,0,36.43,0,54.64.07a7.2,7.2,0,0,1,4.61,1.61q24.21,23.94,48.21,48.11A10.19,10.19,0,0,1,305.29,153.12Z"/><path d="M75.87,204.75v50.53H50.27V139.33Q33.85,155.8,18.41,171.28L0,152.76c.16-.18.82-1,1.58-1.79q23.27-23.28,46.61-46.5a7.07,7.07,0,0,1,4.38-2.1c23.94-.13,47.89-.1,71.83-.09.72,0,1.45.11,2.35.19V255.34H101.53V204.75Z"/><path d="M126.94,38.5A38.33,38.33,0,1,1,88.74,0,38.58,38.58,0,0,1,126.94,38.5Z"/><path d="M254.64,38.2A38.47,38.47,0,0,1,216.5,76.73c-20.92.15-38.41-17.21-38.5-38.22a38.32,38.32,0,1,1,76.64-.31Z"/></g></g></svg>