<svg xmlns="http://www.w3.org/2000/svg" viewBox="0 0 309.18 278.45"><g id="Layer_2" data-name="Layer 2"><g id="Layer_1-2" data-name="Layer 1"><path d="M308.61,159.09c-2.47-12-9.05-20.86-20.13-26.19-2.84-1.37-5.9-2.28-9-3.43C280.08,95.18,269.43,65,246,39.8,223.56,15.71,196,2.29,163.52,0c10.67,7.12,18.78,16.5,23.38,28.7,5.94,15.74,4.41,30.55-7.56,43.09C162.85,89.06,134,88,122.88,64.87c-9-18.78,3.29-39,22.27-39.93,4.6-.23,7.63,1.87,8,5.79.35,3.7-2.55,6.43-7.08,7a17.6,17.6,0,0,0-5.73,1.61c-8.42,4.3-10.09,15.43-3.68,23.68,6.89,8.85,20.46,10.08,30,2.73,10.09-7.75,13.37-20,8.17-32.42C167.22,15,152.65,5.46,133.59,2.1c-.87-.15-1.75-.3-2.62-.42C110.4,5.47,91.57,14.54,74.78,28.74,43.72,55,29.1,89.09,29.61,129.41c-3.59,1.42-7,2.55-10.25,4.1C3,141.37-4.67,163.25,3,179.7c5.05,10.89,13.18,18,24.9,20.87a3,3,0,0,1,2.66,3,93,93,0,0,0,1.58,9.8c5.23,23.54,18.92,40.34,40.58,50.81,16.91,8.17,35,11.44,53.51,13.05a311.19,311.19,0,0,0,66.56-1.09c16.53-2.11,32.61-5.82,47.4-13.82,12.58-6.8,22.74-16.12,29.56-28.85a75.47,75.47,0,0,0,8.66-28.29c.28-2.8,1.24-4.23,4.28-4.95,8-1.91,14.25-6.6,19.3-13.09,3.87-5,5.55-10.82,7.23-16.69v-9.67A13.84,13.84,0,0,1,308.61,159.09Zm-279,28.2c-8.26-.79-15.68-10.17-16.66-21-.89-9.83,6.59-20.28,16.66-23ZM89.94,183a12.34,12.34,0,0,1,.21-24.67A12.34,12.34,0,1,1,89.94,183Zm98.21,14.43a83.3,83.3,0,0,1-11.11,8.2c-6.9,4-14.56,5.59-22.71,5.75A48,48,0,0,1,121.55,198c-2.13-2-3.25-4.39-2.21-7.31.88-2.47,2.74-4.31,5.35-4.11a10.56,10.56,0,0,1,5.85,2.32c7.65,6.71,16.37,10,26.54,9.31,8-.51,14.85-3.69,21-8.81a12.71,12.71,0,0,1,6.29-2.84c2.53-.3,4.48,1.51,5.44,4A5.81,5.81,0,0,1,188.15,197.45Zm31-14.43a12.34,12.34,0,1,1-.06-24.67,12.34,12.34,0,0,1,.06,24.67ZM296.32,166c-.61,10.63-8,20.16-16.66,21.41V143.42C289.27,145.67,296.88,156.05,296.32,166Z"/></g></g></svg>