<svg xmlns="http://www.w3.org/2000/svg" xmlns:xlink="http://www.w3.org/1999/xlink" viewBox="0 0 345.99 346.13"><defs><style>.cls-1{fill:none;}.cls-2{clip-path:url(#clip-path);}.cls-3{clip-path:url(#clip-path-2);}</style><clipPath id="clip-path" transform="translate(2.32 2.39)"><path class="cls-1" d="M304,64.09h-.07L37.44,277.17l-.09.07A170.67,170.67,0,0,1,304,64.09Z"/></clipPath><clipPath id="clip-path-2" transform="translate(2.32 2.39)"><path class="cls-1" d="M341.34,170.67a170.67,170.67,0,0,1-304,106.57l.09-.07L303.9,64.09H304A169.89,169.89,0,0,1,341.34,170.67Z"/></clipPath></defs><g id="Layer_2" data-name="Layer 2"><g id="Layer_1-2" data-name="Layer 1"><g class="cls-2"><path d="M341.3,170.92c-.06,94.18-76.66,170.48-171.07,170.39C76.1,341.21-.11,264.53,0,170,.18,75.93,76.85-.09,171.49,0,265.15.17,341.36,76.86,341.3,170.92ZM234.47,180.6H107.69A305.7,305.7,0,0,0,114,235.39C133.23,234.9,152,234,170.83,234s37.57.88,57.41,1.39C230.28,217.42,232.35,199.21,234.47,180.6ZM114,105.51a304.35,304.35,0,0,0-6.26,55.23H233.65a308,308,0,0,0-6.38-55.23A871.94,871.94,0,0,1,114,105.51Zm4.73,149.42c4.35,16.14,10.61,30.59,19.51,43.76a86.06,86.06,0,0,0,12,14.19c5.37,5.1,11.75,8.83,19.56,9,9.56.24,16.91-4.4,23.35-10.81,12.86-12.79,20.22-28.78,26.13-45.57,1.17-3.34,2.15-6.75,3.38-10.61A847.8,847.8,0,0,0,118.73,254.93ZM222.35,86.45c-2.34-12.14-10.32-31-19.43-44a77.73,77.73,0,0,0-14.68-16.18C175.73,16.37,163,17,151,27.62c-17.46,15.62-25.5,36.56-32.35,58.79A851.59,851.59,0,0,0,222.35,86.45ZM87.5,160.81c2.08-19,4.14-37.75,6.21-56.69-.19,0-.78-.14-1.38-.22-17.28-2.15-34.56-4.34-51.86-6.34a4.09,4.09,0,0,0-3.2,2c-3.58,7.92-7.35,15.79-10.26,24a125.63,125.63,0,0,0-7.12,37.28ZM20,180.49c.2,18.3,8.39,47.32,17.54,61.81a4.36,4.36,0,0,0,3.53,1.39c10.87-1.28,21.71-2.79,32.56-4.15,6.88-.85,13.77-1.56,20-2.27-2.07-19.13-4.1-37.87-6.15-56.78Zm233.82-19.73h67.71a150.07,150.07,0,0,0-17.41-61.44c-1.07-2-2.29-2-4.2-1.71-10.72,1.49-21.45,2.86-32.19,4.19-6.88.85-13.78,1.57-20.06,2.27C249.73,123.09,251.76,141.74,253.82,160.76Zm67.7,19.86H253.81c-2.07,19-4.11,37.75-6.15,56.57-.08,0,.13.11.36.14,17.65,2.2,35.3,4.43,53,6.49a3.9,3.9,0,0,0,3-1.82A146.72,146.72,0,0,0,321.52,180.62Zm-30.84,81.65a3.4,3.4,0,0,0-.94-.42c-15.08-1.74-30.18-3.44-45.26-5.23-2.38-.28-2.55,1.24-3,2.87a168,168,0,0,1-14.83,37.37c-3.32,6-7,11.87-10.54,17.88C240.85,309.08,277.83,283.05,290.68,262.27ZM49.77,79.68c15.87,1.72,30.82,3.29,45.74,5,2.79.32,3.85-.58,4.56-3.29A169.08,169.08,0,0,1,123.31,30c.59-.89,1.1-1.85,2.2-3.74C94.47,36.34,70,53.79,49.77,79.68ZM215.25,26.06c13.05,17.47,20.57,36.49,26.32,56.3.69,2.38,1.91,2.5,3.79,2.3,10.76-1.15,21.53-2.25,32.29-3.45,4.37-.49,8.71-1.19,13.64-1.87C271.33,53.65,246.53,36.19,215.25,26.06ZM49.92,261.85c20,25.71,44.58,43.13,74.89,53,0-.82,0-1.12-.1-1.28-11.91-16.58-19.38-35.19-25-54.64-.61-2.12-1.64-2.43-3.46-2.25-5.57.56-11.16,1-16.72,1.6C69.94,259.35,60.34,260.58,49.92,261.85Z" transform="translate(2.32 2.39)"/></g><g class="cls-3"><path d="M159.18-2.39h23c4.11.51,8.24.94,12.33,1.54C227.89,4.06,258,16.81,283.12,39.42c52.1,46.86,70.9,105.1,55.14,173.38-9.64,41.74-33.39,74.91-68.48,99.42C229,340.72,183.7,349.75,135,339.88,98.7,332.51,68,314.54,43,287.16A168.8,168.8,0,0,1,.4,201c-1.1-6.27-1.82-12.62-2.72-18.93v-23c.21-1,.5-1.93.63-2.91.77-5.89,1.16-11.86,2.32-17.68Q13.35,74.23,65,33.76A166.19,166.19,0,0,1,140.56.3C146.74-.75,153-1.5,159.18-2.39ZM322,171c-.24-83.44-66.78-151.44-151-151.67a151.25,151.25,0,0,0-.84,302.5C253.52,322.18,321.24,255.34,322,171Z" transform="translate(2.32 2.39)"/><path d="M125.5,248.47c5.29-5.28,5.2-5.24,1.55-11.64a59,59,0,0,1-7.83-25,11.42,11.42,0,0,1,10-12.32c6.09-.79,12,3.14,12.68,9.37a42.45,42.45,0,0,0,11.36,24.85c8.25,8.82,18,15,30.63,14.3,10.79-.62,16.68-8,15.82-18.8-.91-11.35-7-19.93-14.43-27.95-11.53-12.44-18.21-27-17.63-44.24.8-23.61,20.31-40.3,43.87-38a62.7,62.7,0,0,1,29,10.18c2,1.3,3.2,1.35,4.79-.45,2.13-2.41,4.48-4.63,6.81-6.85a11.43,11.43,0,0,1,16.2,16.11c-2.22,2.34-4.46,4.66-6.84,6.82-1.7,1.54-2,2.71-.58,4.78a59,59,0,0,1,10.06,27.52c.69,7-3.3,12.53-9.85,13.4s-11.86-3.5-13-10.41C245,160.8,233.61,148.58,215.15,143a26.37,26.37,0,0,0-12-.44c-8.62,1.57-13.39,9-12.65,18.34.9,11.35,7,19.93,14.44,27.95,11.52,12.45,18.2,27,17.62,44.24-.8,23.61-20.31,40.3-43.87,38a62.7,62.7,0,0,1-29-10.18c-2-1.3-3.2-1.34-4.79.46-2.13,2.4-4.48,4.63-6.81,6.84A11.43,11.43,0,0,1,122,252C123.11,250.81,124.33,249.66,125.5,248.47Z" transform="translate(2.32 2.39)"/></g><rect x="-0.02" y="167.66" width="341.29" height="6" transform="translate(-66.9 146.33) rotate(-38.65)"/></g></g></svg>