<svg xmlns="http://www.w3.org/2000/svg" viewBox="0 0 341.27 341.26"><g id="Layer_2" data-name="Layer 2"><g id="Layer_1-2" data-name="Layer 1"><path d="M341.27,170.62c0,94.25-76.51,170.68-170.82,170.64S-.09,264.63,0,170.25C.09,76.09,76.7-.09,171.2,0,264.94.09,341.26,76.67,341.27,170.62Zm-106.84,10H107.62A314.86,314.86,0,0,0,114,235.8a883.57,883.57,0,0,1,114.14,0C230.25,217.31,232.32,199.17,234.43,180.65Zm-6.23-74.77c-20,.52-38.77,1.38-57.56,1.38s-37.79-.87-56.69-1.36c-3.78,17.15-7,47-5.85,54.73H234.42C232.31,142.09,230.25,124,228.2,105.88Zm-109.31,149a14.49,14.49,0,0,0,.41,2.22c3.93,9.92,7.37,20.06,12,29.67s10.18,18.89,18.57,25.93c5.79,4.86,12,9,19.94,9.16,9.56.24,16.91-4.4,23.34-10.83,10.76-10.76,17.92-23.78,23.22-37.9,2.2-5.86,4.2-11.81,6.48-18.24A850,850,0,0,0,118.89,254.88Zm103.54-169a141.87,141.87,0,0,0-19.34-43.24,87.64,87.64,0,0,0-12.26-14.44c-5.28-5-11.58-8.63-19.26-8.82-9.55-.24-16.92,4.36-23.37,10.77C135.8,42.48,128.47,57.79,122.68,74c-1.4,3.92-2.61,7.92-3.91,11.9C128.58,88.54,212.47,88.54,222.43,85.9ZM19.77,160.68H87.48c2.07-19,4.11-37.76,6.14-56.35C75.93,102,57.93,99.65,39.93,97.41A3.26,3.26,0,0,0,37.47,99,147.16,147.16,0,0,0,19.77,160.68ZM20,180.54c-.3,16.72,8.83,49.11,17.6,62,.56.83,2.47,1.22,3.67,1.08,10.62-1.27,21.22-2.75,31.83-4.06,7-.87,14-1.57,20.48-2.28-2.06-19.09-4.09-37.83-6.13-56.71Zm227.6-76.46c2.06,19,4.09,37.79,6.13,56.64h67.71a146.24,146.24,0,0,0-17.69-61.67c-.48-.88-2.37-1.57-3.5-1.44-6.55.73-13.05,1.83-19.59,2.63C269.59,101.6,258.48,102.82,247.64,104.08Zm0,133.11c.1,0,.57.12,1.05.18,17.4,2.17,34.8,4.37,52.22,6.39a4,4,0,0,0,3.17-2.09c4.31-10.43,8.86-20.79,12.43-31.48a101.51,101.51,0,0,0,4.86-29.63H253.77C251.71,199.49,249.69,218.13,247.63,237.19Zm-32.3,78c31.22-10.13,56-27.58,75.77-53.1-1.57-.35-2.53-.67-3.51-.78-13.24-1.54-26.47-3.11-39.72-4.56-5.49-.59-5.45-.44-7.06,5.13A178.49,178.49,0,0,1,215.33,315.21ZM125,26.35C94.33,36.41,69.77,53.82,50.31,78.93a6.69,6.69,0,0,0,1.32.54c15.06,1.74,30.12,3.5,45.2,5.06.86.09,2.36-1.34,2.77-2.37,4.23-10.86,7.85-22,12.56-32.61C115.61,41.76,120.41,34.58,125,26.35Zm166.23,53c-19.95-25.73-44.81-43.22-76-53.3,13.08,17.6,20.64,36.82,26.59,56.8.25.85,2.22,1.78,3.31,1.7q12.48-1,24.91-2.36C276.94,81.39,283.79,80.34,291.27,79.33ZM49.87,261.81c20.08,25.71,44.61,43.15,75,53-.12-.87-.07-1.16-.19-1.33-11.91-16.58-19.3-35.21-25.12-54.59a3.87,3.87,0,0,0-3-2.16c-5.71.3-11.41.84-17.1,1.49C69.87,259.31,60.27,260.54,49.87,261.81Z"/></g></g></svg>