<svg xmlns="http://www.w3.org/2000/svg" width="65.309" height="63.816" viewBox="0 0 65.309 63.816">
  <g id="Layer_2" data-name="Layer 2" transform="translate(0 0)">
    <g id="Layer_1" data-name="Layer 1" transform="translate(0 0)">
      <path id="Path_138" data-name="Path 138" d="M46.894,46.716c-7.95,0-14.424-6-14.424-13.385V6.87H61.323V33.331C61.323,40.72,54.85,46.716,46.894,46.716ZM33.031,7.415V33.331c0,7.063,6.221,12.812,13.862,12.812s13.868-5.738,13.868-12.812V7.431Z" transform="translate(-14.24 -3.013)" fill="#e8c347"/>
      <path id="Path_139" data-name="Path 139" d="M80.94,9.783a.118.118,0,0,1-.1-.039.13.13,0,0,1,0-.2.135.135,0,0,1,.2,0,.124.124,0,0,1,.039.1.129.129,0,0,1-.039.1.135.135,0,0,1-.1.039Z" transform="translate(-35.435 -4.168)" fill="#e8c347"/>
      <path id="Path_140" data-name="Path 140" d="M47.874,47.154a.14.14,0,0,1,.14-.14h0a.14.14,0,0,1,.14.14h0a.14.14,0,0,1-.14.14h0A.14.14,0,0,1,47.874,47.154Zm-1,.1h0a.14.14,0,0,1-.129-.146h0a.14.14,0,0,1,.152-.129h0a.14.14,0,0,1,.129.152h0a.14.14,0,0,1-.14.129h0ZM49,47.114a.14.14,0,0,1,.129-.152h0a.14.14,0,0,1,.152.129h0a.14.14,0,0,1-.129.152h0A.14.14,0,0,1,49,47.114Zm-3.256,0a.146.146,0,0,1-.118-.163h0a.14.14,0,0,1,.163-.118h0A.14.14,0,0,1,45.9,47h0a.14.14,0,0,1-.135.118h0Zm4.379-.124a.146.146,0,0,1,.112-.163h0a.14.14,0,0,1,.163.118h0a.14.14,0,0,1-.112.163h0a.14.14,0,0,1-.163-.124Zm-5.5-.112a.14.14,0,0,1-.1-.174h0a.14.14,0,0,1,.168-.1h0a.146.146,0,0,1,.1.174h0a.146.146,0,0,1-.135.107h-.034Zm6.6-.107a.146.146,0,0,1,.1-.174h0a.146.146,0,0,1,.174.1h0a.152.152,0,0,1-.1.174h-.039a.14.14,0,0,1-.135-.107Zm-7.7-.225h0a.135.135,0,0,1-.084-.18h0a.14.14,0,0,1,.174-.084h0a.14.14,0,0,1,.09.18h0a.152.152,0,0,1-.135.1h0Zm8.781-.1a.14.14,0,0,1,.09-.18h0a.14.14,0,0,1,.174.09h0a.14.14,0,0,1-.084.18H52.45a.14.14,0,0,1-.135-.1Zm-9.842-.331a.14.14,0,0,1-.073-.185h0a.146.146,0,0,1,.191-.067h0a.14.14,0,0,1,.067.185h0a.14.14,0,0,1-.129.084h0a.107.107,0,0,1-.056-.017Zm10.9-.056a.14.14,0,0,1,.067-.185h0a.14.14,0,0,1,.185.067h0a.14.14,0,0,1-.067.185h0a.107.107,0,0,1-.056,0h0a.14.14,0,0,1-.129-.067Zm-11.92-.432h0a.135.135,0,0,1-.051-.185h0a.135.135,0,0,1,.191-.056h0a.14.14,0,0,1,.051.191h0a.14.14,0,0,1-.124.073h0a.107.107,0,0,1-.067-.045Zm12.913-.067a.146.146,0,0,1,.056-.191h0a.146.146,0,0,1,.191.056h0a.14.14,0,0,1-.051.191h0a.135.135,0,0,1-.067,0h0a.14.14,0,0,1-.112-.079Zm-13.9-.528a.14.14,0,0,1-.039-.2h0a.14.14,0,0,1,.2-.034h0a.14.14,0,0,1,.039.191h0a.135.135,0,0,1-.118.062h0a.129.129,0,0,1-.062-.045Zm14.89-.1a.14.14,0,0,1,.039-.2h0a.135.135,0,0,1,.191.039h0a.135.135,0,0,1-.034.191h0a.168.168,0,0,1-.084.028h0a.135.135,0,0,1-.112-.062Zm-15.794-.606a.14.14,0,0,1,0-.2h0a.135.135,0,0,1,.2,0h0a.14.14,0,0,1,0,.2h0a.152.152,0,0,1-.112.051h0a.14.14,0,0,1-.084-.051Zm16.7-.039a.14.14,0,0,1,0-.2h0a.135.135,0,0,1,.2,0h0a.14.14,0,0,1,0,.2h0a.152.152,0,0,1-.09.034h0A.129.129,0,0,1,56.262,44.3Zm-17.557-.719a.146.146,0,0,1,0-.2h0a.14.14,0,0,1,.2,0h0a.135.135,0,0,1,0,.2h0a.152.152,0,0,1-.1.045h0A.146.146,0,0,1,38.705,43.577Zm18.41,0a.135.135,0,0,1,0-.2h0a.14.14,0,0,1,.2,0h0a.146.146,0,0,1,0,.2h0a.157.157,0,0,1-.1.039h0a.14.14,0,0,1-.107-.067Zm-19.19-.831a.14.14,0,0,1,0-.2h0a.14.14,0,0,1,.2,0h0a.135.135,0,0,1,0,.2h0a.129.129,0,0,1-.09.034h0A.152.152,0,0,1,37.925,42.746Zm19.971,0a.14.14,0,0,1,0-.2h0a.14.14,0,0,1,.2,0h0a.14.14,0,0,1,0,.2h0a.14.14,0,0,1-.107.051h0a.152.152,0,0,1-.1-.056Zm-20.65-.9h0a.129.129,0,0,1,.034-.191h0a.135.135,0,0,1,.2.034h0a.146.146,0,0,1-.034.2h0a.168.168,0,0,1-.084,0h0A.146.146,0,0,1,37.246,41.848Zm21.38,0a.135.135,0,0,1-.034-.2h0a.129.129,0,0,1,.191-.034h0a.135.135,0,0,1,.034.2h0a.129.129,0,0,1-.112.056h0a.129.129,0,0,1-.124-.011Zm-22.02-.966a.14.14,0,0,1,.051-.191h0a.14.14,0,0,1,.191.051h0a.14.14,0,0,1-.051.191h0a.112.112,0,0,1-.073,0h0a.135.135,0,0,1-.118-.051Zm22.615.034a.146.146,0,0,1-.051-.2h0a.14.14,0,0,1,.191-.051h0a.14.14,0,0,1,.051.191h0a.146.146,0,0,1-.124.073h0a.152.152,0,0,1-.067-.017ZM36.078,39.888a.146.146,0,0,1,.073-.191h0a.146.146,0,0,1,.185.073h0a.14.14,0,0,1-.067.185h-.062a.152.152,0,0,1-.129-.067Zm23.671.045a.135.135,0,0,1-.067-.185h0a.14.14,0,0,1,.185-.073h0a.14.14,0,0,1,.067.185h0a.135.135,0,0,1-.129.084h0ZM35.657,38.81a.135.135,0,0,1,.084-.18h0a.14.14,0,0,1,.18.084h0a.135.135,0,0,1-.084.18h-.051a.14.14,0,0,1-.129-.084Zm24.524.062a.146.146,0,0,1-.09-.18h0a.14.14,0,0,1,.18-.084h0a.129.129,0,0,1,.084.174h0a.129.129,0,0,1-.129.1h-.045ZM35.337,37.716a.14.14,0,0,1,.1-.174h0a.14.14,0,0,1,.168.107h0a.14.14,0,0,1-.1.168h-.034A.14.14,0,0,1,35.337,37.716Zm25.17.073a.135.135,0,0,1-.1-.168h0a.14.14,0,0,1,.168-.1h0a.14.14,0,0,1,.1.168h0a.146.146,0,0,1-.135.107h-.034Zm-25.383-1.2a.14.14,0,0,1,.118-.163h0a.14.14,0,0,1,.157.124h0a.14.14,0,0,1-.118.157h0a.135.135,0,0,1-.157-.118Zm25.608.09a.14.14,0,0,1-.124-.157h0a.14.14,0,0,1,.157-.118h0a.146.146,0,0,1,.124.157h0a.152.152,0,0,1-.14.124h0ZM35,35.453a.14.14,0,0,1,.135-.146h0a.135.135,0,0,1,.146.135h0a.14.14,0,0,1-.135.146h0A.146.146,0,0,1,35,35.453Zm25.827.107a.135.135,0,0,1-.135-.146h0a.14.14,0,0,1,.146-.135h0a.152.152,0,0,1,.135.146h0a.14.14,0,0,1-.14.135h0ZM35,34.319a.14.14,0,0,1,.14-.14h0a.14.14,0,0,1,.14.14h0a.146.146,0,0,1-.14.14h0A.14.14,0,0,1,35,34.319Zm25.715-.045a.14.14,0,0,1,.14-.14h0a.14.14,0,0,1,.14.14h0a.14.14,0,0,1-.14.14h0A.14.14,0,0,1,60.714,34.274ZM35,33.185a.14.14,0,0,1,.14-.14h0a.146.146,0,0,1,.14.14h0a.14.14,0,0,1-.14.14h0A.14.14,0,0,1,35,33.185Zm25.715-.034a.14.14,0,0,1,.14-.14h0a.14.14,0,0,1,.14.14h0a.14.14,0,0,1-.14.14h0A.14.14,0,0,1,60.714,33.151ZM35,32.056a.14.14,0,0,1,.14-.14h0a.14.14,0,0,1,.14.14h0a.14.14,0,0,1-.14.14h0A.14.14,0,0,1,35,32.056Zm25.715-.028a.14.14,0,0,1,.14-.14h0a.14.14,0,0,1,.14.14h0a.14.14,0,0,1-.14.14h0A.14.14,0,0,1,60.714,32.028ZM35,30.905a.14.14,0,0,1,.14-.14h0a.14.14,0,0,1,.14.14h0a.14.14,0,0,1-.14.14h0A.14.14,0,0,1,35,30.905Zm25.715,0a.14.14,0,0,1,.14-.14h0a.14.14,0,0,1,.14.14h0a.14.14,0,0,1-.14.14h0A.14.14,0,0,1,60.714,30.905ZM35,29.782a.14.14,0,0,1,.14-.14h0a.14.14,0,0,1,.14.14h0a.14.14,0,0,1-.14.14h0A.14.14,0,0,1,35,29.782Zm25.715,0a.14.14,0,0,1,.14-.14h0a.14.14,0,0,1,.14.14h0a.14.14,0,0,1-.14.14h0A.14.14,0,0,1,60.714,29.782ZM35,28.659a.14.14,0,0,1,.14-.14h0a.14.14,0,0,1,.14.14h0a.146.146,0,0,1-.14.14h0A.14.14,0,0,1,35,28.659Zm25.715,0a.14.14,0,0,1,.14-.14h0a.14.14,0,0,1,.14.14h0a.14.14,0,0,1-.14.14h0A.14.14,0,0,1,60.714,28.659ZM35,27.536a.14.14,0,0,1,.14-.14h0a.146.146,0,0,1,.14.14h0a.14.14,0,0,1-.14.14h0A.14.14,0,0,1,35,27.536Zm25.715,0a.14.14,0,0,1,.14-.14h0a.14.14,0,0,1,.14.14h0a.14.14,0,0,1-.14.14h0A.14.14,0,0,1,60.714,27.536ZM35,26.414a.14.14,0,0,1,.14-.14h0a.14.14,0,0,1,.14.14h0a.14.14,0,0,1-.14.14h0A.14.14,0,0,1,35,26.414Zm25.7-.028a.14.14,0,0,1,.14-.14h0a.14.14,0,0,1,.14.14h0a.14.14,0,0,1-.14.14h0a.14.14,0,0,1-.129-.146ZM35,25.291a.14.14,0,0,1,.14-.14h0a.14.14,0,0,1,.14.14h0a.14.14,0,0,1-.14.14h0A.14.14,0,0,1,35,25.291Zm25.7,0a.14.14,0,0,1,.14-.14h0a.14.14,0,0,1,.14.14h0a.14.14,0,0,1-.14.14h0a.14.14,0,0,1-.129-.18ZM35,24.168a.14.14,0,0,1,.14-.14h0a.14.14,0,0,1,.14.14h0a.146.146,0,0,1-.14.14h0A.14.14,0,0,1,35,24.168Zm25.7,0a.14.14,0,0,1,.14-.14h0a.14.14,0,0,1,.14.14h0a.14.14,0,0,1-.14.14h0a.14.14,0,0,1-.129-.185ZM35,23.045a.14.14,0,0,1,.14-.14h0a.146.146,0,0,1,.14.14h0a.14.14,0,0,1-.14.14h0A.14.14,0,0,1,35,23.045Zm25.7,0a.14.14,0,0,1,.14-.14h0a.14.14,0,0,1,.14.14h0a.14.14,0,0,1-.14.14h0a.14.14,0,0,1-.129-.191ZM35,21.888a.14.14,0,0,1,.14-.14h0a.14.14,0,0,1,.14.14h0a.14.14,0,0,1-.14.14h0A.14.14,0,0,1,35,21.888Zm25.7,0a.14.14,0,0,1,.14-.14h0a.14.14,0,0,1,.14.14h0a.14.14,0,0,1-.14.14h0a.14.14,0,0,1-.129-.163ZM35,20.76a.14.14,0,0,1,.14-.14h0a.14.14,0,0,1,.14.14h0a.14.14,0,0,1-.14.14h0A.14.14,0,0,1,35,20.76Zm25.7-.028a.14.14,0,0,1,.14-.14h0a.14.14,0,0,1,.14.14h0a.14.14,0,0,1-.14.14h0a.14.14,0,0,1-.129-.14ZM35,19.631a.14.14,0,0,1,.14-.14h0a.14.14,0,0,1,.14.14h0a.14.14,0,0,1-.14.14h0A.14.14,0,0,1,35,19.631ZM60.7,19.6a.14.14,0,0,1,.14-.14h0a.14.14,0,0,1,.14.14h0a.14.14,0,0,1-.14.14h0a.14.14,0,0,1-.129-.14ZM35,18.5a.14.14,0,0,1,.14-.14h0a.146.146,0,0,1,.14.14h0a.14.14,0,0,1-.14.14h0A.14.14,0,0,1,35,18.5Zm25.7,0a.14.14,0,0,1,.14-.14h0a.14.14,0,0,1,.14.14h0a.14.14,0,0,1-.14.14h0a.14.14,0,0,1-.129-.163ZM35,17.369a.14.14,0,0,1,.14-.14h0a.14.14,0,0,1,.14.14h0a.14.14,0,0,1-.14.14h0A.14.14,0,0,1,35,17.369Zm25.7,0a.14.14,0,0,1,.14-.14h0a.14.14,0,0,1,.14.14h0a.14.14,0,0,1-.14.14h0a.14.14,0,0,1-.129-.163ZM35,16.24a.14.14,0,0,1,.14-.14h0a.14.14,0,0,1,.14.14h0a.14.14,0,0,1-.14.14h0A.14.14,0,0,1,35,16.24Zm25.7,0a.14.14,0,0,1,.14-.14h0a.14.14,0,0,1,.14.14h0a.14.14,0,0,1-.14.14h0a.14.14,0,0,1-.129-.163ZM35,15.112a.14.14,0,0,1,.14-.14h0a.14.14,0,0,1,.14.14h0a.14.14,0,0,1-.14.14h0A.14.14,0,0,1,35,15.112Zm25.7-.028a.14.14,0,0,1,.14-.14h0a.14.14,0,0,1,.14.14h0a.14.14,0,0,1-.14.14h0a.14.14,0,0,1-.129-.14ZM35,13.983a.14.14,0,0,1,.14-.14h0a.14.14,0,0,1,.14.14h0a.146.146,0,0,1-.14.14h0A.14.14,0,0,1,35,13.983Zm25.7,0a.14.14,0,0,1,.14-.14h0a.14.14,0,0,1,.14.14h0a.14.14,0,0,1-.14.14h0a.14.14,0,0,1-.129-.168ZM35,12.854a.146.146,0,0,1,.14-.146h0a.146.146,0,0,1,.14.146h0a.146.146,0,0,1-.14.14h0A.14.14,0,0,1,35,12.854Zm25.7,0a.14.14,0,0,1,.14-.14h0a.14.14,0,0,1,.14.14h0a.14.14,0,0,1-.14.14h0a.14.14,0,0,1-.129-.168ZM35,11.72a.14.14,0,0,1,.14-.14h0a.14.14,0,0,1,.14.14h0a.14.14,0,0,1-.14.14h0A.14.14,0,0,1,35,11.72Zm25.7,0a.14.14,0,0,1,.14-.14h0a.14.14,0,0,1,.14.14h0a.14.14,0,0,1-.14.14h0a.14.14,0,0,1-.129-.163Z" transform="translate(-15.349 -5.078)" fill="#e8c347"/>
      <path id="Path_141" data-name="Path 141" d="M35.152,9.791a.129.129,0,0,1-.1-.039A.135.135,0,0,1,35,9.662a.123.123,0,0,1,.039-.1.135.135,0,0,1,.2,0,.129.129,0,0,1,.045.1.14.14,0,0,1-.045.1A.124.124,0,0,1,35.152,9.791Z" transform="translate(-15.349 -4.177)" fill="#e8c347"/>
      <path id="Path_142" data-name="Path 142" d="M60.391,9.66a.14.14,0,0,1,.14-.14h0a.14.14,0,0,1,.14.14h0a.14.14,0,0,1-.14.14h0A.14.14,0,0,1,60.391,9.66Zm-1.123,0a.14.14,0,0,1,.14-.14h0a.14.14,0,0,1,.14.14h0a.14.14,0,0,1-.14.14h0a.14.14,0,0,1-.135-.14Zm-1.123,0a.14.14,0,0,1,.14-.14h0a.14.14,0,0,1,.14.14h0a.14.14,0,0,1-.14.14h0a.14.14,0,0,1-.129-.14Zm-1.123,0a.14.14,0,0,1,.14-.14h0a.14.14,0,0,1,.14.14h0a.14.14,0,0,1-.14.14h0a.14.14,0,0,1-.124-.14Zm-1.123,0a.14.14,0,0,1,.14-.14h0a.14.14,0,0,1,.14.14h0a.14.14,0,0,1-.14.14h0a.14.14,0,0,1-.118-.14Zm-1.123,0a.14.14,0,0,1,.14-.14h0a.14.14,0,0,1,.14.14h0a.14.14,0,0,1-.14.14h0a.14.14,0,0,1-.112-.14Zm-1.123,0a.14.14,0,0,1,.14-.14h0a.14.14,0,0,1,.14.14h0a.14.14,0,0,1-.14.14h0a.14.14,0,0,1-.107-.14Zm-1.123,0a.14.14,0,0,1,.14-.14h0a.146.146,0,0,1,.14.14h0a.14.14,0,0,1-.14.14h0a.14.14,0,0,1-.1-.14Zm-1.123,0a.14.14,0,0,1,.14-.14h0a.146.146,0,0,1,.14.14h0a.14.14,0,0,1-.14.14h0a.14.14,0,0,1-.1-.14Zm-1.123,0a.146.146,0,0,1,.14-.14h0a.14.14,0,0,1,.14.14h0a.14.14,0,0,1-.14.14h0a.14.14,0,0,1-.1-.14Zm-1.123,0a.146.146,0,0,1,.14-.14h0a.14.14,0,0,1,.14.14h0a.14.14,0,0,1-.14.14h0a.14.14,0,0,1-.09-.14Zm-1.123,0a.14.14,0,0,1,.14-.14h0a.14.14,0,0,1,.14.14h0a.14.14,0,0,1-.14.14h0a.14.14,0,0,1-.084-.14Zm-1.123,0a.14.14,0,0,1,.14-.14h0a.14.14,0,0,1,.14.14h0a.14.14,0,0,1-.14.14h0a.14.14,0,0,1-.079-.14Zm-1.123,0a.14.14,0,0,1,.14-.14h0a.14.14,0,0,1,.14.14h0a.14.14,0,0,1-.14.14h0a.14.14,0,0,1-.073-.14Zm-1.123,0a.14.14,0,0,1,.14-.14h0a.14.14,0,0,1,.14.14h0a.14.14,0,0,1-.14.14h0a.14.14,0,0,1-.067-.14Zm-1.123,0a.14.14,0,0,1,.14-.14h0a.14.14,0,0,1,.14.14h0a.14.14,0,0,1-.14.14h0a.14.14,0,0,1-.034-.14Zm-1.123,0a.14.14,0,0,1,.14-.14h0a.14.14,0,0,1,.14.14h0a.14.14,0,0,1-.14.14h0a.14.14,0,0,1-.034-.14Zm-1.123,0a.14.14,0,0,1,.14-.14h0a.14.14,0,0,1,.14.14h0a.14.14,0,0,1-.14.14h0a.14.14,0,0,1-.034-.14Zm-1.123,0a.14.14,0,0,1,.14-.14h0a.14.14,0,0,1,.14.14h0a.14.14,0,0,1-.14.14h0a.14.14,0,0,1-.034-.14Zm-1.123,0a.14.14,0,0,1,.14-.14h0a.14.14,0,0,1,.14.14h0a.14.14,0,0,1-.14.14h0a.14.14,0,0,1-.034-.14Zm-1.123,0a.14.14,0,0,1,.14-.14h0a.146.146,0,0,1,.14.14h0a.14.14,0,0,1-.14.14h0a.14.14,0,0,1-.034-.14Zm-1.123,0a.14.14,0,0,1,.14-.14h0a.146.146,0,0,1,.14.14h0a.14.14,0,0,1-.14.14h0a.14.14,0,0,1-.034-.14Z" transform="translate(-16.143 -4.175)" fill="#e8c347"/>
      <path id="Path_143" data-name="Path 143" d="M58.265,11.8l-.983-.977L56.16,11.943l1.123,1.123.983-.977.146-.146Zm-.983.775-.483-.483-.168-.146.146-.146.483-.483.629.629Z" transform="translate(-24.629 -4.745)" fill="#e8c347"/>
      <path id="Path_144" data-name="Path 144" d="M59.28,12.56l6.125.146-6.125.146V12.56Z" transform="translate(-25.997 -5.508)" fill="#e8c347"/>
      <path id="Path_145" data-name="Path 145" d="M52.255,12.56l-6.125.146,6.125.146V12.56Z" transform="translate(-20.23 -5.508)" fill="#e8c347"/>
      <path id="Path_146" data-name="Path 146" d="M58.265,66.153l-.983-.983L56.16,66.293l1.123,1.123.983-.983.146-.146Zm-.983.775-.483-.488-.168-.146.146-.14.483-.488.629.629Z" transform="translate(-24.629 -28.58)" fill="#e8c347"/>
      <path id="Path_147" data-name="Path 147" d="M59.28,66.92l6.125.14-6.125.146V66.92Z" transform="translate(-25.997 -29.348)" fill="#e8c347"/>
      <path id="Path_148" data-name="Path 148" d="M52.255,66.92l-6.125.14,6.125.146V66.92Z" transform="translate(-20.23 -29.348)" fill="#e8c347"/>
      <rect id="Rectangle_33" data-name="Rectangle 33" width="0.011" height="0.017" transform="translate(27.932 10.067)" fill="#e8c347"/>
      <path id="Path_149" data-name="Path 149" d="M51.548,37.28v.09h-.331v.056H50.97A.049.049,0,0,1,51,37.381h.073a3.526,3.526,0,0,1,.46-.09Z" transform="translate(-22.353 -16.349)" fill="#e8c347"/>
      <path id="Path_150" data-name="Path 150" d="M51.213,37.527h.348v.045L51,37.51h1.937C52.729,37.527,51.724,37.527,51.213,37.527Z" transform="translate(-22.366 -16.45)" fill="#e8c347"/>
      <path id="Path_151" data-name="Path 151" d="M55.782,20.232a5.457,5.457,0,0,0-2.639-1.813,12.431,12.431,0,0,0-3.992-.561l-3.8.045h1.319a1.55,1.55,0,0,1,.865.213.775.775,0,0,1,.292.7v5.188l.135,14.418v.685a3.929,3.929,0,0,0,.505,0,3.256,3.256,0,0,0,.623-.056V28.929h-.578a.049.049,0,0,1,.034-.045h.073a3.526,3.526,0,0,1,.46-.09h0V18.846a.994.994,0,0,1,.3-.736,1,1,0,0,1,.7-.124,3.84,3.84,0,0,1,1.544.618,4.452,4.452,0,0,1,1.55,1.937,7.45,7.45,0,0,1,.522,2.9,7.377,7.377,0,0,1-.438,2.644c-.028.079-.062.152-.084.225a4.761,4.761,0,0,1-.517.893,3.93,3.93,0,0,1-1.033.994,5.092,5.092,0,0,1-2.549.561v.09h-.331V28.9H50.47a12.526,12.526,0,0,0,2.246-.337c.2-.045.4-.107.59-.168l.157-.051a4.946,4.946,0,0,0,2.414-1.684,5.345,5.345,0,0,0,.87-3.178A5.171,5.171,0,0,0,55.782,20.232Zm-7.961-2.3Z" transform="translate(-19.888 -7.83)" fill="#e8c347"/>
      <path id="Path_152" data-name="Path 152" d="M45.515,17.94Z" transform="translate(-19.862 -7.868)" fill="#e8c347"/>
      <rect id="Rectangle_34" data-name="Rectangle 34" width="0.011" height="0.017" transform="translate(27.932 10.067)" fill="#e8c347"/>
      <path id="Path_153" data-name="Path 153" d="M51.548,37.28v.09h-.331v.056H50.97A.049.049,0,0,1,51,37.381h.073a3.526,3.526,0,0,1,.46-.09Z" transform="translate(-22.353 -16.349)" fill="#e8c347"/>
      <path id="Path_154" data-name="Path 154" d="M48.663,37.28v.258a7.754,7.754,0,0,0-1.185.062c-3.043.808-3.369,3.61-2.246,5.89-1.746-2.723-.668-5.418,2.246-6.176C47.641,37.28,48.562,37.308,48.663,37.28Z" transform="translate(-19.468 -16.349)" fill="#e8c347"/>
      <path id="Path_155" data-name="Path 155" d="M51,37.415h0a.05.05,0,0,1,.028-.045Z" transform="translate(-22.366 -16.389)" fill="#e8c347"/>
      <path id="Path_156" data-name="Path 156" d="M53.264,34.485a49.491,49.491,0,0,1-2.375,4.688A5.781,5.781,0,0,1,45.8,41.633c-2.768,0-8.366-1.92-6.518-8.079A12.829,12.829,0,0,1,40.648,31c.449-.679.9-1.364,1.331-2.055l.045-.073a17.489,17.489,0,0,0,2.156-4.744,6.019,6.019,0,0,0-.185-4.346,1.864,1.864,0,0,0-2.027-1.123,2.633,2.633,0,0,0-1.544,1.123,1.123,1.123,0,0,0,.533,1.746,1.039,1.039,0,0,0,1.555-.685c.062-.168.331-.247.505-.359.056.23.208.5.14.7a1.606,1.606,0,0,1-1.915,1.19c-.646-.09-.786.129-.707.561.309.056.528.107.752.152-.073.2-.09.561-.225.6-.64.269-1.308.472-1.959.691-.051-.1-.1-.208-.146-.314a2.8,2.8,0,0,0,.618-3.234,2.021,2.021,0,0,1,.118-1.3A2.454,2.454,0,0,1,41.429,17.9h1.3a3.015,3.015,0,0,1,2.016,1.628,4.555,4.555,0,0,1,.168.444,3.218,3.218,0,0,1,.079.314.163.163,0,0,1,0,.051h0v3.655a.226.226,0,0,1-.034.14,6.363,6.363,0,0,1-.247.764c-.051.112-.1.219-.146.337-.561,1.23-1.185,2.425-1.853,3.6l-.045.073c-.365.657-.747,1.308-1.123,1.954a5.76,5.76,0,0,0-.848,2.807,4.774,4.774,0,0,0,4.385,4.722v.685a6.014,6.014,0,0,1-5.132-5.165c-1.516,4.744,1.976,6.833,4.694,7.063.517.039.472-.561.477-.938h0v-.91a3.929,3.929,0,0,0,.505,0,3.257,3.257,0,0,0,.623-.056v.87c0,.736,0,1.022.455,1.005,1.319-.073,3.711-1.819,3.582-5.5.814-1.684,1.291-1.589,2.173-3.183C52.467,34.356,52.843,34.025,53.264,34.485Z" transform="translate(-17.067 -7.85)" fill="#e8c347"/>
      <path id="Path_157" data-name="Path 157" d="M49.81,25.965V22.31a7.462,7.462,0,0,1,0,3.655Z" transform="translate(-21.844 -9.784)" fill="#e8c347"/>
      <path id="Path_158" data-name="Path 158" d="M54.128,47.841a4.306,4.306,0,0,1-3.009,2.482,3.257,3.257,0,0,1-.623.056,3.928,3.928,0,0,1-.505,0v-.713a4.172,4.172,0,0,0,.511.034,3.638,3.638,0,0,0,.618-.051,3.268,3.268,0,0,0,2.425-1.965c.707-1.308.4-3.554-.859-4.194C53.69,43.591,55.049,45.859,54.128,47.841Z" transform="translate(-21.923 -19.072)" fill="#e8c347"/>
      <path id="Path_159" data-name="Path 159" d="M74.238,54.5a2.807,2.807,0,0,1-.247,1.168,3.049,3.049,0,0,1-.7.983,3.228,3.228,0,0,1-1.078.679,3.807,3.807,0,0,1-1.387.247H70.8a2.836,2.836,0,0,1-.522.062h.612a3.133,3.133,0,0,0,1.359-.3,3.419,3.419,0,0,0,1.179-.775l.848,1.084V54.5Z" transform="translate(-30.821 -23.901)" fill="#e8c347"/>
      <path id="Path_160" data-name="Path 160" d="M62.638,50.207H59.517a3.644,3.644,0,0,1-2.134-.561A3.032,3.032,0,0,1,56.26,48.18a6.771,6.771,0,0,1-.421-1.926h0v-.2c-.051-.736-.084-1.269-.1-2.061s-.051-1.6-.129-2.369a.433.433,0,0,0,0-.084,7.3,7.3,0,0,0-.4-1.774.535.535,0,0,0-.079-.2,3.127,3.127,0,0,0-1.2-1.477,9.32,9.32,0,0,0-2.381-.483H51.37V37.49h1.645a8.776,8.776,0,0,1,2.414.466,5.5,5.5,0,0,1,.517.225c.084.051.168.09.258.135h0A4.682,4.682,0,0,1,57.973,40c.056.1.118.2.168.309a6.956,6.956,0,0,1,.724,2.2c.051.3.09.612.118.915a17.75,17.75,0,0,1,.112,1.808,5.158,5.158,0,0,0,.87,3.3,4.812,4.812,0,0,0,.82.96.359.359,0,0,0,.084.079,2.745,2.745,0,0,0,1.684.561Z" transform="translate(-22.528 -16.441)" fill="#e8c347"/>
      <path id="Path_161" data-name="Path 161" d="M71.62,37.476v3.436h-.039a2.807,2.807,0,0,0-.466-1.589A3.425,3.425,0,0,0,69.9,38.234a3.369,3.369,0,0,0-1.583-.393,2.656,2.656,0,0,0-1.617.488,3.4,3.4,0,0,0-1.061,1.291,13.24,13.24,0,0,0-.651,2.089,4.273,4.273,0,0,0-.769-1.948,3.621,3.621,0,0,1,1.347-1.274,4.688,4.688,0,0,1,2.605-.735,3.649,3.649,0,0,1,1.4.269,3.262,3.262,0,0,1,1.123.73S71.62,37.15,71.62,37.476Z" transform="translate(-28.164 -16.416)" fill="#e8c347"/>
      <path id="Path_162" data-name="Path 162" d="M1.611,100.773H2.959a1.28,1.28,0,0,0,.73-.2,1.224,1.224,0,0,0,.46-.561,2.178,2.178,0,0,0,.152-.848,2.246,2.246,0,0,0-.152-.859,1.269,1.269,0,0,0-.46-.561,1.241,1.241,0,0,0-.73-.208h0a3.571,3.571,0,0,1,1.179.174,1.572,1.572,0,0,1,.786.561,1.51,1.51,0,0,1,.275.949,1.544,1.544,0,0,1-.258.938,1.448,1.448,0,0,1-.758.522,3.89,3.89,0,0,1-1.224.163ZM0,104.215Zm.983,0V97.5h.853v6.7Zm4.172.062a1.123,1.123,0,0,1-.606-.146.814.814,0,0,1-.314-.4,1.915,1.915,0,0,1-.124-.561c0-.2-.028-.415-.028-.634a3.411,3.411,0,0,0-.039-.64,1.914,1.914,0,0,0-.14-.561.831.831,0,0,0-.342-.393,1.179,1.179,0,0,0-.646-.152h.18a2.442,2.442,0,0,1,1.044.191,1.336,1.336,0,0,1,.561.494,1.808,1.808,0,0,1,.253.679,4.076,4.076,0,0,1,.1.679v.674a1.286,1.286,0,0,0,.1.494.314.314,0,0,0,.32.191,1.044,1.044,0,0,0,.269-.034.859.859,0,0,0,.213-.073h0a1.163,1.163,0,0,1-.309.1,2.492,2.492,0,0,1-.488.073Z" transform="translate(0 -42.758)" fill="#e8c347"/>
      <path id="Path_163" data-name="Path 163" d="M19.7,106.256a1.965,1.965,0,0,1-1.089-.3,2,2,0,0,1-.713-.786,2.392,2.392,0,0,1,0-2.139,2,2,0,0,1,.713-.786,1.965,1.965,0,0,1,1.089-.27,2,2,0,0,1,1.095.3,1.948,1.948,0,0,1,.707.786,2.392,2.392,0,0,1,0,2.139,1.948,1.948,0,0,1-.707.786A2,2,0,0,1,19.7,106.256Zm0,0a.814.814,0,0,0,.59-.213,1.381,1.381,0,0,0,.337-.561,3.324,3.324,0,0,0,.152-.7c0-.247.039-.472.039-.685a4.207,4.207,0,0,0-.039-.685,3.368,3.368,0,0,0-.152-.691,1.381,1.381,0,0,0-.337-.561.921.921,0,0,0-1.179,0,1.308,1.308,0,0,0-.331.561,2.751,2.751,0,0,0-.152.691,6.081,6.081,0,0,0-.039.685,6,6,0,0,0,.039.684,2.74,2.74,0,0,0,.152.7,1.308,1.308,0,0,0,.331.561.814.814,0,0,0,.59.191Z" transform="translate(-7.736 -44.71)" fill="#e8c347"/>
      <path id="Path_164" data-name="Path 164" d="M33.28,102.15l1.589,3.251-.415,1.05-2.066-4.3h.893Zm3.526,0h-.6l-2.386,5.878a2.043,2.043,0,0,1-.247.427.455.455,0,0,1-.382.157.7.7,0,0,1-.23-.045.483.483,0,0,1-.2-.157.455.455,0,0,1-.079-.275.561.561,0,0,1,.062-.258.444.444,0,0,1,.18-.174.472.472,0,0,1,.253-.067.455.455,0,0,1,.253.073.561.561,0,0,1,.2.185.455.455,0,0,1,.084.275l2.448-6.019h.634Z" transform="translate(-14.034 -44.798)" fill="#e8c347"/>
      <path id="Path_165" data-name="Path 165" d="M48.678,106.257a1.4,1.4,0,0,1-.932-.3,1.123,1.123,0,0,1,.157-1.735,2.734,2.734,0,0,1,1.46-.32h0a.932.932,0,0,0-.623.2,1,1,0,0,0-.32.466,1.466,1.466,0,0,0-.1.517,2.246,2.246,0,0,0,.051.466,1.027,1.027,0,0,0,.191.41.444.444,0,0,0,.365.168.8.8,0,0,0,.494-.163,1.078,1.078,0,0,0,.359-.517,2.5,2.5,0,0,0,.14-.921h0a2.875,2.875,0,0,1-.129.893,1.173,1.173,0,0,1-.4.6A1.19,1.19,0,0,1,48.678,106.257Zm2.066,0a1.522,1.522,0,0,1-.4-.056.561.561,0,0,1-.309-.225.876.876,0,0,1-.112-.483v-2.061a4.223,4.223,0,0,0-.051-.646,1.185,1.185,0,0,0-.219-.561.623.623,0,0,0-.528-.219,2.078,2.078,0,0,0-.488.062,1.786,1.786,0,0,0-.449.18.977.977,0,0,0-.326.27.561.561,0,0,0-.124.354h0a.472.472,0,0,1,.146-.359.494.494,0,0,1,.331-.135.561.561,0,0,1,.354.124.421.421,0,0,1,.157.354.472.472,0,0,1-.163.393.561.561,0,0,1-.348.118.511.511,0,0,1-.348-.124.466.466,0,0,1-.14-.371.561.561,0,0,1,.135-.376,1.073,1.073,0,0,1,.354-.286,2.246,2.246,0,0,1,.517-.185,2.566,2.566,0,0,1,.561-.067,1.566,1.566,0,0,1,.921.219.971.971,0,0,1,.4.561,2.4,2.4,0,0,1,.1.7v2.319a.561.561,0,0,0,.062.281.269.269,0,0,0,.258.118.606.606,0,0,0,.348-.146,1.022,1.022,0,0,0,.292-.41h0a1.022,1.022,0,0,1-.96.646Z" transform="translate(-20.79 -44.711)" fill="#e8c347"/>
      <path id="Path_166" data-name="Path 166" d="M63.117,97.48v6.7h-.8V97.5H61.59Z" transform="translate(-27.01 -42.75)" fill="#e8c347"/>
      <path id="Path_167" data-name="Path 167" d="M82.263,104.225a2.863,2.863,0,0,1-1.595-.449,3.021,3.021,0,0,1-1.067-1.224,4.34,4.34,0,0,1,0-3.56,2.987,2.987,0,0,1,1.067-1.224,2.863,2.863,0,0,1,1.595-.449,2.313,2.313,0,0,1,.859.163,2.128,2.128,0,0,1,.691.449l.561-.522h0v1.836h0a1.684,1.684,0,0,0-.309-.983,2.038,2.038,0,0,0-.747-.668,2,2,0,0,0-.966-.241,1.651,1.651,0,0,0-.988.3,2.105,2.105,0,0,0-.646.792,4.109,4.109,0,0,0-.359,1.123,6.636,6.636,0,0,0,0,2.431,4.149,4.149,0,0,0,.359,1.123,2.2,2.2,0,0,0,.623.758,1.651,1.651,0,0,0,.988.3,2.246,2.246,0,0,0,.848-.152,1.954,1.954,0,0,0,.663-.415,1.864,1.864,0,0,0,.427-.6,1.684,1.684,0,0,0,.152-.713h0v1.842h0l-.494-.561a2.117,2.117,0,0,1-.724.477,2.611,2.611,0,0,1-.938.174Z" transform="translate(-34.742 -42.679)" fill="#e8c347"/>
      <path id="Path_168" data-name="Path 168" d="M95.61,104.224h.977v-6.7h.859V104.2h1.078Z" transform="translate(-41.93 -42.767)" fill="#e8c347"/>
      <path id="Path_169" data-name="Path 169" d="M110.1,97.479a3.313,3.313,0,0,1,1.331.23,1.628,1.628,0,0,1,.764.651,1.954,1.954,0,0,1,.241,1,1.87,1.87,0,0,1-.241.988,1.561,1.561,0,0,1-.764.612,3.554,3.554,0,0,1-1.331.208h-.977v3.015h-.859V97.5h-.8Zm-.977,3.661h.977a1.055,1.055,0,0,0,.561-.163,1.476,1.476,0,0,0,.421-.432,2.245,2.245,0,0,0,.258-.561,2.129,2.129,0,0,0,.09-.612,2.292,2.292,0,0,0-.09-.623,2.487,2.487,0,0,0-.258-.6,1.589,1.589,0,0,0-.421-.46.977.977,0,0,0-.561-.174h-.977Z" transform="translate(-47.126 -42.748)" fill="#e8c347"/>
      <path id="Path_170" data-name="Path 170" d="M41.74,46.729c-6.176-3.459-11.79-8.1-12.212-15.44-.09-7.45-.258-22.458-.331-29.909l-.163,14.946c-.039,4.991-.118,9.966-.135,14.968a14.278,14.278,0,0,0,2.167,7.265c4.138,6.5,11.7,10.016,18.663,12.638,0,0-.561-.561-1.392-1.4a69.876,69.876,0,0,1-6.6-3.071Z" transform="translate(-12.674 -0.605)" fill="#e8c347"/>
      <path id="Path_171" data-name="Path 171" d="M25.163,28.785c-.067,0-1.252-.337-3.049-.96A40.189,40.189,0,0,1,19.56,24.08a44.692,44.692,0,0,0,5.6,4.7Z" transform="translate(-8.578 -10.56)" fill="#e8c347"/>
      <path id="Path_172" data-name="Path 172" d="M25.6,24.507c-.073,0-1.5-.455-3-1.022a35.849,35.849,0,0,1-2.308-3.8A39.2,39.2,0,0,0,25.6,24.507Z" transform="translate(-8.898 -8.635)" fill="#e8c347"/>
      <path id="Path_173" data-name="Path 173" d="M26.06,19.843a27.113,27.113,0,0,1-2.847-1.319,35.074,35.074,0,0,1-1.763-4,37.713,37.713,0,0,0,4.61,5.323Z" transform="translate(-9.407 -6.368)" fill="#e8c347"/>
      <path id="Path_174" data-name="Path 174" d="M24.991,41.426c-.067,0-1.274-.213-3.127-.668A41.132,41.132,0,0,1,19,37.26a43.882,43.882,0,0,0,5.991,4.166Z" transform="translate(-8.332 -16.34)" fill="#e8c347"/>
      <path id="Path_175" data-name="Path 175" d="M24.992,45.33c-.067,0-1.286-.163-3.15-.561A41.844,41.844,0,0,1,18.81,41.4a44.141,44.141,0,0,0,6.182,3.93Z" transform="translate(-8.249 -18.156)" fill="#e8c347"/>
      <path id="Path_176" data-name="Path 176" d="M24.648,48.834c-.067,0-1.286-.124-3.167-.449A40.5,40.5,0,0,1,18.36,45.1a44.034,44.034,0,0,0,6.288,3.734Z" transform="translate(-8.052 -19.778)" fill="#e8c347"/>
      <path id="Path_177" data-name="Path 177" d="M25.024,52.5c-.067,0-1.291-.062-3.183-.286a40.688,40.688,0,0,1-3.29-3.122A43.985,43.985,0,0,0,25.024,52.5Z" transform="translate(-8.135 -21.528)" fill="#e8c347"/>
      <path id="Path_178" data-name="Path 178" d="M25.081,56.383c-.067,0-1.291-.084-3.178-.354A39.482,39.482,0,0,1,18.68,52.84a44.3,44.3,0,0,0,6.4,3.543Z" transform="translate(-8.192 -23.173)" fill="#e8c347"/>
      <path id="Path_179" data-name="Path 179" d="M25.923,59.9c-.067,0-1.3,0-3.195-.163A39.924,39.924,0,0,1,19.32,56.75,44.057,44.057,0,0,0,25.923,59.9Z" transform="translate(-8.473 -24.888)" fill="#e8c347"/>
      <path id="Path_180" data-name="Path 180" d="M27.494,63.877c-.067,0-1.3.073-3.2.045A41.549,41.549,0,0,1,20.7,61.16a44.057,44.057,0,0,0,6.794,2.717Z" transform="translate(-9.078 -26.822)" fill="#e8c347"/>
      <path id="Path_181" data-name="Path 181" d="M29.653,67.244c-.067,0-1.286.14-3.189.208A40.218,40.218,0,0,1,22.73,64.88a44.141,44.141,0,0,0,6.923,2.364Z" transform="translate(-9.968 -28.453)" fill="#e8c347"/>
      <path id="Path_182" data-name="Path 182" d="M31.571,70.585c-.067,0-1.291.152-3.189.241A40.847,40.847,0,0,1,24.62,68.3a45.224,45.224,0,0,0,6.951,2.285Z" transform="translate(-10.797 -29.953)" fill="#e8c347"/>
      <path id="Path_183" data-name="Path 183" d="M34.741,74.007c-.067,0-1.274.258-3.161.505A41.018,41.018,0,0,1,27.65,72.3,44.449,44.449,0,0,0,34.741,74.007Z" transform="translate(-12.126 -31.707)" fill="#e8c347"/>
      <path id="Path_184" data-name="Path 184" d="M38.97,77.527c-.062,0-1.258.309-3.133.629A40.766,40.766,0,0,1,31.8,76.09a43.559,43.559,0,0,0,7.17,1.437Z" transform="translate(-13.946 -33.369)" fill="#e8c347"/>
      <path id="Path_185" data-name="Path 185" d="M42.781,80.382c-.067.034-1.23.415-3.071.893a39.717,39.717,0,0,1-4.2-1.684A43.794,43.794,0,0,0,42.781,80.382Z" transform="translate(-15.573 -34.904)" fill="#e8c347"/>
      <path id="Path_186" data-name="Path 186" d="M24.962,36.881c-.073,0-1.55-.258-3.1-.64A35.607,35.607,0,0,1,19.1,32.76,39.026,39.026,0,0,0,24.962,36.881Z" transform="translate(-8.376 -14.367)" fill="#e8c347"/>
      <path id="Path_187" data-name="Path 187" d="M25.1,32.759c-.073,0-1.252-.2-3.071-.64A36.832,36.832,0,0,1,19.41,28.61,37.466,37.466,0,0,0,25.1,32.759Z" transform="translate(-8.512 -12.547)" fill="#e8c347"/>
      <path id="Path_188" data-name="Path 188" d="M26.722,14.833c-.32-.118-2.2-1.336-2.639-1.628A34.54,34.54,0,0,1,23,9a34.08,34.08,0,0,0,3.722,5.833Z" transform="translate(-10.087 -3.947)" fill="#e8c347"/>
      <path id="Path_189" data-name="Path 189" d="M27.5,10.089a28.387,28.387,0,0,1-2.246-1.853A28.263,28.263,0,0,1,24.89,4.16,29.409,29.409,0,0,0,27.5,10.089Z" transform="translate(-10.915 -1.824)" fill="#e8c347"/>
      <path id="Path_190" data-name="Path 190" d="M28.206,6.395A22.16,22.16,0,0,1,26.6,4.1,17.7,17.7,0,0,1,27.448,0a22.413,22.413,0,0,0,.758,6.395Z" transform="translate(-11.665 0)" fill="#e8c347"/>
      <path id="Path_191" data-name="Path 191" d="M58.331,46.729c6.176-3.459,11.791-8.1,12.217-15.44.09-7.45.258-22.458.331-29.909l.157,14.946c.045,4.991.124,9.966.14,14.968A14.284,14.284,0,0,1,69,38.559c-4.132,6.5-11.7,10.016-18.635,12.638l1.4-1.4a69.325,69.325,0,0,0,6.563-3.071Z" transform="translate(-22.09 -0.605)" fill="#e8c347"/>
      <path id="Path_192" data-name="Path 192" d="M86.78,28.785c.073,0,1.258-.337,3.054-.96a39.014,39.014,0,0,0,2.549-3.745,44.691,44.691,0,0,1-5.6,4.7Z" transform="translate(-38.057 -10.56)" fill="#e8c347"/>
      <path id="Path_193" data-name="Path 193" d="M86.59,24.507c.067,0,1.5-.455,3-1.022a37.935,37.935,0,0,0,2.285-3.8A39.566,39.566,0,0,1,86.59,24.507Z" transform="translate(-37.974 -8.635)" fill="#e8c347"/>
      <path id="Path_194" data-name="Path 194" d="M86.67,19.843a28.4,28.4,0,0,0,2.847-1.319,34.995,34.995,0,0,0,1.757-4A37.657,37.657,0,0,1,86.67,19.843Z" transform="translate(-38.009 -6.368)" fill="#e8c347"/>
      <path id="Path_195" data-name="Path 195" d="M86.65,41.426c.073,0,1.28-.213,3.127-.668a41.131,41.131,0,0,0,2.886-3.5,43.542,43.542,0,0,1-6.013,4.166Z" transform="translate(-38 -16.34)" fill="#e8c347"/>
      <path id="Path_196" data-name="Path 196" d="M86.5,45.33c.073,0,1.286-.163,3.155-.561A40.683,40.683,0,0,0,92.682,41.4,44.141,44.141,0,0,1,86.5,45.33Z" transform="translate(-37.934 -18.156)" fill="#e8c347"/>
      <path id="Path_197" data-name="Path 197" d="M86.76,48.834c.073,0,1.291-.124,3.167-.449A40.622,40.622,0,0,0,93.071,45.1a44.417,44.417,0,0,1-6.311,3.734Z" transform="translate(-38.048 -19.778)" fill="#e8c347"/>
      <path id="Path_198" data-name="Path 198" d="M86.24,52.5c.073,0,1.3-.062,3.183-.286a40.691,40.691,0,0,0,3.29-3.122A43.7,43.7,0,0,1,86.24,52.5Z" transform="translate(-37.82 -21.528)" fill="#e8c347"/>
      <path id="Path_199" data-name="Path 199" d="M86.24,56.383c.073,0,1.3-.084,3.178-.354a39.6,39.6,0,0,0,3.228-3.189,44.069,44.069,0,0,1-6.406,3.543Z" transform="translate(-37.82 -23.173)" fill="#e8c347"/>
      <path id="Path_200" data-name="Path 200" d="M85.24,59.9c.073,0,1.3,0,3.195-.163a40.049,40.049,0,0,0,3.408-2.987A44.125,44.125,0,0,1,85.24,59.9Z" transform="translate(-37.382 -24.888)" fill="#e8c347"/>
      <path id="Path_201" data-name="Path 201" d="M83.52,63.877c.073,0,1.3.073,3.2.045a41.7,41.7,0,0,0,3.6-2.762A44.124,44.124,0,0,1,83.52,63.877Z" transform="translate(-36.627 -26.822)" fill="#e8c347"/>
      <path id="Path_202" data-name="Path 202" d="M81.26,67.244c.067,0,1.291.14,3.195.208a40.092,40.092,0,0,0,3.728-2.571,44.142,44.142,0,0,1-6.923,2.364Z" transform="translate(-35.636 -28.453)" fill="#e8c347"/>
      <path id="Path_203" data-name="Path 203" d="M79.29,70.585c.067,0,1.286.152,3.189.241A40.844,40.844,0,0,0,86.241,68.3a45.225,45.225,0,0,1-6.951,2.285Z" transform="translate(-34.772 -29.953)" fill="#e8c347"/>
      <path id="Path_204" data-name="Path 204" d="M76.05,74.007c.067,0,1.269.258,3.155.505a41.017,41.017,0,0,0,3.93-2.212,44.354,44.354,0,0,1-7.086,1.707Z" transform="translate(-33.352 -31.707)" fill="#e8c347"/>
      <path id="Path_205" data-name="Path 205" d="M71.75,77.527c.067,0,1.258.309,3.139.629a40.767,40.767,0,0,0,4.037-2.066,43.749,43.749,0,0,1-7.175,1.437Z" transform="translate(-31.466 -33.369)" fill="#e8c347"/>
      <path id="Path_206" data-name="Path 206" d="M67.87,80.382c.062.034,1.23.415,3.071.893a40.212,40.212,0,0,0,4.2-1.684,43.838,43.838,0,0,1-7.271.792Z" transform="translate(-29.764 -34.904)" fill="#e8c347"/>
      <path id="Path_207" data-name="Path 207" d="M86.78,36.881c.073,0,1.55-.258,3.1-.64a35.932,35.932,0,0,0,2.762-3.481,39.464,39.464,0,0,1-5.867,4.121Z" transform="translate(-38.057 -14.367)" fill="#e8c347"/>
      <path id="Path_208" data-name="Path 208" d="M86.78,32.759c.073,0,1.252-.2,3.071-.64a35.012,35.012,0,0,0,2.616-3.509,37.466,37.466,0,0,1-5.687,4.149Z" transform="translate(-38.057 -12.547)" fill="#e8c347"/>
      <path id="Path_209" data-name="Path 209" d="M86.7,14.851c.314-.118,2.2-1.336,2.633-1.628A33.536,33.536,0,0,0,90.456,9.04,34.4,34.4,0,0,1,86.7,14.851Z" transform="translate(-38.022 -3.964)" fill="#e8c347"/>
      <path id="Path_210" data-name="Path 210" d="M86.79,10.089a29.066,29.066,0,0,0,2.246-1.853A28.257,28.257,0,0,0,89.39,4.16a29.094,29.094,0,0,1-2.6,5.929Z" transform="translate(-38.062 -1.824)" fill="#e8c347"/>
      <path id="Path_211" data-name="Path 211" d="M86.86,6.395A20.4,20.4,0,0,0,88.466,4.1,17.7,17.7,0,0,0,87.618,0a22.414,22.414,0,0,1-.758,6.395Z" transform="translate(-38.092 0)" fill="#e8c347"/>
    </g>
  </g>
</svg>
