<svg xmlns="http://www.w3.org/2000/svg" viewBox="0 0 383.31 383.52"><g id="Layer_2" data-name="Layer 2"><g id="Layer_1-2" data-name="Layer 1"><path d="M169.22,383.52c-6.44-.51-12.89-1-19.33-1.54-36.1-3.07-71.63-8.77-105.24-23.1C31.38,353.22,18.94,346.19,9.41,335c-12.67-14.94-12.53-33.4.32-48.25A79.13,79.13,0,0,1,33,268.8a11.1,11.1,0,0,1,14.91,4.39c3,5.22,1.43,11.58-3.67,15.14s-10.53,6.77-15.1,10.91c-8.78,7.93-8.7,15.28-.17,23.6,9.21,9,20.75,14.12,32.56,18.53,22.73,8.47,46.36,13.12,70.38,16a487.84,487.84,0,0,0,86.62,2.88c35.66-2,70.87-6.73,104.56-19.43,10.29-3.87,20.18-8.56,28.72-15.66,11.73-9.76,11.91-18.06.29-28a97,97,0,0,0-11.67-8c-6.21-3.88-8.31-10.18-5.07-15.92s10.06-7.32,16.53-3.65c8.64,4.89,17,10.39,22.69,18.56,3.7,5.28,5.86,11.62,8.71,17.49V316.9a50.76,50.76,0,0,1-16.92,25.64c-10.89,9-23.37,15.07-36.47,19.95-31.48,11.71-64.27,17-97.6,19.53-6.06.46-12.12,1-18.18,1.5Z"/><path d="M191.86,0c51.08.3,95.21,38,103.07,88,2.83,18-.4,34.86-6.5,51.58-11.82,32.39-27.93,62.7-44.81,92.63-8.57,15.18-17.5,30.15-26.48,45.09-12.6,20.94-38.28,20.88-51-.06-22.7-37.48-44.69-75.36-62.41-115.53-6.38-14.46-12.33-29.13-15.21-44.74-3.5-19-.27-37.32,7.74-54.59,15.95-34.37,43-54.61,80.32-61.08C181.62.39,186.78.4,191.86,0Zm0,55.64a42.09,42.09,0,0,0-42.13,41.61c-.14,22.86,18.71,41.91,41.71,42.15,22.76.23,42-18.82,42.13-41.73A42.08,42.08,0,0,0,191.89,55.64Z"/><path d="M296.23,293.42c-15.72-11.59-33.81-14-52.12-17.67,4-6.71,7.74-13.2,11.66-19.59.34-.55,1.73-.8,2.53-.65,16,3,31.65,6.85,45.57,15.66,7.12,4.51,13,10.18,14.34,19.09,1.18,7.61-1.36,14-6.57,19.41-7.95,8.26-18.21,12.51-28.79,15.93-17,5.5-34.54,8.34-52.3,10.06A387.39,387.39,0,0,1,170.78,337c-27.78-1.62-55.42-4.52-81.27-15.81a62.93,62.93,0,0,1-17.6-11.63c-9.75-9.13-9.51-22.2-.27-32,7.23-7.65,16.58-11.89,26.31-15.09,8.26-2.71,16.79-4.55,25.19-6.82,2.72-.74,4.45-.21,5.92,2.6,3.05,5.84,6.61,11.41,10.17,17.44-18,3.76-36.3,6-51.41,17.23l-.36,1.46c4.18,2.29,8.2,4.94,12.57,6.78,14,5.88,28.77,8.52,43.71,10.61a354.47,354.47,0,0,0,61.94,2.82c24.44-.87,48.71-3.33,72.05-11.25a107.44,107.44,0,0,0,13.23-6C292.68,296.52,294.09,295.06,296.23,293.42Z"/></g></g></svg>