<svg xmlns="http://www.w3.org/2000/svg" viewBox="0 0 408.51 269.82"><g id="Layer_2" data-name="Layer 2"><g id="Layer_1-2" data-name="Layer 1"><path d="M0,215.54q73.44,0,146.87,0H408.51V239.7c-7.23,0-14.51.32-21.74-.12-4.44-.28-6.59,1.17-8.15,5.29-2.67,7.07-6.19,13.81-8.94,20.84-1.29,3.31-3.1,4.11-6.49,4.1q-92.79-.17-185.58-.08-66.26,0-132.5.09c-3.19,0-4.69-1-5.86-3.84-3-7.35-6.61-14.49-9.47-21.91-1.4-3.64-3.39-4.57-7-4.46-7.57.22-15.15-.05-22.73-.12Z"/><path d="M22.5,191.46C41.39,108.35,91.87,58,174.59,39.41c-2.89-14.29.92-26.49,13.8-34.52,11.18-7,22.85-6.38,33.71,1.05s15.06,19.93,12,33.44c82.69,18.42,133.3,68.84,152.22,152.08Z"/></g></g></svg>