<svg xmlns="http://www.w3.org/2000/svg" viewBox="0 0 383.32 383.25"><g id="Layer_2" data-name="Layer 2"><g id="Layer_1-2" data-name="Layer 1"><path d="M383.32,108.53c-2,8.18-4.91,15.9-10.93,22.07-11.77,12-26,16.19-42,11.31s-26-16.22-28.64-33.08c-3.43-22.07,11.53-43.09,32.79-46.63,22.95-3.82,43.61,10.25,48.07,32.71a9.13,9.13,0,0,0,.71,1.65Z"/><path d="M4.56,383.25C-1,380.22,0,375.08.22,369.71c1.34-.07,2.65-.18,4-.18H379.61c1.24,0,2.47.16,3.71.24v13.48Z"/><path d="M327.19,267.11c17,29.55,33.95,58.86,51.11,88.6H5.11c17.1-29.66,34-59,51.2-88.79,8.14,6.9,17.7,6.94,27.36,6.81,14-.2,28,.23,41.89-.48,12.69-.65,21.8-11.91,21.24-24.84-.5-11.79-11.34-22.24-23.44-22.37-11.6-.13-23.2,0-34.8,0-4.44,0-6.56-3.63-4.35-7.48,4.26-7.46,8.64-14.85,12.84-22.34a8.08,8.08,0,0,1,7.82-4.59q86.82.09,173.63,0a8.11,8.11,0,0,1,7.83,4.58c4.21,7.49,8.59,14.89,12.86,22.34,2.21,3.86.09,7.48-4.36,7.49-11.48,0-22.95-.05-34.43,0-11.9.09-22.44,9.59-23.77,21.27a23.89,23.89,0,0,0,17.88,25.57,23.08,23.08,0,0,0,5.54.73c16.34.05,32.68.2,49-.06C316.63,273.41,319.31,272.09,327.19,267.11Z"/><path d="M16.8,308.39C10.51,303,7,296.6,6.94,288.93c-.19-33.05-.28-66.11,0-99.16.15-17.11,15.17-31.64,32.59-32.47s33.33,12.1,35.3,29.35c.73,6.46.12,13.08.12,20a23,23,0,0,1-1.67-2.23c-2.76-4.73-5.38-9.54-8.22-14.23-2.17-3.56-6-4.51-9.34-2.57a6.41,6.41,0,0,0-2.37,9.09Q63.61,215,74.15,233.05c2.77,4.72,7.37,6.48,12.7,6.48,11.6,0,23.2,0,34.8,0,6.75,0,11.67,4.46,11.64,10.46s-4.64,10.16-11.46,10.18c-15.22.06-30.44,0-45.65,0-7.11,0-12.31-3.09-15.83-9.35C52.84,237.5,45.18,224.24,37.58,211l-.36-.66c-3-5.21-6.58-6.86-10.43-4.78s-4.36,6.07-1.39,11.29q7.68,13.47,15.33,26.95c2.19,3.89,5.91,7.83,6,11.77,0,3.77-3.78,7.6-6,11.37C32.84,280.59,24.94,294.28,16.8,308.39Z"/><path d="M308.12,207.59c-.78-15.48-1.43-29.88,10.62-40.79,10.76-9.76,23.23-12.38,36.68-6.7s20.84,16.32,21,30.85c.38,32.3.18,64.6.08,96.91,0,8.12-3.39,14.88-9.81,20.46-.79-1.27-1.45-2.26-2.05-3.29-9-15.52-17.88-31.08-27-46.53-1.4-2.38-1.26-4.09.09-6.4,7.16-12.25,14.18-24.59,21.16-36.95,2.16-3.82,1.06-7.84-2.34-9.66s-7-.66-9.26,2.91c-.54.84-1,1.71-1.51,2.57-7.42,13-15,25.85-22.19,39-4,7.28-9.76,10.43-17.93,10.32-14.34-.18-28.69,0-43-.08a19.09,19.09,0,0,1-6.22-.9,10.05,10.05,0,0,1-6.26-11.14,10.84,10.84,0,0,1,10.42-8.57c11.6-.08,23.2-.14,34.8,0,7.08.1,12-2.75,15.44-9,6.09-11.14,12.53-22.1,18.84-33.11,1.5-2.61,1.73-5.15-.05-7.71s-4.21-3.45-6.85-2.56a9.94,9.94,0,0,0-4.75,3.71c-2.73,4.15-5,8.6-7.5,12.92C310,204.81,309.3,205.76,308.12,207.59Z"/><path d="M137,177.89c0-1.54,0-2.87,0-4.21,0-15.09-.17-30.19.14-45.28.36-17.88,15.5-32.48,33.42-32.57q21.33-.1,42.66,0c17.65.1,32.78,14.78,33.13,32.48.31,15.84.12,31.68.13,47.53a19.66,19.66,0,0,1-.2,2H232.76v-4.1q0-20.38,0-40.79a23.49,23.49,0,0,0-.1-3.36c-.59-4-3.28-6.35-7.09-6.2s-6.24,2.71-6.26,6.91c-.07,14.22,0,28.44,0,42.66v4.78H164.13v-3.95q0-20.77,0-41.54c0-6.09-2.06-8.83-6.59-8.86s-6.89,3-6.9,9.11q0,20.58,0,41.16v4.21Z"/><path d="M41.12,143.71a41.13,41.13,0,0,1,0-82.26,41.13,41.13,0,1,1,0,82.26Z"/><path d="M150.56,40.81a41.14,41.14,0,1,1,40.89,41.45A41.05,41.05,0,0,1,150.56,40.81Z"/></g></g></svg>