<svg xmlns="http://www.w3.org/2000/svg" viewBox="0 0 268.27 230.06"><g id="Layer_2" data-name="Layer 2"><g id="Layer_2-2" data-name="Layer 2"><path d="M134.3,0q56.49,0,113,0c10.66,0,18,5.35,20.41,14.64A19,19,0,0,1,252.37,38a35.94,35.94,0,0,1-5.58.4q-112.6,0-225.22,0c-10.91,0-18.24-5-20.81-14.11A19,19,0,0,1,16.11.4,43.26,43.26,0,0,1,22.45,0Q78.37,0,134.3,0Z"/><path d="M133.94,230.06q-56.49,0-113,0C10.48,230,3.17,224.8.7,215.71A19,19,0,0,1,16,192a37.21,37.21,0,0,1,5.58-.39q112.6,0,225.22,0c10.92,0,18.21,5,20.76,14.16a19,19,0,0,1-15.41,23.87,43.13,43.13,0,0,1-6.33.38Q189.86,230.07,133.94,230.06Z"/><path d="M76.51,134.24c-18.59,0-37.17,0-55.76,0-10.47,0-18-5.64-20.23-14.9A19.07,19.07,0,0,1,15.84,96.24a27.9,27.9,0,0,1,4.46-.4q56.33,0,112.65,0c11.09,0,18.9,6.78,20.18,17.1a18.91,18.91,0,0,1-15.65,20.86,37,37,0,0,1-5.95.42Q104,134.28,76.51,134.24Z"/></g></g></svg>