<svg xmlns="http://www.w3.org/2000/svg" viewBox="0 0 299.25 256.37"><g id="Layer_2" data-name="Layer 2"><g id="Layer_1-2" data-name="Layer 1"><path d="M130.8,37.73c-1.53-.37-3-.69-4.39-1.07-8.75-2.33-15-11.11-14-19.67C113.65,6.81,120.91.2,131,.18c12.47,0,25,.47,37.41-.16C178.79-.51,186,9,186.93,16.16a18.73,18.73,0,0,1-14,20.65l-4,1c0,5.61-.12,11.32.05,17,.08,2.91,2.6,3.29,4.83,3.73C190.36,61.84,205.89,67.7,220,77c33.41,22.13,53.45,52.93,59.11,92.73a121.58,121.58,0,0,1,.7,19.75c-.17,8-7.32,15.11-15.29,15.77-1.74.14-3.49.15-5.24.15H38.45c-12.41,0-19.61-7.35-19.75-19.66-.64-53.66,37.17-110.49,98.46-125.64q4.89-1.22,9.81-2.27c2.36-.5,3.83-1.72,3.83-4.28ZM237.25,170.65a18.44,18.44,0,0,0-.15-2c-3.58-23.31-14.14-42.92-31.95-58.33-5.79-5-12.42-9.14-19-13.11a6.55,6.55,0,0,0-10.07,5c-.27,3.53,1.79,5.65,4.78,7.3,16.43,9.1,29,22,36.4,39.29,3.05,7.11,4.58,14.91,6.4,22.49,1.16,4.81,3.79,7.55,8,7.08C235.27,178,237.38,175.2,237.25,170.65Z"/><path d="M150,256.15H18.64c-7.25,0-12.83-3.07-16.23-9.43-3.58-6.7-3.12-13.49,1-19.84,3.31-5.09,8.24-7.36,14.28-7.39,23.44-.11,46.89-.32,70.33-.35q95.21-.12,190.41-.12c9.95,0,18.36,5.95,20.34,14.34,2.76,11.73-6.75,23.14-17.89,23C237.24,255.84,193.59,256.15,150,256.15Z"/></g></g></svg>