<svg xmlns="http://www.w3.org/2000/svg" viewBox="0 0 383.26 259.45"><g id="Layer_2" data-name="Layer 2"><g id="Layer_1-2" data-name="Layer 1"><path d="M383.26,23.44V236c-1.44,3.42-2.46,7.11-4.4,10.21-6.05,9.64-15.16,13.23-26.36,13.22q-160.92-.13-321.84-.06c-1.38,0-2.75-.06-4.12-.12A27.77,27.77,0,0,1,0,231.7q-.06-102,.1-204A27.86,27.86,0,0,1,3,15.93C8.6,4.41,18.41,0,31,0Q191.59.17,352.13.07c1.62,0,3.24.08,4.87.13a26.24,26.24,0,0,1,14.55,5.14C377.93,9.78,381.2,16.21,383.26,23.44ZM68.49,129.93c7.86,0,15.71,0,23.57,0,6.41,0,9.45-2.92,9.52-9.3q.15-16.64,0-33.28C101.51,81,98.36,78,92,78q-23.39,0-46.76,0c-6.47,0-9.4,2.9-9.41,9.33q0,16.64,0,33.28c0,6.26,2.87,9.22,9.06,9.27C52.78,130,60.64,129.93,68.49,129.93Zm43.17,92h65.05c7.22,0,11.12-2.87,11.07-8.12s-3.95-8-11.22-8H46.82a33.15,33.15,0,0,0-4.11.15,8,8,0,0,0-6.59,10.2c1.08,3.64,4.13,5.74,8.61,5.75Q78.2,221.93,111.66,221.91ZM294.49,64.69q21.67,0,43.36,0c5.79,0,9.33-2.9,9.53-7.69.2-5.11-3.19-8.53-9.11-8.55q-43.74-.13-87.47,0a12.32,12.32,0,0,0-5.66,1.5c-3,1.69-4.26,5.84-3.18,9.21a8.11,8.11,0,0,0,8,5.49C264.83,64.71,279.66,64.68,294.49,64.69Zm-9.9,120.54c6.23,0,12.45.05,18.68,0,5.05-.06,8.53-3.28,8.69-7.85a8,8,0,0,0-8.3-8.24q-18.86-.26-37.73,0a8.09,8.09,0,0,0-8.34,8.22c.14,4.51,3.71,7.81,8.69,7.87C272.38,185.28,278.49,185.23,284.59,185.23Zm-74,0c6.22,0,12.45.05,18.68,0,5-.05,8.56-3.32,8.74-7.81a8,8,0,0,0-8.26-8.27q-18.87-.27-37.73,0c-5.1.07-8.38,3.59-8.3,8.18s3.47,7.86,8.56,7.92C198.4,185.28,204.5,185.23,210.61,185.23Zm-73.78,0c6.1,0,12.2,0,18.3,0,5.32-.05,8.81-3.26,8.85-8s-3.14-8-8.34-8.12q-18.66-.24-37.35,0c-5.43.06-8.53,3.4-8.4,8.36.13,4.69,3.41,7.7,8.63,7.75C124.62,185.27,130.73,185.23,136.83,185.23Zm-74.07,0c6.22,0,12.45.05,18.67,0,5.15-.06,8.45-3.17,8.52-7.87s-3-8.15-8.15-8.22q-18.87-.26-37.73,0c-5.17.07-8.28,3.5-8.19,8.23s3.48,7.8,8.57,7.86C50.55,185.28,56.66,185.22,62.76,185.23Z"/></g></g></svg>