<svg xmlns="http://www.w3.org/2000/svg" viewBox="0 0 255.9 319.67"><g id="Layer_2" data-name="Layer 2"><g id="Layer_1-2" data-name="Layer 1"><path d="M0,159.84Q0,96.42,0,33C.05,17.1,9.89,4.53,25.13,1A43.09,43.09,0,0,1,34.77.1C75.19,0,115.6.09,156,0a8.8,8.8,0,0,1,6.84,2.92Q208,48.24,253.37,93.41a8,8,0,0,1,2.53,6.21q-.1,93.18-.06,186.37c0,16.65-9.81,29.38-25.45,32.88a42.4,42.4,0,0,1-9.29.76q-93.18.08-186.37,0c-17.14,0-29.62-8.91-33.52-24.11A42.7,42.7,0,0,1,.06,285.21Q-.06,222.52,0,159.84Zm221.92-48L144.29,34.14V111.8ZM103.42,193.12v63.3c7.21,0,14.18.25,21.13,0,20.85-.86,32.45-10.77,34.48-30,1.64-15.44-4.87-28.13-20.49-32.54C127.06,190.6,115.36,191.83,103.42,193.12ZM62.07,255.67v-22c5.12-.44,9.74-.46,14.21-1.29,11.34-2.11,17.51-9.9,17.33-21.3-.15-9.92-6.35-17-17.53-18.29-7.84-.88-15.87,0-23.81-.14-3.3,0-4.17,1.18-4.14,4.4.14,18.32.06,36.64.08,55,0,1.19.15,2.37.24,3.64Zm143.74-37H183.59V203.94h23.75V192.63H169.25v62.89h14.24V230.26h22.32Z"/><path d="M117.62,244.86V203.67c9.11-2.46,18.38.11,22.82,6.25,4.9,6.78,5,19.44.25,27C136.37,243.75,127.66,246.81,117.62,244.86Z"/><path d="M62.19,221.93c0-5.71-.11-11.18.11-16.64a3.45,3.45,0,0,1,2.32-2.46,32.45,32.45,0,0,1,8.47.53,7.72,7.72,0,0,1,6.33,7c.56,4-.34,7.56-3.83,9.83C71.55,222.8,67.06,223.13,62.19,221.93Z"/></g></g></svg>