<svg xmlns="http://www.w3.org/2000/svg" viewBox="0 0 174.39 206.98" fill="#fff">
    <g id="Layer_2" data-name="Layer 2">
        <g id="Layer_1-2" data-name="Layer 1">
            <path d="M98.29,207c-7.51-1.35-15.1-2.38-22.52-4.15a99.51,99.51,0,0,1-28.15-11.71,3.7,3.7,0,0,1-1.74-2.67c1-13.58,4.67-26.33,13.31-37,3.66-4.54,8.28-8.33,12.71-12.16,1.54-1.33,2.56-2.38,2.68-4.53.44-8.33.73-16.8,4.57-24.4a26.9,26.9,0,0,1,7.14-8.44c2.64-2.13,4.83-.94,5.35,2.53,1,6.41,3,12.2,7.25,17.25a10.63,10.63,0,0,0,7.67,3.89c7.92.83,15.42,3.16,21.95,7.92,3.58,2.61,6.42,5.82,7.35,10.36,1.61,7.89,6.72,13.64,11.83,19.38.81.92,1.68,1.78,2.57,2.62,2.13,2,2.36,4,.57,6.47-2,2.77-3.89,5.68-5.79,8.56-2.62,4-6.51,5.53-11,6.84-9.12,2.66-18.09,5.84-27,9.17-1.32.49-2.3,2.81-2.73,4.47s-.08,3.76-.07,5.65Zm25.34-60.32c-3.64.13-4.88,1.56-4.88,3.84s1.27,3.76,3.71,3.74,4.19-1.51,3.74-3.91C125.92,148.79,124.26,147.51,123.63,146.66Z"/>
            <path d="M75.36,1.15C81.94-.63,88.11,0,94.24.83c12.13,1.68,23.2,6.66,34.09,11.87,2.75,1.31,5,4.28,6.68,7a6.39,6.39,0,0,0,4.31,3.44c7.66,1.81,15.3,3.66,22.94,5.5,11.59,2.8,13.75,6.43,11.14,18.06-3.64,16.21-13.68,26.94-28.65,33.08-6.09,2.51-12.64,4-19.08,5.52-6.14,1.46-8.83,4.45-9.39,11.12-.64,7.52-1.47,15-2.22,22.51-9.93.23-16-5.08-17.07-14.8a27.19,27.19,0,0,0-.6-3.61c-1.47-5.71-6.26-8.25-11.78-6.16-6.84,2.6-10.54,8.22-12.3,14.81-1.85,6.93-2.6,14.14-4,21.2a6.16,6.16,0,0,1-1.92,3.5c-15.91,12.25-24.06,28.67-26.22,48.38-.08.66-.15,1.33-.27,2s-.31,1.27-.72,2.91C33,181.61,27,176.71,21.54,171.27a107,107,0,0,1-21.1-30.2,7.09,7.09,0,0,1,0-4.87c1.5-4.38,4.35-7.7,7.94-10.79,9.64-8.31,18-17.76,23.86-29.29,4.24-8.35,4.34-17.35,4.68-26.34.05-1.3,0-2.6,0-4.09C41.36,69,45.3,72.35,49.71,75c13.81,8.23,28.54,9,43.63,4.24,4.52-1.42,7.41-5,7.13-9.81A114,114,0,0,0,97.87,49C94.38,34.9,88,22,80.43,9.55,78.82,6.9,77.23,4.24,75.36,1.15Zm47.53,34.1,0-1.6c-1.41-1-2.69-2.7-4.25-3-2.45-.5-3.9,1.26-3.93,3.73s1.43,4,3.72,3.61C120.05,37.7,121.42,36.2,122.89,35.25Z"/>
            <path d="M68.16,3c11.66,18.2,22.3,36.62,25.11,58.18,1.46,11.22,1.52,11.3-9.45,13.18-18.47,3.18-33.28-3.59-44.91-17.94A3.58,3.58,0,0,1,38,54.1c1.34-10.94,3.1-21.83,8.23-31.75C50.93,13.28,58.73,7.51,68.16,3Z"/>
        </g>
    </g>
</svg>
