<svg xmlns="http://www.w3.org/2000/svg" viewBox="0 0 340.79 408.79"><g id="Layer_2" data-name="Layer 2"><g id="Layer_2-2" data-name="Layer 2"><path d="M63,408.79c-4.64-1-9.35-1.67-13.91-3C20,397.63,1.55,375.17.27,344.59c-1.33-31.6,2.14-62.73,14.14-92.32,7.75-19.09,19-35.62,37.88-45.7a74.51,74.51,0,0,1,37.18-8.93c4.12.09,8.45,2.17,12.21,4.21,6.06,3.3,11.68,7.39,17.56,11q51.29,31.66,102.56-.08c4.74-2.94,9.59-5.77,14-9.11,8.18-6.13,17.18-6.9,26.89-5.47,26.52,3.9,45.24,18.42,57.87,41.59C331.87,260.49,337,283,339.2,306.1a329.7,329.7,0,0,1,1.57,35.83c-.43,35.66-24.91,62.2-60.38,66.11a16.22,16.22,0,0,0-2.59.75Z"/><path d="M266.4,98.3c.37,53.86-44.09,98.55-98.26,98.7S69.39,152.52,69.36,98.8A98.52,98.52,0,0,1,167.44,0C221.9-.4,266.07,43.47,266.4,98.3Z"/></g></g></svg>