<svg xmlns="http://www.w3.org/2000/svg" viewBox="0 0 288.06 288.37"><g id="Layer_2" data-name="Layer 2"><g id="Layer_1-2" data-name="Layer 1"><path d="M225.5,25.85c-.57-3.55-1.62-6.83-1.52-10.08C224.21,7.53,230,1.52,238.45.17,245.52-1,253.18,3.57,255.76,11q8.39,24.14,16.2,48.46a17.17,17.17,0,0,1,.29,8.4,15.61,15.61,0,0,1-15.49,12.71q-24.37.2-48.75,0a16.1,16.1,0,0,1-15.77-12.5c-1.78-7.31,2-14.2,11.09-19-7.12-3.33-13.42-6.83-20.09-9.32C118,15.29,46.41,55.79,33.8,124.17c-11.18,60.65,29.47,119.08,90.52,130.1C183.9,265,242.09,225.46,253.48,166.22c1.38-7.17,1.76-14.56,2.24-21.87.57-8.56,6.3-15,14.54-15.9s15.7,4.19,17.22,12.22a49.32,49.32,0,0,1,.24,13.41c-4.76,51.45-29.28,90.54-74.25,116.3-25.28,14.47-52.88,19.72-81.84,17.49C68.94,283.05,15.12,235.24,2.92,173.78c-15-75.7,29.3-147.89,103.87-168,40.82-11,79.35-4.37,115.19,17.93Z"/></g></g></svg>