<svg xmlns="http://www.w3.org/2000/svg" viewBox="0 0 323.41 323.44"><g id="Layer_2" data-name="Layer 2"><g id="Layer_1-2" data-name="Layer 1"><path d="M232.57,216.94a16.46,16.46,0,0,1,3.41,2.11q41.34,41.22,82.62,82.5c3.75,3.73,5.77,7.86,4.36,13.08a12,12,0,0,1-19.47,5.85c-1-.89-2-1.9-3-2.87q-40.75-40.74-81.47-81.53a19,19,0,0,1-2.22-3.37c-63.53,52.19-148.27,33-188.9-19.66-41-53.08-36.49-128.24,11-174.79C87.48-9.35,162.61-12.84,215,29.56S283.16,155,232.57,216.94ZM131.75,24C72.6,24,24,72.54,23.93,131.73S72.49,239.51,131.68,239.56,239.47,191,239.5,131.8,191,24,131.75,24Z"/></g></g></svg>