<svg xmlns="http://www.w3.org/2000/svg" viewBox="0 0 382.92 383.25"><g id="Layer_2" data-name="Layer 2"><g id="Layer_1-2" data-name="Layer 1"><path d="M167.35,383.25c0-33.8,0-67.61-.07-101.41a12.28,12.28,0,0,1,2.64-7.82q68.67-92.47,137.22-185a3.24,3.24,0,0,0,.71-1.85c-1.06.92-2.14,1.81-3.15,2.76q-90.1,84.47-180.17,169c-1.45,1.35-2.6,2.16-4.83,1.32Q61,238.28,2.18,216.55c-.56-.21-1.11-.45-2.18-.88,1.21-.83,2-1.48,2.91-2L381.26.83c.54-.3,1.11-.55,1.66-.83V3c-.21.29-.57.55-.62.87Q372.46,58.93,362.67,114q-9.17,51.39-18.38,102.79-8.79,49.2-17.55,98.39c-1.2,6.69-2.43,13.37-3.68,20.22-28.2-10.43-55.95-20.65-83.66-31-2.47-.92-3.85-.68-5.61,1.38q-30.54,35.88-61.26,71.61c-1.59,1.86-3,3.9-4.44,5.85Z"/></g></g></svg>