<svg xmlns="http://www.w3.org/2000/svg" viewBox="0 0 276.96 382.26"><g id="Layer_2" data-name="Layer 2"><g id="Layer_1-2" data-name="Layer 1"><path d="M171.84,355,144.55,379.2c-4.63,4.1-6.92,4.07-11.6-.09L105.81,355,87.92,370.81C84.46,373.86,81,377,77.53,380s-6.19,3.05-9.85-.19c-9.26-8.15-18.5-16.32-28-24.73L17.82,374.35c-2.34,2.06-4.45,4.5-7.09,6.06-1.81,1.07-4.73,1.83-6.44,1.08S1.83,378,.73,376c-.21-.38,0-1,0-1.48Q.35,204.49,0,34.41C0,17.59,10.8,4.21,27.25.76A43.56,43.56,0,0,1,36.18.15C104.4.12,172.63.32,240.85,0c20.08-.09,33.5,13.62,35.74,29a42.28,42.28,0,0,1,.33,6q0,169.7,0,339.39c0,3.05-.3,5.88-3.35,7.28s-5.66,0-8.07-2.13c-9.08-8.16-18.26-16.2-27.57-24.43-9.21,8.12-18.27,16.1-27.31,24.09-4.68,4.15-6.86,4.2-11.58,0C190,371.16,181,363.12,171.84,355Zm-33-313.63c-25.43,0-50.86-.12-76.29.15a19,19,0,0,0-9.92,3.29c-4.85,3.31-6.26,10-4.27,15.46,2.21,6.1,7.43,9.51,15,9.51q75.16,0,150.35,0a20.07,20.07,0,0,0,6.57-1.08c6.65-2.33,10.17-9,8.85-16.19A13.79,13.79,0,0,0,215.47,41.4Q177.13,41.34,138.8,41.38ZM105.54,274.23H56.2c-3,0-6-.11-9,0a5.57,5.57,0,0,0-5.53,5.45c-.15,3.37,1.73,5.57,5.26,6a35.21,35.21,0,0,0,4.11.14q54.37,0,108.77,0a25.91,25.91,0,0,0,4.83-.29,5.23,5.23,0,0,0,4.48-5.21c.27-3.79-2.46-6.11-7.17-6.12Zm-.39-99.42q28.62,0,57.25,0c4.13,0,6.57-2,6.77-5.35.21-3.69-2.38-6-6.83-6q-30.3,0-60.62,0c-17.71,0-35.43,0-53.14,0-2.71,0-5,.56-6.31,3.07-2.21,4.14.77,8.36,6,8.37C67.22,174.84,86.19,174.81,105.15,174.81Zm.15-55.42h55.39a17.13,17.13,0,0,0,3.73-.12c3.05-.67,4.84-2.64,4.71-5.82a5.28,5.28,0,0,0-5.07-5.45,20.74,20.74,0,0,0-2.62-.07H49.17a19.07,19.07,0,0,0-2.62.08,5.18,5.18,0,0,0-4.83,5.25c-.25,3.83,2.21,6.11,6.7,6.12Q76.86,119.43,105.3,119.39Zm.22,99.42H63.61c-5.37,0-10.76-.32-16.08.18a7.53,7.53,0,0,0-5.32,3.63c-.69,1.56.17,4.44,1.33,6,.86,1.16,3.3,1.6,5,1.6q56.88.14,113.77.06a11.66,11.66,0,0,0,1.87-.09c3.17-.51,4.87-2.48,4.91-5.61s-1.8-5.07-4.86-5.69a17.08,17.08,0,0,0-3.36-.09Zm116.53,66.95c2.62,0,5.25.18,7.85-.05,3.56-.3,5.45-2.58,5.31-5.95a5.51,5.51,0,0,0-5.51-5.47c-5.1-.15-10.22-.16-15.33,0a5.54,5.54,0,0,0-5.54,5.85c.17,3.32,2,5.33,5.38,5.58C216.81,285.91,219.44,285.76,222.05,285.76Zm0-111v0h7.1a6.27,6.27,0,0,0,.75,0,5.43,5.43,0,0,0,5.34-5.56c.05-3.13-2-5.65-5.11-5.75-5.36-.17-10.72-.16-16.07,0a5.51,5.51,0,0,0-5.24,5.71,5.59,5.59,0,0,0,5.38,5.58C216.79,174.9,219.41,174.79,222,174.79Zm.22-66.81v0h-7.48a6.28,6.28,0,0,0-.75,0c-3.2.36-4.91,2.28-5.19,5.37a5.39,5.39,0,0,0,5,5.92c5.47.22,11,.21,16.44,0,3.08-.12,5.12-2.8,4.93-5.92s-1.88-5.12-5.09-5.34C227.49,107.84,224.86,108,222.25,108Zm0,122.28c2.49,0,5,.11,7.47,0,3.52-.2,5.55-2.42,5.5-5.76a5.5,5.5,0,0,0-5.71-5.62c-5-.11-10-.12-15,0a5.69,5.69,0,0,0-.15,11.37C217,230.37,219.63,230.26,222.25,230.26Z"/></g></g></svg>