<svg xmlns="http://www.w3.org/2000/svg" viewBox="0 0 293.43 383.46" fill="#fff">
    <g id="Layer_2" data-name="Layer 2">
        <g id="Layer_1-2" data-name="Layer 1">
            <path d="M157.94,383.46c0-19.69,0-39.39.08-59.08a14.93,14.93,0,0,1,1.51-6.36q18.9-38.13,38-76.15c3.25-6.48,6.81-12.83,5-21.06l25.34,8c11.71,3.72,23.42,7.47,35.14,11.16a43.42,43.42,0,0,1,30.36,41.74c.09,33.91.05,67.81.07,101.71H236.54V350H214.83v33.45Z"/>
            <path d="M0,383.46q0-50,.05-99.92c0-22.26,12.09-38,33.35-44.45,17.85-5.38,35.54-11.29,53.31-17,1.16-.37,2.35-.68,4.13-1.19-2.07,9.19,2.7,16.17,6.35,23.47,12.19,24.39,24.43,48.76,36.53,73.2a16.6,16.6,0,0,1,1.68,7.09c.14,19.58.08,39.17.09,58.75H78.6V350H56.89v33.46ZM78.46,304V282.32H41.89V304Z"/>
            <path d="M259.47,180.5H218.16c.8-2.12,1.52-4,2.23-5.93a73,73,0,0,0,5-25.87q0-25.24,0-50.5c0-.86-.08-1.72-.14-2.83-11-2.78-21.94-5.56-32.89-8.3-27.49-6.86-55-13.65-82.47-20.64a6.15,6.15,0,0,0-6.83,1.9c-10.92,11.13-22,22-33,33.18a7.65,7.65,0,0,0-2,4.8c-.16,13.72,0,27.44-.09,41.16a77.21,77.21,0,0,0,6.2,30.13c.32.79.62,1.59,1.06,2.72H34c-.07-1.18-.19-2.27-.19-3.36,0-21.32-.14-42.65,0-64,.39-50,32-92.69,79.57-107.84C173.08-13.85,238.57,21.47,255,82a132.83,132.83,0,0,1,4.39,30.54c.66,21.68.21,43.4.21,65.1C259.62,178.44,259.53,179.29,259.47,180.5Z"/>
            <path d="M90.54,133.83c0-7-1.88-14.7.53-20.71s9.54-9.63,13.77-15c5.21-6.6,10.56-7.71,18.8-5.42,25.11,7,50.53,12.86,75.85,19.09,2.67.65,3.81,1.73,3.74,4.72-.29,11.59.08,23.21-.43,34.79-1.09,24.66-21.64,47.18-46,50.95-32.36,5-60.51-14.93-65.8-47.17-1.14-6.92-.17-14.18-.17-21.28Z"/>
            <path d="M114.69,218.8q32.09,13.53,63.91.08a13.2,13.2,0,0,1-.51,11.39c-10.2,20.86-20.59,41.63-31.19,63-.81-1.39-1.39-2.25-1.86-3.18q-14.26-28.5-28.52-57C114.29,228.61,113,224.05,114.69,218.8Z"/>
        </g>
    </g>
</svg>
