<svg xmlns="http://www.w3.org/2000/svg" viewBox="0 0 403.52 287.5"><g id="Layer_2" data-name="Layer 2"><g id="Layer_1-2" data-name="Layer 1"><path d="M330.43,8.5C327.69-.48,317-2.9,310,4q-9.61,9.48-19.14,19-5.81,5.81-11.55,11.65c-1.58,1.59-3.15,3.2-4.72,4.8a9.3,9.3,0,0,1-.9.82l-.06.05-4.47,4.47L250.41,63.56,227.16,86.81l-17.65,17.65L79.88,234.09l.35.27c-.48.37-1,.75-1.51,1.13a17.86,17.86,0,0,0-1.5,1.26l-.12.11q-15,14.91-29.89,29.9c-4.06,4.1-4.9,9.3-2.54,14.06s7.11,7.63,12.3,6.42a19.4,19.4,0,0,0,8.75-5.11l34-34,18.77-18.73,28.73-28.72q8.83-8.81,17.66-17.64,30.81-30.78,61.6-61.58l17.66-17.65,29.2-29.21,17.46-17.46,1.95-2q16.94-16.94,33.89-33.85C330.35,17.72,332,13.52,330.43,8.5Z"/><path d="M102,220.56c-30.58-17.63-55.71-41.83-76.08-71.37a232.66,232.66,0,0,1,32.94-39.38c26-24.94,55.88-43.15,91.23-51.52,35.8-8.49,70.91-6,105.29,7.08l2,.79,17.82-18.64L272.12,46c-47.69-20.15-96.38-22.61-145.44-6.14C73.22,57.79,33.47,93.2,3.08,140c-4.11,6.32-4.09,12,0,18.32A252.58,252.58,0,0,0,54.27,216.9c9.34,7.79,19.37,14.73,29.79,22.56Z"/><path d="M290.92,88.07c38.94,18,66.32,48.45,86.69,78a232.66,232.66,0,0,1-32.94,39.38c-26,24.94-55.88,43.15-91.23,51.52-35.8,8.49-70.91,6-105.29-7.08l-12.6-7.42-17.93,18.9,13.78,7.9c47.69,20.15,96.38,22.61,145.44,6.14,53.46-17.94,93.21-53.35,123.6-100.1,4.11-6.32,4.09-12,0-18.32-14.12-22.15-30.89-42-51.22-58.63-10.79-8.81-25.1-20.77-40.51-28.92Z"/><path d="M277.73,125.74a70,70,0,0,0-17-17l-17.65,17.65a45.41,45.41,0,0,1,17,17A45.19,45.19,0,0,1,181.45,188l-17.64,17.64a69.57,69.57,0,0,0,113.92-79.88Z"/><path d="M227.16,86.81l-17.65,17.65a45.2,45.2,0,0,0-61.62,61.62l-17.64,17.64a69.57,69.57,0,0,1,96.91-96.91Z"/></g></g></svg>