<svg xmlns="http://www.w3.org/2000/svg" viewBox="0 0 469.41 438.82"><g id="Layer_2" data-name="Layer 2"><g id="Layer_1-2" data-name="Layer 1"><path d="M86.07,283.44c1-6.1,1.8-12.25,3.06-18.3,6.4-30.62,18.25-58.67,39.72-82,16-17.35,35.44-28.75,59.15-31.24,25.89-2.73,49.32,4.07,70,20.17,14.89,11.61,26.57,26.24,38.73,40.46,7.2,8.43,14.68,16.65,22.3,24.71,13,13.75,29.64,20.47,47.73,24.55,17.69,4,35.38,8.09,52.9,12.79,11.94,3.2,23.2,8.27,32.9,16.27,13.87,11.45,18.45,26.44,16.4,43.78-2.76,23.38-16.56,38.84-36.37,49.81-12.4,6.87-25.75,11.2-39.56,14.1-2.88.6-3.51,1.8-3.47,4.47.12,10.47,0,20.95,0,31.43v0a4.28,4.28,0,0,1-4.28,4.28H361.83a4.28,4.28,0,0,1-4.27-4.28V404.61c-53.32,3-106.18,4.33-159.5-1.4v31.33a4.28,4.28,0,0,1-4.28,4.28H170.07a4.28,4.28,0,0,1-4.27-4.28v-.25c0-11.73-.09-23.46.06-35.18,0-2.61-.82-3.6-3.26-4.38-16.54-5.26-31.85-12.83-44.95-24.45-18.29-16.21-28.11-36.72-30.85-60.83a18.61,18.61,0,0,0-.73-2.8Zm65.43,58.91c7.09-1.78,14.16-3.67,21.29-5.34,25.27-5.91,50.78-10.5,76.84-9.93,16.06.35,32.15,1.25,48.13,2.88,20.92,2.14,41.76,5.13,62.6,8,9.05,1.23,18,3,27,4.52a13.42,13.42,0,0,0-3.63-3.18c-32.39-20.91-67.36-35.33-105.54-41.42-15.16-2.42-30.53-4.08-45.79-1.48C200.07,301.87,174.55,319.87,151.5,342.35Z"/><path d="M0,411c3.22-8.77,9.51-14,18.77-14.42,11.07-.54,22.19-.26,33.28-.33h4.88v-271h-14c-.09,1.18-.26,2.33-.27,3.48-.1,13-.23,25.94-.16,38.91a6.42,6.42,0,0,0,2,4.25c5.21,5.91,3.59,14.24-2.05,20.58-3.55,4-3.53,3.42-7.26-.74-5.85-6.54-4.66-12.72,1.67-19.12.85-.86,1.88-2.11,1.89-3.19.12-14.56.08-29.12.08-44.28H.66c3-11.35,5.75-22,8.56-32.66Q20.24,50.5,31.3,8.56C33.23,1.23,34.78,0,42.46,0Q65.53,0,88.6,0c5.21,0,7.57,1.52,8.84,6.33Q113,65.1,128.31,123.87c0,.11-.06.25-.22.85H72.48V396.21c3.66,0,7.24,0,10.81,0,9.36.07,18.73-.08,28.07.35,8.26.38,15.52,6.57,17.87,14.39Z"/></g></g></svg>