<svg xmlns="http://www.w3.org/2000/svg" viewBox="0 0 380.4 380.22"><g id="Layer_2" data-name="Layer 2"><g id="Layer_1-2" data-name="Layer 1"><path d="M380.4,79.47V98c-.59,3-1.12,6-1.8,8.95-9.78,42.46-44.93,70.47-88.55,70.49q-99.87,0-199.75,0a94,94,0,0,1-33-5.86c-40.13-14.79-64.57-59.25-55.39-101S46.83.05,89.61,0Q190.41,0,291.21.09a79.11,79.11,0,0,1,18.4,1.75c35.16,8.53,58.11,30.08,68,65.11C378.77,71.06,379.48,75.29,380.4,79.47ZM355,88.77c.06-34.62-28.6-63.31-63.31-63.39s-63.26,28.53-63.36,63.31c-.11,34.61,28.54,63.29,63.28,63.36S355,123.48,355,88.77Z"/><path d="M79.65,380.22c-4.41-1-8.9-1.72-13.24-3C31.64,367.13,9.49,344.29,2.05,309.07c-10-47.46,19.63-92.57,67-104a84.72,84.72,0,0,1,19.44-2.25q101.7-.24,203.42-.06a88.85,88.85,0,0,1,86.76,70.8c.6,2.86,1.14,5.73,1.7,8.6v18.57c-.59,3-1,6-1.78,8.94-8.85,35.35-30.68,58.17-65.87,68-3.87,1.08-7.87,1.69-11.8,2.52Zm110.72-12.66c32.91,0,65.82.12,98.73-.1a88.1,88.1,0,0,0,20.18-2.23c44.78-11,69.2-57,53.46-100.22-11-30.07-39.47-49.5-73-49.53q-99.46-.1-198.94.05a85.87,85.87,0,0,0-17.3,1.71C36,225.05,9.89,259.67,13.39,297.87c2.27,24.73,14.05,43.86,34.67,57.53,13.06,8.66,27.69,12.13,43.21,12.15Q140.83,367.6,190.37,367.56Z"/><path d="M88.85,354.94a63.45,63.45,0,1,1,63.53-63.46A63.6,63.6,0,0,1,88.85,354.94Zm.05-114a50.79,50.79,0,0,0-50.64,50.49c-.13,27.62,22.53,50.39,50.48,50.72,27.64.33,50.91-22.94,50.74-50.75A50.64,50.64,0,0,0,88.9,240.94Z"/></g></g></svg>