<svg xmlns="http://www.w3.org/2000/svg" viewBox="0 0 380.4 177.5"><g id="Layer_2" data-name="Layer 2"><g id="Layer_1-2" data-name="Layer 1"><path d="M380.4,79.47V98c-.59,3-1.12,6-1.8,8.95-9.78,42.46-44.93,70.47-88.55,70.49q-99.87,0-199.75,0a94,94,0,0,1-33-5.86c-40.13-14.79-64.57-59.25-55.39-101S46.83.05,89.61,0Q190.41,0,291.21.09a79.11,79.11,0,0,1,18.4,1.75c35.16,8.53,58.11,30.08,68,65.11C378.77,71.06,379.48,75.29,380.4,79.47ZM355,88.77c.06-34.62-28.6-63.31-63.31-63.39s-63.26,28.53-63.36,63.31c-.11,34.61,28.54,63.29,63.28,63.36S355,123.48,355,88.77Z"/></g></g></svg>