<svg xmlns="http://www.w3.org/2000/svg" viewBox="0 0 252.17 312.42"><g id="Layer_2" data-name="Layer 2"><g id="Layer_1-2" data-name="Layer 1"><path d="M146.29,264.39c.24,4.54.06,8.57.73,12.46,1.8,10.45,9.7,17.12,20.3,17.52,3.12.11,6.25,0,9.37.05a9,9,0,0,1-.05,17.94c-7.47.05-14.95.52-22.21-2.17a39.14,39.14,0,0,1-25.93-36.72c0-3.38.24-6.77,0-10.13-.79-9.4,5.61-16.15,14.66-17.67A27.93,27.93,0,0,0,161,234.9a29.77,29.77,0,0,0,1.93-34.35c-6.58-10.64-18.9-15.85-31.71-13.4-11.83,2.26-21,12.06-23.13,24.55-1.54,9,1.08,16.7,6.41,23.82,4.51,6,2.08,13.43-4.85,15-4,.91-7-.85-9.48-3.88-21.19-26.08-9.36-65.77,22.7-75.89a5.5,5.5,0,0,0,4.2-4.37,134.4,134.4,0,0,0,0-68.12,5.18,5.18,0,0,0-3.92-4.2C101.36,87.28,87.66,66.51,89.59,43.6,91.42,21.84,109.52,2.83,132,.77,144.89-.42,158.1-1,170.52,5.15A48.56,48.56,0,0,1,195,64a11.23,11.23,0,0,0-.27,6.36,214.82,214.82,0,0,1,6.48,93c-1.58,10.68-4.52,21.16-6.73,31.76a9.1,9.1,0,0,0,.1,4.61c11.1,32-11.33,64.2-45.13,64.62Zm-38.77-216a30,30,0,1,0,30.12-29.93A30.16,30.16,0,0,0,107.52,48.34Zm61.19,123c6.93-26.44,5.67-57.88-.15-77.84l-23,3.8a155.25,155.25,0,0,1,.07,70.2Z"/><path d="M0,132.36c.29-22.68,8.17-42.3,24-58.69C27.4,70.1,31,69.34,34.76,71.1a8.57,8.57,0,0,1,5.11,9.48,12.93,12.93,0,0,1-3,5.79c-25,27.28-25,64.89,0,92,4.14,4.48,4.31,9.92.43,13.63s-9.19,3.46-13.54-1.08C8.1,174.53.29,155,0,132.36Z"/><path d="M252.17,260c-.74,8.17-.5,16.57-2.42,24.44-4,16.4-20.29,28.22-36.88,28-5.36-.07-9.2-3.62-9.36-8.63-.17-5.27,3.41-9,9-9.37,12.77-.85,20.89-9.38,21-22.16.06-9.36,0-18.73,0-28.09,0-5.87,3.64-9.74,9-9.73s8.94,3.88,9,9.75c0,5.25,0,10.49,0,15.73Z"/><path d="M36.05,132.3A47,47,0,0,1,48.89,99.66C53.21,95,58.3,94.42,62.42,98s4.12,9.09-.12,13.89c-11,12.46-10.91,28.44.14,41.07,5.27,6,3.43,13.78-3.78,15.76-3.82,1-6.85-.51-9.39-3.22A47.21,47.21,0,0,1,36.05,132.3Z"/><path d="M233.4,198.5a32.05,32.05,0,0,1,.41-5.57,9,9,0,0,1,17.66,2c.09,2,0,4,0,6-.08,5.59-3.68,9.44-8.88,9.49-5.38.05-9-3.82-9.11-9.63,0-.75,0-1.5,0-2.25Z"/></g></g></svg>