<?xml version="1.0" encoding="utf-8"?><svg version="1.1" id="Layer_1" xmlns="http://www.w3.org/2000/svg" xmlns:xlink="http://www.w3.org/1999/xlink" x="0px" y="0px" width="96.527px" height="122.88px" viewBox="0 0 96.527 122.88" enable-background="new 0 0 96.527 122.88" xml:space="preserve"><g><path fill-rule="evenodd" clip-rule="evenodd" d="M11.831,8.606h11.293V0h3.495v8.606h6.991v101.638H11.831V8.606L11.831,8.606z M4.569,16.135h3.127v93.591c0,3.174,2.599,5.773,5.773,5.773h18.729c3.177,0,5.774-2.6,5.774-5.773V16.135h53.984 c2.516,0,4.57,2.057,4.57,4.572v97.604c0,2.515-2.055,4.569-4.57,4.569H4.569c-2.515,0-4.569-2.055-4.569-4.569V20.707 C0,18.191,2.055,16.135,4.569,16.135L4.569,16.135z M49.557,22.87H84.27c1.949,0,3.539,1.589,3.539,3.533v15.951 c0,1.948-1.59,3.538-3.539,3.538H49.557c-1.946,0-3.536-1.59-3.536-3.538V26.403C46.021,24.459,47.61,22.87,49.557,22.87 L49.557,22.87z M58.387,64.589c2.32,0,4.201,1.882,4.201,4.202c0,2.319-1.881,4.202-4.201,4.202s-4.199-1.883-4.199-4.202 C54.188,66.471,56.066,64.589,58.387,64.589L58.387,64.589z M71.135,102.613c2.32,0,4.201,1.883,4.201,4.202 c0,2.32-1.881,4.202-4.201,4.202c-2.318,0-4.201-1.882-4.201-4.202C66.934,104.496,68.816,102.613,71.135,102.613L71.135,102.613z M83.883,89.939c2.318,0,4.201,1.882,4.201,4.202c0,2.319-1.883,4.199-4.201,4.199c-2.32,0-4.203-1.88-4.203-4.199 C79.68,91.821,81.563,89.939,83.883,89.939L83.883,89.939z M71.135,89.939c2.32,0,4.201,1.882,4.201,4.202 c0,2.319-1.881,4.199-4.201,4.199c-2.318,0-4.201-1.88-4.201-4.199C66.934,91.821,68.816,89.939,71.135,89.939L71.135,89.939z M58.387,89.939c2.32,0,4.201,1.882,4.201,4.202c0,2.319-1.881,4.199-4.201,4.199s-4.199-1.88-4.199-4.199 C54.188,91.821,56.066,89.939,58.387,89.939L58.387,89.939z M83.883,77.266c2.318,0,4.201,1.88,4.201,4.199 s-1.883,4.202-4.201,4.202c-2.32,0-4.203-1.883-4.203-4.202S81.563,77.266,83.883,77.266L83.883,77.266z M71.135,77.266 c2.32,0,4.201,1.88,4.201,4.199s-1.881,4.202-4.201,4.202c-2.318,0-4.201-1.883-4.201-4.202S68.816,77.266,71.135,77.266 L71.135,77.266z M58.387,77.266c2.32,0,4.201,1.88,4.201,4.199s-1.881,4.202-4.201,4.202s-4.199-1.883-4.199-4.202 S56.066,77.266,58.387,77.266L58.387,77.266z M83.883,64.589c2.318,0,4.201,1.882,4.201,4.202c0,2.319-1.883,4.202-4.201,4.202 c-2.32,0-4.203-1.883-4.203-4.202C79.68,66.471,81.563,64.589,83.883,64.589L83.883,64.589z M71.135,64.589 c2.32,0,4.201,1.882,4.201,4.202c0,2.319-1.881,4.202-4.201,4.202c-2.318,0-4.201-1.883-4.201-4.202 C66.934,66.471,68.816,64.589,71.135,64.589L71.135,64.589z"/></g></svg>