<svg xmlns="http://www.w3.org/2000/svg" viewBox="0 0 359.51 239.63" fill="#fff">
    <g id="Layer_2" data-name="Layer 2">
        <g id="Layer_1-2" data-name="Layer 1">
            <path d="M341.74,227.71c-1.43,8.44-5.59,11.91-14.1,11.92H289.47c-8.47,0-12.6-3.42-14.16-11.85a497.4,497.4,0,0,0-191,.14c-1.91,8.73-5.67,11.71-14.83,11.71q-19.28,0-38.55,0c-6.92,0-11.18-3.47-12.86-10.11a4,4,0,0,0-2.13-2.38,12.55,12.55,0,0,1-8.22-9,204.13,204.13,0,0,1-7-71.76c1-11.77,2.47-23.51,4.07-35.22,1.41-10.36,6.48-18.43,16.08-23.28,1.77-.9,3.46-2,5.21-2.92,2.26-1.22,2.68-2.92,1.09-4.88-3.51-4.33-4.23-9-1.53-13.88s7.25-7.07,12.59-6.13C47.51,61.72,52,57.83,55.88,49.3c7.39-16.37,18.49-30,36.17-36.39a186.36,186.36,0,0,1,26.52-7.43C143,.63,167.78-.63,192.62.27A315.24,315.24,0,0,1,253.26,8c23.55,5.53,40,19.19,50.43,40.68,1.3,2.69,2.85,5.28,3.94,8.05,1,2.44,2.31,3.47,5,3.28,3.6-.25,7.24-.09,10.85,0a12.08,12.08,0,0,1,9.73,19.14c-2.56,3.67-2.4,4.29,1.55,6.5,1.09.6,2.13,1.29,3.25,1.85,9.19,4.63,14.68,11.94,16.54,22.13,6.57,36,7.38,71.76-2.35,107.37C350.69,222.56,347.65,226.28,341.74,227.71ZM179.46,76.84v.51c6.49,0,13-.16,19.46,0q40.57,1.23,81.15,2.64c7.48.26,10.16-3.61,7-10.34-2-4.15-4.15-8.21-6.17-12.35-6.92-14.21-18.29-22.4-33.62-25.92a295.28,295.28,0,0,0-52.11-6.84c-26.9-1.28-53.55.34-79.85,6.23C103.89,33.35,92.52,36.63,85.52,47c-5,7.39-9.14,15.38-13.28,23.3-3.08,5.88-.1,10,6.64,9.84,1,0,2-.11,3-.14ZM179.78,191c21.7,0,43.39,0,65.08,0a22.25,22.25,0,0,0,13.8-5c6.77-5.3,6.52-12.3-.82-16.7a33.87,33.87,0,0,0-10.59-4.47c-15.36-3-30.71-6.44-46.24-8.07-27.47-2.88-54.75.2-81.64,6a64.89,64.89,0,0,0-18.51,7.54c-6.4,3.73-6.46,9.55-1,14.48A22.88,22.88,0,0,0,115.45,191C136.89,191.07,158.34,191,179.78,191Zm126.66-59.24,0-.46c5.22,0,10.49.45,15.65-.09,11.23-1.18,14.05-6.78,13.14-18.32-.26-3.35-2-5-5.55-5.19-7.86-.52-15.35,1.15-22.81,3.15-10.11,2.72-20.18,5.6-28.83,11.79-1.26.9-2.5,3.15-2.23,4.46.23,1.09,2.63,2.29,4.17,2.45C288.8,130.46,297.62,131.06,306.44,131.77ZM50.72,132c10.83-.87,19.9-1.51,28.94-2.44,1.45-.15,3.53-1.37,3.91-2.55s-.91-3-1.94-4.18a15.12,15.12,0,0,0-4-2.63c-10.43-5.84-21.88-8.85-33.39-11.45-4.53-1-9.39-.89-14.08-.69-1.77.08-4.34,1.44-5.07,2.94A14,14,0,0,0,35.7,131C41.22,131.82,46.86,131.75,50.72,132Z"/>
        </g>
    </g>
</svg>
