<svg xmlns="http://www.w3.org/2000/svg" viewBox="0 0 311.44 383.26"><g id="Layer_2" data-name="Layer 2"><g id="Layer_1-2" data-name="Layer 1"><path d="M59.17,383.26C52,381.2,45.08,378.55,39.6,373.07c-7.17-7.15-10.5-15.88-11-25.84q-2.37-51-4.68-102-2.58-55.29-5.27-110.59c0-.84-.22-1.68-.39-2.9-2.22,0-4.31,0-6.39,0A11.7,11.7,0,0,1,.06,119.89C0,105.42,0,91,.08,76.48.22,61.42,13.59,48.05,28.68,48c20.83-.13,41.66,0,62.49,0h4.69c0-3.68,0-7.24,0-10.8C95.87,18.15,107.47,4,126,.44A31.89,31.89,0,0,1,132,0q23.76,0,47.52,0a35.72,35.72,0,0,1,36.11,36c0,3.83,0,7.67,0,11.91h4.32q30.49,0,61,0c17.5,0,30.47,13,30.5,30.44q0,20.2,0,40.42c0,8.22-4.75,12.93-13,13-1.49,0-3,0-4.48.09-.22,0-.44.2-.93.43-.29,5.3-.63,10.75-.88,16.2-1.09,23.29-2.12,46.58-3.23,69.87-1.13,23.79-2.36,47.57-3.49,71.36-.89,18.68-1.79,37.36-2.49,56.05-.51,13.44-5.33,24.6-17,31.85-4.13,2.57-9.07,3.81-13.64,5.66ZM42.71,131.94c0,1.27,0,2.36,0,3.45q1.19,25,2.4,50.07,2.12,43.35,4.25,86.68c1.22,25,2.38,50.07,3.65,75.1.39,7.57,5.21,12,12.88,12.06,3.25.05,6.49,0,9.73,0q84.59,0,169.16,0c8.63,0,13.25-4.17,13.69-12.78q2.63-50.81,5-101.62Q266.1,191.47,268.6,138c.09-2.05,0-4.1,0-6.09ZM24,107.53H287.48V81.11c0-7.52-1.72-9.25-9.22-9.25H33.16c-1,0-2,0-3,0-3.69.32-6.07,2.54-6.12,6.27C23.92,87.87,24,97.58,24,107.53ZM191.65,47.78c0-4.25.15-8.1,0-11.94-.33-6.77-5.24-11.76-12-11.82q-23.91-.22-47.82,0c-5.93.05-10.72,3.92-11.53,9.74-.63,4.58-.13,9.31-.13,14Z"/><path d="M107.82,245.79q0,38.72,0,77.43c0,6.14-4.4,11.32-10.07,12.07a12.11,12.11,0,0,1-13.36-8.37,14,14,0,0,1-.48-4q0-77.43,0-154.86c0-7.24,5.11-12.36,12.12-12.31,6.76,0,11.79,5.22,11.8,12.27Q107.86,206.89,107.82,245.79Z"/><path d="M143.76,245.55q0-38.91,0-77.81a11.94,11.94,0,0,1,23.3-3.87,14,14,0,0,1,.6,4.39q0,77.24,0,154.48c0,7.35-4.95,12.57-11.85,12.61-7.07,0-12.08-5.21-12.08-12.75Q143.74,284.08,143.76,245.55Z"/><path d="M227.59,245.6q0,38.89,0,77.8a11.95,11.95,0,0,1-23.34,3.69,14.77,14.77,0,0,1-.56-4.4q0-77.24,0-154.48c0-7.33,5-12.49,11.94-12.5s12,5.17,12,12.46Q227.61,206.89,227.59,245.6Z"/></g></g></svg>