<svg xmlns="http://www.w3.org/2000/svg" viewBox="0 0 511 512"><g id="Layer_2" data-name="Layer 2"><g id="Layer_1-2" data-name="Layer 1"><path d="M184,0H327c.21.24.37.62.63.71,21.49,7.1,30.3,19.22,30.3,41.74V69.84c6.06.29,11.63,2.28,13.14,7.42,2.22,7.56,7.23,7,12.81,6.78,1.45-.07,2.91.14,4.9.25V90.9q0,207.06,0,414.12c0,2.33.14,4.65.21,7H122c0-.67-.07-1.33-.07-2q0-210.69,0-421.4c0-1.43.19-2.86.31-4.57h14.42c1.56-8.9,6.91-13.51,15.9-14.37,0-10.13.05-20.12,0-30.1-.08-12.57,4.13-23.41,14.28-30.95C171.9,4.86,178.24,2.82,184,0Zm-1.07,69.78c7.59.61,12.84,3.92,14.73,10.72.94,3.4,2.6,3.56,5.27,3.54,11.67-.06,23.33-.09,35,0,1.62,0,4.07.49,4.69,1.57,3.13,5.47,8,7.37,13.81,8.71,31.76,7.43,49.13,41.93,36.51,72-1.29,3.07-2.94,4.49-6.55,4.8-12.26,1-24.48,2.58-36.7,4A15.75,15.75,0,0,0,238,181.93c-20.45,29.78-41,59.49-61.37,89.32-5,7.26-3.55,15.73,3.59,20.74q30.67,21.48,61.68,42.47c7.24,4.91,15.7,3.24,20.67-3.93Q293.37,286,324,241.26a14.8,14.8,0,0,0,2.29-12.8c-3.23-12-6.05-24.15-9.32-36.16a12.77,12.77,0,0,1,1-9.46q22.46-48.53-10.8-90.56c-2.11-2.65-4.5-5.08-7.29-8.21h11.83c1.77-8.77,6.88-13.65,16.06-14.36,0-9.27,0-18.41,0-27.55,0-9.87-2.26-12.16-11.93-12.16q-60.49,0-121,0a25.73,25.73,0,0,0-5,.19c-3.95.8-6.81,2.93-6.85,7.33C182.87,48.16,182.93,58.8,182.93,69.78Z"/><path d="M511,159V451a37,37,0,0,0-.94,3.84c-3.8,26.94-18.75,44.79-44.13,54.09-3.54,1.3-7.28,2.06-10.93,3.07H418c.09-2.32.25-4.65.25-7q0-207.09,0-414.18V84h13.47A78.38,78.38,0,0,1,508,143.43C509.3,148.54,510,153.81,511,159Z"/><path d="M92,512H55a10.28,10.28,0,0,0-2.19-1C21.81,505.16,0,479,0,447.47Q0,305,0,162.54c0-21.35,7.63-39.69,22.48-54.86,19-19.44,42.6-25.87,69.51-23.24Z"/><path d="M209.35,276.07l30.84-44.84c5.19-7.54,10.5-15,15.5-22.65,2-3,4.07-4.69,7.84-5,8.24-.64,16.43-1.82,24.91-2.81,2.38,9.33,4.7,18.13,6.79,27a5.71,5.71,0,0,1-.93,4q-23.22,34-46.6,67.9c-.38.54-.71,1.12-1.21,1.92Z"/></g></g></svg>