<svg xmlns="http://www.w3.org/2000/svg" viewBox="0 0 319.57 319.57"><g id="Layer_2" data-name="Layer 2"><g id="Layer_1-2" data-name="Layer 1"><path d="M159.73,0a95.77,95.77,0,0,1,95.83,95.78c0,53.12-43,96.2-96,96.1A95.94,95.94,0,0,1,159.73,0Zm-.12,32.16A63.81,63.81,0,1,0,223.44,95.3,63.56,63.56,0,0,0,159.61,32.16Z"/><path d="M152.06,223.35c32.2.37,56.24,1,80,5.35,19.27,3.5,37.68,9.3,53.67,21.13,16.91,12.5,27.21,29.54,33.17,49.36a16,16,0,0,1-30.49,9.58c-3.06-8.6-6.46-17-12.33-24.12-9.08-11.07-21.29-16.95-34.66-20.84-17-4.94-34.45-6.89-52-7.36-19.81-.53-39.66-.64-59.46,0-20.79.7-41.48,2.94-61.17,10.5Q41.4,277.49,32.35,305.4c-.38,1.18-.81,2.35-1.26,3.51-3.23,8.32-11.78,12.52-20,9.84a15.92,15.92,0,0,1-10.38-20C10,268.17,29.41,247.14,59.5,236.16a186.89,186.89,0,0,1,51-10.46C127.05,224.52,143.61,223.82,152.06,223.35Z"/></g></g></svg>