<svg xmlns="http://www.w3.org/2000/svg" viewBox="0 0 408.87 215.8"><g id="Layer_2" data-name="Layer 2"><g id="Layer_1-2" data-name="Layer 1"><path d="M408.87,111.1c-6.9,7.45-13.34,15.41-20.79,22.26-25.89,23.77-54.49,43.72-86.34,58.79-33.85,16-69.27,25.3-107,23.41-26.38-1.31-51.56-7.93-75.82-18.25C75,178.62,37.17,151.11,4,117c-5.39-5.55-5.39-12.57,0-18.12C39.28,62.53,79.68,33.7,127,15.2c28-11,57.11-16.49,87.28-14.94,26.37,1.35,51.56,7.94,75.82,18.27C334,37.23,371.81,64.75,404.92,98.9c1.61,1.66,2.65,3.87,3.95,5.82ZM204,191.72c45.9-.32,83.78-36,84.12-83.36.33-45.9-35.86-83.78-83.22-84.12-45.9-.33-83.78,35.86-84.12,83.22C120.47,153.36,156.66,190.74,204,191.72Z"/><path d="M231.21,54.83C215.06,68.29,213.63,86,219.81,98.58c8.86,18,23.83,23.78,43.05,19.77-1.24,21.28-21.88,42.76-46.26,48.3-24.94,5.66-52.2-7-64.78-30.09a60.08,60.08,0,0,1,10.47-71.22C180.88,47.07,209.53,42.63,231.21,54.83Z"/></g></g></svg>