<svg xmlns="http://www.w3.org/2000/svg" viewBox="0 0 233.35 307.57"><g id="Layer_2" data-name="Layer 2"><g id="Layer_1-2" data-name="Layer 1"><path d="M233.35,153.86V280.7c0,16.16-10.75,26.87-26.95,26.87H27.17C11.08,307.57.06,296.84.05,280.71Q-.06,153.87.05,27c0-16,11.14-27,27.1-27q89.63,0,179.23,0c16.08,0,27,11,27,27ZM116.84,181.22c37,0,67.17-30.21,67-67-.18-37.46-30.28-66.7-68.84-66.86-35.18-.15-65.16,30.86-65.1,67.34A66.74,66.74,0,0,0,116.84,181.22Zm-.39,58.32c13.6,0,27.19,0,40.78,0,4.62,0,7.25-2.28,7.29-6.15s-2.61-6.34-7.18-6.35q-40.59-.1-81.17,0c-1.64,0-4,.46-4.74,1.56a10.6,10.6,0,0,0-1.88,6.64c.39,3,3,4.29,6.13,4.28Q96.07,239.51,116.45,239.54Z"/><path d="M77.39,120.55c11.72,0,11.29.1,14,11.78,2.06,8.89,5.43,17.48,8.06,26.25.48,1.6.19,3.43.25,5.15-1.84,0-4,.66-5.46,0-14.6-6.85-24.5-18-29.35-33.41-1.83-5.82.87-9.56,6.91-9.72C73.65,120.51,75.52,120.56,77.39,120.55Z"/><path d="M156.24,120.57c2.12,0,4.24-.11,6.35,0,5,.33,7.78,3.93,6.38,8.67C164.19,145.46,154,157.08,138.6,164a5.24,5.24,0,0,1-4.59-.49c-.75-.61-.7-3-.15-4.29A111.78,111.78,0,0,0,143,127.1c.54-4.44,3.08-6.41,7.63-6.54,1.87,0,3.74,0,5.6,0Z"/><path d="M77.2,107.93a66.84,66.84,0,0,1-7.08,0c-4.42-.49-6.94-4-5.67-8.25,4.93-16.43,15.26-28.24,31-35.18a4.43,4.43,0,0,1,4,.49,4.3,4.3,0,0,1,.58,4,118,118,0,0,0-9.71,33.87,5.69,5.69,0,0,1-5.6,5.11c-2.47.19-5,0-7.46,0Z"/><path d="M156.23,108.08c-9.65-.08-11.79,1.37-14.17-11.28-1.7-9-5.36-17.73-7.94-26.64-.48-1.67,0-3.62,0-5.44,1.73.07,3.69-.38,5.13.28,14.57,6.68,24.27,17.82,29.33,33,2.09,6.25-.55,9.9-7.15,10.09C159.71,108.12,158,108.07,156.23,108.08Z"/><path d="M116.8,120.56c2.12,0,4.24-.08,6.35,0,4.79.22,7.46,3,6.88,7.71a83,83,0,0,1-10.26,30.49c-1.66,3-4.41,2.91-6.08-.1a90.37,90.37,0,0,1-10.38-30.85c-.56-3.75,2.32-6.87,6.41-7.21,2.35-.19,4.72,0,7.08,0Z"/><path d="M116.53,107.91a66.24,66.24,0,0,1-7.46,0,6.3,6.3,0,0,1-5.69-7.7A91.57,91.57,0,0,1,113,71.31c.74-1.35,2.45-3.17,3.57-3.07a5.61,5.61,0,0,1,3.87,3.14c3.32,8.93,6.7,17.88,9.28,27,1.82,6.47-1.18,9.56-8,9.65-1.74,0-3.49,0-5.23,0Z"/></g></g></svg>