<svg xmlns="http://www.w3.org/2000/svg" viewBox="0 0 299.6 299.58"><g id="Layer_2" data-name="Layer 2"><g id="Layer_1-2" data-name="Layer 1"><path d="M0,11.7A38.1,38.1,0,0,1,2.63,6.62,14.89,14.89,0,0,1,15.32,0Q37.4,0,59.49,0c7.9,0,14.17,5.2,15.25,13C76.51,25.73,78,38.49,79.56,51.24c.35,2.77.74,5.54,1.14,8.47h3.74q47,0,93.91,0c8.34,0,14.59,4.83,15.94,12.19,1.8,9.87-5.24,17.93-15.91,18.06-7.7.09-15.4,0-23.11,0H84.35C85.59,100,86.8,109.76,88,119.21c6.68.8,13.15,1.33,19.53,2.42,10.57,1.8,20.28,6,29.45,11.49a10.57,10.57,0,0,0,5.14,1.46c26.72.09,53.44.06,80.15.06,10.6,0,16,4.94,17.69,15.45,3.24,20.25,6.72,40.48,10.11,60.71.76,4.51,1.54,9,2.38,13.89h3.08c9.66,0,19.31,0,29,0a15.19,15.19,0,0,1,15.06,13.22,15,15,0,0,1-11.67,16.27,19.92,19.92,0,0,1-4.64.33c-13.75,0-27.5-.27-41.24.11-9.37.26-16.56-4.64-17.85-15.59-.55-4.72-1.49-9.4-2.28-14.25-1-.05-1.85-.12-2.71-.12-12.67,0-25.35,0-38-.05-1.95,0-2.83.39-3.32,2.51-8,34.92-29.12,58-63.27,68.85-4.87,1.55-10.08,2-15.13,3l-2.83.59H83.67a9.86,9.86,0,0,0-1.65-.45A87.35,87.35,0,0,1,33.3,279.45a86.71,86.71,0,0,1-29.81-45.3C2,228.74,1.15,223.16,0,217.67v-15.8c.26-1.52.52-3,.77-4.56,4.53-28,18.69-49.57,42.85-64.45,4.68-2.88,9.77-5.11,14.79-7.69Q52.56,77.91,46.65,30.24c-9.95,0-19.59.05-29.24,0a26.91,26.91,0,0,1-6.63-.79C4.93,27.89,1.91,23.51,0,18.14ZM90,269.44c33.06-.19,59.82-26.54,59.61-60a59.41,59.41,0,0,0-60-59.57C56.48,150,29.79,177.17,30,209.76,30.19,242.85,57.2,269.72,90,269.44Z"/><path d="M104.81,209.61a15,15,0,1,1-15-14.94A14.9,14.9,0,0,1,104.81,209.61Z"/></g></g></svg>