<svg xmlns="http://www.w3.org/2000/svg" viewBox="0 0 116.32 113.66"><defs><style>.cls-1{fill:#fff;}</style></defs><g id="Layer_2" data-name="Layer 2"><g id="Layer_1-2" data-name="Layer 1"><path class="cls-1" d="M58.16,77.84C44,77.84,32.47,67.16,32.47,54V6.87H83.86V54C83.86,67.16,72.33,77.84,58.16,77.84Zm-24.69-70V54c0,12.58,11.08,22.82,24.69,22.82S82.86,66.6,82.86,54V7.87Z"/><path class="cls-1" d="M81.05,10a.21.21,0,0,1-.17-.07.23.23,0,0,1-.08-.18.23.23,0,0,1,.08-.17.24.24,0,0,1,.35,0,.22.22,0,0,1,.07.17.23.23,0,0,1-.07.18A.24.24,0,0,1,81.05,10Z"/><path class="cls-1" d="M57.93,74.94a.25.25,0,0,1,.25-.25h0a.25.25,0,0,1,.25.25h0a.25.25,0,0,1-.25.25h0A.25.25,0,0,1,57.93,74.94Zm-1.78.17h0a.25.25,0,0,1-.23-.26h0a.25.25,0,0,1,.27-.23h0a.25.25,0,0,1,.23.27h0a.25.25,0,0,1-.25.23h0Zm3.79-.24a.25.25,0,0,1,.23-.27h0a.25.25,0,0,1,.27.23h0a.25.25,0,0,1-.23.27h0A.25.25,0,0,1,59.94,74.87Zm-5.8,0a.26.26,0,0,1-.21-.29h0a.25.25,0,0,1,.29-.21h0a.25.25,0,0,1,.2.29h0a.25.25,0,0,1-.24.21h0Zm7.8-.22a.26.26,0,0,1,.2-.29h0a.25.25,0,0,1,.29.21h0a.25.25,0,0,1-.2.29h0A.25.25,0,0,1,61.94,74.64Zm-9.79-.2a.25.25,0,0,1-.18-.31h0a.25.25,0,0,1,.3-.18h0a.26.26,0,0,1,.18.31h0a.26.26,0,0,1-.24.19h-.06Zm11.76-.19a.26.26,0,0,1,.18-.31h0a.26.26,0,0,1,.31.18h0a.27.27,0,0,1-.18.31h-.07A.25.25,0,0,1,63.91,74.25Zm-13.71-.4h0a.24.24,0,0,1-.15-.32h0a.25.25,0,0,1,.31-.15h0a.25.25,0,0,1,.16.32h0a.27.27,0,0,1-.24.17h0Zm15.64-.17a.25.25,0,0,1,.16-.32h0a.25.25,0,0,1,.31.16h0a.25.25,0,0,1-.15.32h-.08A.25.25,0,0,1,65.84,73.68ZM48.31,73.1a.25.25,0,0,1-.13-.33h0a.26.26,0,0,1,.34-.12h0a.25.25,0,0,1,.12.33h0a.25.25,0,0,1-.23.15h0A.19.19,0,0,1,48.31,73.1ZM67.72,73a.25.25,0,0,1,.12-.33h0a.25.25,0,0,1,.33.12h0a.25.25,0,0,1-.12.33h0a.19.19,0,0,1-.1,0h0A.25.25,0,0,1,67.72,73Zm-21.23-.77h0a.24.24,0,0,1-.09-.33h0a.24.24,0,0,1,.34-.1h0a.25.25,0,0,1,.09.34h0a.25.25,0,0,1-.22.13h0A.19.19,0,0,1,46.49,72.19Zm23-.12a.26.26,0,0,1,.1-.34h0a.26.26,0,0,1,.34.1h0a.25.25,0,0,1-.09.34h0a.24.24,0,0,1-.12,0h0A.25.25,0,0,1,69.52,72.07Zm-24.76-.94a.25.25,0,0,1-.07-.35h0a.25.25,0,0,1,.35-.06h0a.25.25,0,0,1,.07.34h0a.24.24,0,0,1-.21.11h0A.23.23,0,0,1,44.76,71.13ZM71.25,71a.25.25,0,0,1,.07-.35h0a.24.24,0,0,1,.34.07h0a.24.24,0,0,1-.06.34h0a.3.3,0,0,1-.15.05h0A.24.24,0,0,1,71.25,71ZM43.12,69.92a.25.25,0,0,1,0-.35h0a.24.24,0,0,1,.35,0h0a.25.25,0,0,1,0,.35h0a.27.27,0,0,1-.2.09h0A.25.25,0,0,1,43.12,69.92Zm29.75-.07a.25.25,0,0,1,0-.35h0a.24.24,0,0,1,.35,0h0a.25.25,0,0,1,0,.35h0a.27.27,0,0,1-.16.06h0A.23.23,0,0,1,72.87,69.85ZM41.6,68.57a.26.26,0,0,1,0-.36h0a.25.25,0,0,1,.35,0h0a.24.24,0,0,1,0,.35h0a.27.27,0,0,1-.18.08h0A.26.26,0,0,1,41.6,68.57Zm32.79,0a.24.24,0,0,1,0-.35h0a.25.25,0,0,1,.36,0h0a.26.26,0,0,1,0,.36h0a.28.28,0,0,1-.17.07h0A.25.25,0,0,1,74.39,68.53ZM40.21,67.09a.25.25,0,0,1,0-.36h0a.25.25,0,0,1,.35,0h0a.24.24,0,0,1,0,.35h0a.23.23,0,0,1-.16.06h0A.27.27,0,0,1,40.21,67.09Zm35.57,0a.25.25,0,0,1,0-.35h0a.25.25,0,0,1,.36,0h0a.25.25,0,0,1,0,.35h0a.25.25,0,0,1-.19.09h0A.27.27,0,0,1,75.78,67.08ZM39,65.49h0a.23.23,0,0,1,.06-.34h0a.24.24,0,0,1,.35.06h0a.26.26,0,0,1-.06.35h0a.3.3,0,0,1-.15,0h0A.26.26,0,0,1,39,65.49Zm38.08,0a.24.24,0,0,1-.06-.35h0a.23.23,0,0,1,.34-.06h0a.24.24,0,0,1,.06.35h0a.23.23,0,0,1-.2.1h0A.23.23,0,0,1,77,65.51ZM37.86,63.77a.25.25,0,0,1,.09-.34h0a.25.25,0,0,1,.34.09h0a.25.25,0,0,1-.09.34h0a.2.2,0,0,1-.13,0h0A.24.24,0,0,1,37.86,63.77Zm40.28.06a.26.26,0,0,1-.09-.35h0a.25.25,0,0,1,.34-.09h0a.25.25,0,0,1,.09.34h0a.26.26,0,0,1-.22.13h0A.27.27,0,0,1,78.14,63.83ZM36.92,62a.26.26,0,0,1,.13-.34h0a.26.26,0,0,1,.33.13h0a.25.25,0,0,1-.12.33h0l-.11,0h0A.27.27,0,0,1,36.92,62Zm42.16.08a.24.24,0,0,1-.12-.33h0a.25.25,0,0,1,.33-.13h0a.25.25,0,0,1,.12.33h0a.24.24,0,0,1-.23.15h0Zm-42.91-2a.24.24,0,0,1,.15-.32h0a.25.25,0,0,1,.32.15h0a.24.24,0,0,1-.15.32h0l-.09,0h0A.25.25,0,0,1,36.17,60.08Zm43.68.11a.26.26,0,0,1-.16-.32h0a.25.25,0,0,1,.32-.15h0a.23.23,0,0,1,.15.31h0a.23.23,0,0,1-.23.17h-.08ZM35.6,58.13a.25.25,0,0,1,.18-.31h0a.25.25,0,0,1,.3.19h0a.25.25,0,0,1-.18.3h-.06A.25.25,0,0,1,35.6,58.13Zm44.83.13a.24.24,0,0,1-.18-.3h0a.25.25,0,0,1,.3-.18h0a.25.25,0,0,1,.18.3h0a.26.26,0,0,1-.24.19h-.06ZM35.22,56.13a.25.25,0,0,1,.21-.29h0a.25.25,0,0,1,.28.22h0a.25.25,0,0,1-.21.28h0A.24.24,0,0,1,35.22,56.13Zm45.61.16a.25.25,0,0,1-.22-.28h0a.25.25,0,0,1,.28-.21h0a.26.26,0,0,1,.22.28h0a.27.27,0,0,1-.25.22h0ZM35,54.1a.25.25,0,0,1,.24-.26h0a.24.24,0,0,1,.26.24h0a.25.25,0,0,1-.24.26h0A.26.26,0,0,1,35,54.1Zm46,.19a.24.24,0,0,1-.24-.26h0a.25.25,0,0,1,.26-.24h0a.27.27,0,0,1,.24.26h0a.25.25,0,0,1-.25.24h0ZM35,52.08a.25.25,0,0,1,.25-.25h0a.25.25,0,0,1,.25.25h0a.26.26,0,0,1-.25.25h0A.25.25,0,0,1,35,52.08ZM80.8,52a.25.25,0,0,1,.25-.25h0a.25.25,0,0,1,.25.25h0a.25.25,0,0,1-.25.25h0A.25.25,0,0,1,80.8,52ZM35,50.06a.25.25,0,0,1,.25-.25h0a.26.26,0,0,1,.25.25h0a.25.25,0,0,1-.25.25h0A.25.25,0,0,1,35,50.06ZM80.8,50a.25.25,0,0,1,.25-.25h0a.25.25,0,0,1,.25.25h0a.25.25,0,0,1-.25.25h0A.25.25,0,0,1,80.8,50ZM35,48.05a.25.25,0,0,1,.25-.25h0a.25.25,0,0,1,.25.25h0a.25.25,0,0,1-.25.25h0A.25.25,0,0,1,35,48.05ZM80.8,48a.25.25,0,0,1,.25-.25h0a.25.25,0,0,1,.25.25h0a.25.25,0,0,1-.25.25h0A.25.25,0,0,1,80.8,48ZM35,46a.25.25,0,0,1,.25-.25h0a.25.25,0,0,1,.25.25h0a.25.25,0,0,1-.25.25h0A.25.25,0,0,1,35,46ZM80.8,46a.25.25,0,0,1,.25-.25h0a.25.25,0,0,1,.25.25h0a.25.25,0,0,1-.25.25h0A.25.25,0,0,1,80.8,46ZM35,44a.25.25,0,0,1,.25-.25h0a.25.25,0,0,1,.25.25h0a.25.25,0,0,1-.25.25h0A.25.25,0,0,1,35,44ZM80.8,44a.25.25,0,0,1,.25-.25h0a.25.25,0,0,1,.25.25h0a.25.25,0,0,1-.25.25h0A.25.25,0,0,1,80.8,44ZM35,42a.25.25,0,0,1,.25-.25h0a.25.25,0,0,1,.25.25h0a.26.26,0,0,1-.25.25h0A.25.25,0,0,1,35,42ZM80.8,42a.25.25,0,0,1,.25-.25h0a.25.25,0,0,1,.25.25h0a.25.25,0,0,1-.25.25h0A.25.25,0,0,1,80.8,42ZM35,40a.25.25,0,0,1,.25-.25h0a.26.26,0,0,1,.25.25h0a.25.25,0,0,1-.25.25h0A.25.25,0,0,1,35,40ZM80.8,40a.25.25,0,0,1,.25-.25h0a.25.25,0,0,1,.25.25h0a.25.25,0,0,1-.25.25h0A.25.25,0,0,1,80.8,40ZM35,38a.25.25,0,0,1,.25-.25h0a.25.25,0,0,1,.25.25h0a.25.25,0,0,1-.25.25h0A.25.25,0,0,1,35,38Zm45.78-.05a.25.25,0,0,1,.25-.25h0a.25.25,0,0,1,.25.25h0a.25.25,0,0,1-.25.25h0A.25.25,0,0,1,80.8,37.94ZM35,36a.25.25,0,0,1,.25-.25h0a.25.25,0,0,1,.25.25h0a.25.25,0,0,1-.25.25h0A.25.25,0,0,1,35,36Zm45.78,0a.25.25,0,0,1,.25-.25h0a.25.25,0,0,1,.25.25h0a.25.25,0,0,1-.25.25h0A.25.25,0,0,1,80.8,35.93ZM35,34a.25.25,0,0,1,.25-.25h0a.25.25,0,0,1,.25.25h0a.26.26,0,0,1-.25.25h0A.25.25,0,0,1,35,34Zm45.78,0a.25.25,0,0,1,.25-.25h0a.25.25,0,0,1,.25.25h0a.25.25,0,0,1-.25.25h0A.25.25,0,0,1,80.8,33.92ZM35,32a.25.25,0,0,1,.25-.25h0a.26.26,0,0,1,.25.25h0a.25.25,0,0,1-.25.25h0A.25.25,0,0,1,35,32Zm45.78,0a.25.25,0,0,1,.25-.25h0a.25.25,0,0,1,.25.25h0a.25.25,0,0,1-.25.25h0A.25.25,0,0,1,80.8,31.91ZM35,29.94a.25.25,0,0,1,.25-.25h0a.25.25,0,0,1,.25.25h0a.25.25,0,0,1-.25.25h0A.25.25,0,0,1,35,29.94Zm45.78,0a.25.25,0,0,1,.25-.25h0a.25.25,0,0,1,.25.25h0a.25.25,0,0,1-.25.25h0A.25.25,0,0,1,80.8,29.9ZM35,27.93a.25.25,0,0,1,.25-.25h0a.25.25,0,0,1,.25.25h0a.25.25,0,0,1-.25.25h0A.25.25,0,0,1,35,27.93Zm45.78-.05a.25.25,0,0,1,.25-.25h0a.25.25,0,0,1,.25.25h0a.25.25,0,0,1-.25.25h0A.25.25,0,0,1,80.8,27.88ZM35,25.92a.25.25,0,0,1,.25-.25h0a.25.25,0,0,1,.25.25h0a.25.25,0,0,1-.25.25h0A.25.25,0,0,1,35,25.92Zm45.78-.05a.25.25,0,0,1,.25-.25h0a.25.25,0,0,1,.25.25h0a.25.25,0,0,1-.25.25h0A.25.25,0,0,1,80.8,25.87ZM35,23.9a.25.25,0,0,1,.25-.25h0a.26.26,0,0,1,.25.25h0a.25.25,0,0,1-.25.25h0A.25.25,0,0,1,35,23.9Zm45.78,0a.25.25,0,0,1,.25-.25h0a.25.25,0,0,1,.25.25h0a.25.25,0,0,1-.25.25h0A.25.25,0,0,1,80.8,23.86ZM35,21.89a.25.25,0,0,1,.25-.25h0a.25.25,0,0,1,.25.25h0a.25.25,0,0,1-.25.25h0A.25.25,0,0,1,35,21.89Zm45.78,0a.25.25,0,0,1,.25-.25h0a.25.25,0,0,1,.25.25h0a.25.25,0,0,1-.25.25h0A.25.25,0,0,1,80.8,21.85ZM35,19.88a.25.25,0,0,1,.25-.25h0a.25.25,0,0,1,.25.25h0a.25.25,0,0,1-.25.25h0A.25.25,0,0,1,35,19.88Zm45.78,0a.25.25,0,0,1,.25-.25h0a.25.25,0,0,1,.25.25h0a.25.25,0,0,1-.25.25h0A.25.25,0,0,1,80.8,19.84ZM35,17.87a.25.25,0,0,1,.25-.25h0a.25.25,0,0,1,.25.25h0a.25.25,0,0,1-.25.25h0A.25.25,0,0,1,35,17.87Zm45.78-.05a.25.25,0,0,1,.25-.25h0a.25.25,0,0,1,.25.25h0a.25.25,0,0,1-.25.25h0A.25.25,0,0,1,80.8,17.82ZM35,15.86a.25.25,0,0,1,.25-.25h0a.25.25,0,0,1,.25.25h0a.26.26,0,0,1-.25.25h0A.25.25,0,0,1,35,15.86Zm45.78,0a.25.25,0,0,1,.25-.25h0a.25.25,0,0,1,.25.25h0a.25.25,0,0,1-.25.25h0A.25.25,0,0,1,80.8,15.81ZM35,13.85a.26.26,0,0,1,.25-.26h0a.26.26,0,0,1,.25.26h0a.26.26,0,0,1-.25.25h0A.25.25,0,0,1,35,13.85Zm45.78,0a.25.25,0,0,1,.25-.25h0a.25.25,0,0,1,.25.25h0a.25.25,0,0,1-.25.25h0A.25.25,0,0,1,80.8,13.8ZM35,11.83a.25.25,0,0,1,.25-.25h0a.25.25,0,0,1,.25.25h0a.25.25,0,0,1-.25.25h0A.25.25,0,0,1,35,11.83Zm45.78,0a.25.25,0,0,1,.25-.25h0a.25.25,0,0,1,.25.25h0a.25.25,0,0,1-.25.25h0A.25.25,0,0,1,80.8,11.79Z"/><path class="cls-1" d="M35.27,10a.23.23,0,0,1-.18-.07A.24.24,0,0,1,35,9.77a.22.22,0,0,1,.07-.17.24.24,0,0,1,.35,0,.23.23,0,0,1,.08.17.25.25,0,0,1-.08.18A.22.22,0,0,1,35.27,10Z"/><path class="cls-1" d="M78.81,9.77a.25.25,0,0,1,.25-.25h0a.25.25,0,0,1,.25.25h0a.25.25,0,0,1-.25.25h0A.25.25,0,0,1,78.81,9.77Zm-2,0a.25.25,0,0,1,.25-.25h0a.25.25,0,0,1,.25.25h0a.25.25,0,0,1-.25.25h0A.25.25,0,0,1,76.82,9.77Zm-2,0a.25.25,0,0,1,.25-.25h0a.25.25,0,0,1,.25.25h0a.25.25,0,0,1-.25.25h0A.25.25,0,0,1,74.83,9.77Zm-2,0a.25.25,0,0,1,.25-.25h0a.25.25,0,0,1,.25.25h0a.25.25,0,0,1-.25.25h0A.25.25,0,0,1,72.84,9.77Zm-2,0a.25.25,0,0,1,.25-.25h0a.25.25,0,0,1,.25.25h0a.25.25,0,0,1-.25.25h0A.25.25,0,0,1,70.85,9.77Zm-2,0a.25.25,0,0,1,.25-.25h0a.25.25,0,0,1,.25.25h0a.25.25,0,0,1-.25.25h0A.25.25,0,0,1,68.86,9.77Zm-2,0a.25.25,0,0,1,.25-.25h0a.25.25,0,0,1,.25.25h0a.25.25,0,0,1-.25.25h0A.25.25,0,0,1,66.87,9.77Zm-2,0a.25.25,0,0,1,.25-.25h0a.26.26,0,0,1,.25.25h0a.25.25,0,0,1-.25.25h0A.25.25,0,0,1,64.88,9.77Zm-2,0a.25.25,0,0,1,.25-.25h0a.26.26,0,0,1,.25.25h0a.25.25,0,0,1-.25.25h0A.25.25,0,0,1,62.89,9.77Zm-2,0a.26.26,0,0,1,.25-.25h0a.25.25,0,0,1,.25.25h0a.25.25,0,0,1-.25.25h0A.25.25,0,0,1,60.89,9.77Zm-2,0a.26.26,0,0,1,.25-.25h0a.25.25,0,0,1,.25.25h0a.25.25,0,0,1-.25.25h0A.25.25,0,0,1,58.9,9.77Zm-2,0a.25.25,0,0,1,.25-.25h0a.25.25,0,0,1,.25.25h0a.25.25,0,0,1-.25.25h0A.25.25,0,0,1,56.91,9.77Zm-2,0a.25.25,0,0,1,.25-.25h0a.25.25,0,0,1,.25.25h0a.25.25,0,0,1-.25.25h0A.25.25,0,0,1,54.92,9.77Zm-2,0a.25.25,0,0,1,.25-.25h0a.25.25,0,0,1,.25.25h0a.25.25,0,0,1-.25.25h0A.25.25,0,0,1,52.93,9.77Zm-2,0a.25.25,0,0,1,.25-.25h0a.25.25,0,0,1,.25.25h0a.25.25,0,0,1-.25.25h0A.25.25,0,0,1,50.94,9.77Zm-2,0a.25.25,0,0,1,.25-.25h0a.25.25,0,0,1,.25.25h0a.25.25,0,0,1-.25.25h0A.25.25,0,0,1,49,9.77Zm-2,0a.25.25,0,0,1,.25-.25h0a.25.25,0,0,1,.25.25h0a.25.25,0,0,1-.25.25h0A.25.25,0,0,1,47,9.77Zm-2,0a.25.25,0,0,1,.25-.25h0a.25.25,0,0,1,.25.25h0a.25.25,0,0,1-.25.25h0A.25.25,0,0,1,45,9.77Zm-2,0a.25.25,0,0,1,.25-.25h0a.25.25,0,0,1,.25.25h0a.25.25,0,0,1-.25.25h0A.25.25,0,0,1,43,9.77Zm-2,0a.25.25,0,0,1,.25-.25h0a.25.25,0,0,1,.25.25h0a.25.25,0,0,1-.25.25h0A.25.25,0,0,1,41,9.77Zm-2,0a.25.25,0,0,1,.25-.25h0a.26.26,0,0,1,.25.25h0a.25.25,0,0,1-.25.25h0A.25.25,0,0,1,39,9.77Zm-2,0a.25.25,0,0,1,.25-.25h0a.26.26,0,0,1,.25.25h0a.25.25,0,0,1-.25.25h0A.25.25,0,0,1,37,9.77Z"/><path class="cls-1" d="M59.91,12.56l-1.75-1.74-2,2,2,2,1.75-1.74.26-.26Zm-1.75,1.38-.86-.86L57,12.82l.26-.26.86-.86,1.12,1.12Z"/><polygon class="cls-1" points="59.28 12.56 70.19 12.82 59.28 13.08 59.28 12.56 59.28 12.56"/><polygon class="cls-1" points="57.04 12.56 46.13 12.82 57.04 13.08 57.04 12.56 57.04 12.56"/><path class="cls-1" d="M59.91,66.92l-1.75-1.75-2,2,2,2,1.75-1.75.26-.26ZM58.16,68.3l-.86-.87L57,67.17l.26-.25.86-.87,1.12,1.12Z"/><polygon class="cls-1" points="59.28 66.92 70.19 67.17 59.28 67.43 59.28 66.92 59.28 66.92"/><polygon class="cls-1" points="57.04 66.92 46.13 67.17 57.04 67.43 57.04 66.92 57.04 66.92"/><rect class="cls-1" x="49.75" y="17.93" width="0.02" height="0.03"/><path class="cls-1" d="M52,37.28v.16h-.59v.1h-.44s0-.06.06-.08h.13a6.28,6.28,0,0,1,.82-.16Z"/><path class="cls-1" d="M51.38,37.54v0H52v.08l-1-.11h0l0,0h.38c.88,0,2.68,0,3.07,0C54.08,37.54,52.29,37.54,51.38,37.54Z"/><path class="cls-1" d="M63.93,22.09a9.72,9.72,0,0,0-4.7-3.23,22.14,22.14,0,0,0-7.11-1l-6.77.08h0l.17,0H47.7a2.76,2.76,0,0,1,1.54.38,1.38,1.38,0,0,1,.52,1.25v2.73l0,6.51L50,54.49v1.22a7,7,0,0,0,.9,0,5.8,5.8,0,0,0,1.11-.1V37.58h-.59v0h-.44s0-.06.06-.08h.13a6.28,6.28,0,0,1,.82-.16h0V19.62a1.77,1.77,0,0,1,.54-1.31,1.79,1.79,0,0,1,1.25-.22,6.84,6.84,0,0,1,2.75,1.1,7.93,7.93,0,0,1,2.76,3.45,13.27,13.27,0,0,1,.93,5.16,13.14,13.14,0,0,1-.78,4.71c-.05.14-.11.27-.15.4a8.48,8.48,0,0,1-.92,1.59,7,7,0,0,1-1.84,1.77,9.07,9.07,0,0,1-4.54,1v.16h-.59v.1c.91,0,2.7,0,3.07,0a22.31,22.31,0,0,0,4-.6c.36-.08.71-.19,1.05-.3l.28-.09a8.81,8.81,0,0,0,4.3-3,9.52,9.52,0,0,0,1.55-5.66A9.21,9.21,0,0,0,63.93,22.09ZM49.75,18v0h0v0Z"/><path class="cls-1" d="M45.69,17.94h0s-.12,0-.16,0l-.15,0-.09,0h.11l.17,0h.15Z"/><rect class="cls-1" x="49.75" y="17.93" width="0.02" height="0.03"/><path class="cls-1" d="M52,37.28v.16h-.59v.1h-.44s0-.06.06-.08h.13a6.28,6.28,0,0,1,.82-.16Z"/><path class="cls-1" d="M52,37.28v.46a13.81,13.81,0,0,0-2.11.11c-5.42,1.44-6,6.43-4,10.49-3.11-4.85-1.19-9.65,4-11C50.18,37.28,51.82,37.33,52,37.28Z"/><path class="cls-1" d="M51,37.45s0,0,0,0l0,0h0s0-.06.05-.08Z"/><path class="cls-1" d="M64.47,47.44a88.15,88.15,0,0,1-4.23,8.35c-2,3.14-5.51,4.38-9.06,4.38-4.93,0-14.9-3.42-11.61-14.39A22.85,22.85,0,0,1,42,41.24c.8-1.21,1.6-2.43,2.37-3.66l.08-.13A31.15,31.15,0,0,0,48.29,29c.67-2.59.93-5.22-.33-7.74a3.32,3.32,0,0,0-3.61-2,4.69,4.69,0,0,0-2.75,2,2,2,0,0,0,.95,3.11,1.85,1.85,0,0,0,2.77-1.22c.11-.3.59-.44.9-.64.1.41.37.89.25,1.24a2.86,2.86,0,0,1-3.41,2.12c-1.15-.16-1.4.23-1.26,1,.55.1.94.19,1.34.27-.13.36-.16,1-.4,1.07-1.14.48-2.33.84-3.49,1.23-.09-.18-.18-.37-.26-.56,1.42-1.73,2.17-3.52,1.1-5.76a3.6,3.6,0,0,1,.21-2.32,4.37,4.37,0,0,1,3.09-2.9l.12,0h0l1.73,0h.11l.17,0h.18a5.37,5.37,0,0,1,3.59,2.9,8.11,8.11,0,0,1,.3.79,5.73,5.73,0,0,1,.14.56.29.29,0,0,1,0,.09v0l0,6.51c0,.08,0,.16-.06.25a11.33,11.33,0,0,1-.44,1.36c-.09.2-.18.39-.26.6-1,2.19-2.11,4.32-3.3,6.42l-.08.13c-.65,1.17-1.33,2.33-2,3.48a10.26,10.26,0,0,0-1.51,5c.54,6.32,5,8.11,7.81,8.41v1.22c-3.25-.37-7.84-2.74-9.14-9.2C38.05,54.87,44.27,58.59,49.11,59c.92.07.84-1,.85-1.67h0V55.71a7,7,0,0,0,.9,0,5.8,5.8,0,0,0,1.11-.1v1.55c0,1.31,0,1.82.81,1.79,2.35-.13,6.61-3.24,6.38-9.8,1.45-3,2.3-2.83,3.87-5.67C63.05,47.21,63.72,46.62,64.47,47.44Z"/><path class="cls-1" d="M49.81,28.82l0-6.51A13.29,13.29,0,0,1,49.81,28.82Z"/><path class="cls-1" d="M57.36,51.24A7.67,7.67,0,0,1,52,55.66a5.8,5.8,0,0,1-1.11.1,7,7,0,0,1-.9,0V54.49a7.43,7.43,0,0,0,.91.06A6.48,6.48,0,0,0,52,54.46c2-.32,3.26-1.52,4.32-3.5,1.26-2.33.72-6.33-1.53-7.47C56.58,43.67,59,47.71,57.36,51.24Z"/><path class="cls-1" d="M77.33,54.5a5,5,0,0,1-.44,2.08,5.43,5.43,0,0,1-1.24,1.75,5.75,5.75,0,0,1-1.92,1.21,6.78,6.78,0,0,1-2.47.44h-.05a5.05,5.05,0,0,1-.93.11c.23,0,.85,0,1.09,0a5.58,5.58,0,0,0,2.42-.53,6.09,6.09,0,0,0,2.1-1.38l1.51,1.93V54.5Z"/><path class="cls-1" d="M71.44,60.14c-.23,0-4.52,0-5.56,0a6.49,6.49,0,0,1-3.8-1,5.4,5.4,0,0,1-2-2.61,12.06,12.06,0,0,1-.75-3.43h0s0,.16,0-.36c-.09-1.31-.15-2.26-.17-3.67s-.09-2.85-.23-4.22a.77.77,0,0,0,0-.15,13,13,0,0,0-.71-3.16c0-.12-.09-.24-.14-.35a5.57,5.57,0,0,0-2.14-2.63,16.6,16.6,0,0,0-4.24-.86l-.33,0,0-.07v-.14c.95,0,2.55,0,2.93,0a15.63,15.63,0,0,1,4.3.83,9.79,9.79,0,0,1,.92.4c.15.09.3.16.46.24h0a8.34,8.34,0,0,1,3.15,3c.1.18.21.36.3.55a12.39,12.39,0,0,1,1.29,3.92c.09.54.16,1.09.21,1.63a31.62,31.62,0,0,1,.2,3.22c0,3.82,1.12,5.17,1.55,5.88a8.57,8.57,0,0,0,1.46,1.71.64.64,0,0,0,.15.14,4.89,4.89,0,0,0,3,1Z"/><path class="cls-1" d="M77.4,37.51v6.12h-.07a5,5,0,0,0-.83-2.83,6.1,6.1,0,0,0-2.16-1.94,6,6,0,0,0-2.82-.7,4.73,4.73,0,0,0-2.88.87,6.06,6.06,0,0,0-1.89,2.3,23.58,23.58,0,0,0-1.16,3.72,7.61,7.61,0,0,0-1.37-3.47,6.45,6.45,0,0,1,2.4-2.27A8.35,8.35,0,0,1,71.26,38a6.5,6.5,0,0,1,2.49.48,5.81,5.81,0,0,1,2,1.3S77.4,36.93,77.4,37.51Z"/><path class="cls-1" d="M2.87,103.33v0h2.4a2.28,2.28,0,0,0,1.3-.35,2.18,2.18,0,0,0,.82-1,3.88,3.88,0,0,0,.27-1.51,4,4,0,0,0-.27-1.53,2.26,2.26,0,0,0-.82-1,2.21,2.21,0,0,0-1.3-.37H0v0H5.27a6.36,6.36,0,0,1,2.1.31,2.8,2.8,0,0,1,1.4,1,2.69,2.69,0,0,1,.49,1.69,2.75,2.75,0,0,1-.46,1.67,2.58,2.58,0,0,1-1.35.93,6.93,6.93,0,0,1-2.18.29ZM0,109.46v0H5v0Zm1.75,0V97.5H3.27v11.93Zm7.43.11a2,2,0,0,1-1.08-.26,1.45,1.45,0,0,1-.56-.71,3.41,3.41,0,0,1-.22-1c0-.36-.05-.74-.05-1.13s0-.78-.07-1.14a3.41,3.41,0,0,0-.25-1,1.48,1.48,0,0,0-.61-.7,2.1,2.1,0,0,0-1.15-.27H2.87v0H5.51a4.35,4.35,0,0,1,1.86.34,2.38,2.38,0,0,1,1,.88,3.22,3.22,0,0,1,.45,1.21A7.26,7.26,0,0,1,9,107c0,.44,0,.84,0,1.2a2.29,2.29,0,0,0,.17.88.56.56,0,0,0,.57.34,1.86,1.86,0,0,0,.48-.06,1.53,1.53,0,0,0,.38-.13l0,0a2.07,2.07,0,0,1-.55.18A4.44,4.44,0,0,1,9.18,109.54Z"/><path class="cls-1" d="M21.3,109.62a3.5,3.5,0,0,1-1.94-.53,3.57,3.57,0,0,1-1.27-1.4,4.26,4.26,0,0,1,0-3.81,3.57,3.57,0,0,1,1.27-1.4A3.5,3.5,0,0,1,21.3,102a3.56,3.56,0,0,1,1.95.53,3.47,3.47,0,0,1,1.26,1.4,4.26,4.26,0,0,1,0,3.81,3.47,3.47,0,0,1-1.26,1.4A3.56,3.56,0,0,1,21.3,109.62Zm0,0a1.45,1.45,0,0,0,1.05-.38,2.46,2.46,0,0,0,.6-1,5.92,5.92,0,0,0,.27-1.24c0-.44.07-.84.07-1.22s0-.78-.07-1.22a6,6,0,0,0-.27-1.23,2.46,2.46,0,0,0-.6-1,1.64,1.64,0,0,0-2.1,0,2.33,2.33,0,0,0-.59,1,4.9,4.9,0,0,0-.27,1.23,10.83,10.83,0,0,0-.07,1.22,10.7,10.7,0,0,0,.07,1.22,4.88,4.88,0,0,0,.27,1.24,2.33,2.33,0,0,0,.59,1A1.45,1.45,0,0,0,21.3,109.58Z"/><path class="cls-1" d="M34.28,102.15l2.83,5.79-.74,1.87-3.68-7.66H32v0h3.56v0Zm6.28,0v0H39.5l-4.25,10.47a3.64,3.64,0,0,1-.44.76.81.81,0,0,1-.68.28,1.24,1.24,0,0,1-.41-.08.86.86,0,0,1-.35-.28.81.81,0,0,1-.14-.49,1,1,0,0,1,.11-.46.79.79,0,0,1,.32-.31.84.84,0,0,1,.45-.12.81.81,0,0,1,.45.13,1,1,0,0,1,.36.33.81.81,0,0,1,.15.49l4.36-10.72H38.07v0Z"/><path class="cls-1" d="M49.67,109.62a2.49,2.49,0,0,1-1.66-.53,2,2,0,0,1,.28-3.09,4.87,4.87,0,0,1,2.6-.57h1.74v0H50.89a1.66,1.66,0,0,0-1.11.35,1.78,1.78,0,0,0-.57.83,2.61,2.61,0,0,0-.17.92,4,4,0,0,0,.09.83,1.83,1.83,0,0,0,.34.73.79.79,0,0,0,.65.3,1.43,1.43,0,0,0,.88-.29,1.92,1.92,0,0,0,.64-.92,4.45,4.45,0,0,0,.25-1.64h0a5.12,5.12,0,0,1-.23,1.59,2.09,2.09,0,0,1-.71,1.07A2.12,2.12,0,0,1,49.67,109.62Zm3.68,0a2.71,2.71,0,0,1-.71-.1,1,1,0,0,1-.55-.4,1.56,1.56,0,0,1-.2-.86v-3.67a7.52,7.52,0,0,0-.09-1.15,2.11,2.11,0,0,0-.39-1,1.11,1.11,0,0,0-.94-.39,3.7,3.7,0,0,0-.87.11,3.18,3.18,0,0,0-.8.32,1.74,1.74,0,0,0-.58.48,1,1,0,0,0-.22.63h0a.84.84,0,0,1,.26-.64.88.88,0,0,1,.59-.24,1,1,0,0,1,.63.22.75.75,0,0,1,.28.63.84.84,0,0,1-.29.7,1,1,0,0,1-.62.21.91.91,0,0,1-.62-.22.83.83,0,0,1-.25-.66,1,1,0,0,1,.24-.67,1.91,1.91,0,0,1,.63-.51,4,4,0,0,1,.92-.33,4.57,4.57,0,0,1,1-.12,2.79,2.79,0,0,1,1.64.39,1.73,1.73,0,0,1,.71,1,4.28,4.28,0,0,1,.18,1.24v4.13a1,1,0,0,0,.11.5.48.48,0,0,0,.46.21,1.08,1.08,0,0,0,.62-.26,1.82,1.82,0,0,0,.52-.73l0,0a1.82,1.82,0,0,1-1.71,1.15Z"/><path class="cls-1" d="M64.31,97.48v11.94h1.28v0h-4v0h1.29V97.52H61.59v0Z"/><path class="cls-1" d="M84.64,109.62a5.1,5.1,0,0,1-2.84-.8,5.38,5.38,0,0,1-1.9-2.18,7.73,7.73,0,0,1,0-6.34,5.32,5.32,0,0,1,1.9-2.18,5.1,5.1,0,0,1,2.84-.8,4.12,4.12,0,0,1,1.53.29,3.79,3.79,0,0,1,1.23.8l1-.93h0v3.27h0A3,3,0,0,0,87.85,99a3.63,3.63,0,0,0-1.33-1.19,3.57,3.57,0,0,0-1.72-.43,2.94,2.94,0,0,0-1.76.53,3.75,3.75,0,0,0-1.15,1.41,7.32,7.32,0,0,0-.64,2,11.82,11.82,0,0,0,0,4.33,7.39,7.39,0,0,0,.64,2A3.91,3.91,0,0,0,83,109a2.94,2.94,0,0,0,1.76.53,4,4,0,0,0,1.51-.27,3.48,3.48,0,0,0,1.18-.74,3.32,3.32,0,0,0,.76-1.07,3,3,0,0,0,.27-1.27h0v3.28h0l-.88-1a3.77,3.77,0,0,1-1.29.85A4.65,4.65,0,0,1,84.64,109.62Z"/><path class="cls-1" d="M95.61,109.46v0h1.74V97.52H95.61v0h5.19v0H98.88v11.9h1.92v0Z"/><path class="cls-1" d="M112.16,97.48a5.9,5.9,0,0,1,2.37.41,2.9,2.9,0,0,1,1.36,1.16,3.48,3.48,0,0,1,.43,1.78,3.33,3.33,0,0,1-.43,1.76,2.78,2.78,0,0,1-1.36,1.09,6.33,6.33,0,0,1-2.37.37h-1.74v5.37h1.43v0h-4.39v0h1.43V97.52h-1.43v0ZM110.42,104h1.74a1.88,1.88,0,0,0,1-.29,2.63,2.63,0,0,0,.75-.77,4,4,0,0,0,.46-1,3.79,3.79,0,0,0,.16-1.09,4.08,4.08,0,0,0-.16-1.11,4.43,4.43,0,0,0-.46-1.07,2.83,2.83,0,0,0-.75-.82,1.74,1.74,0,0,0-1-.31h-1.74Z"/><path class="cls-1" d="M51.77,82.15c-11-6.16-21-14.42-21.75-27.5-.16-13.27-.46-40-.59-53.27L29.14,28c-.07,8.89-.21,17.75-.24,26.66A25.43,25.43,0,0,0,32.76,67.6C40.13,79.17,53.6,85.44,66,90.11c0,0-1-1-2.48-2.49A124.45,124.45,0,0,1,51.77,82.15Z"/><path class="cls-1" d="M29.54,32.46c-.12,0-2.23-.6-5.43-1.71a71.58,71.58,0,0,1-4.55-6.67A79.6,79.6,0,0,0,29.54,32.46Z"/><path class="cls-1" d="M29.74,28.27c-.13,0-2.68-.81-5.34-1.82a63.85,63.85,0,0,1-4.11-6.76A69.82,69.82,0,0,0,29.74,28.27Z"/><path class="cls-1" d="M29.66,24c-.13,0-2.1-.84-5.07-2.35a62.47,62.47,0,0,1-3.14-7.13A67.17,67.17,0,0,0,29.66,24Z"/><path class="cls-1" d="M29.67,44.68c-.12,0-2.27-.38-5.57-1.19A73.26,73.26,0,0,1,19,37.26,78.16,78.16,0,0,0,29.67,44.68Z"/><path class="cls-1" d="M29.82,48.4c-.12,0-2.29-.29-5.61-1a74.53,74.53,0,0,1-5.4-6A78.62,78.62,0,0,0,29.82,48.4Z"/><path class="cls-1" d="M29.56,51.75c-.12,0-2.29-.22-5.64-.8a72.13,72.13,0,0,1-5.56-5.85A78.43,78.43,0,0,0,29.56,51.75Z"/><path class="cls-1" d="M30.08,55.16c-.12,0-2.3-.11-5.67-.51a72.47,72.47,0,0,1-5.86-5.56A78.34,78.34,0,0,0,30.08,55.16Z"/><path class="cls-1" d="M30.08,59.15c-.12,0-2.3-.15-5.66-.63a70.32,70.32,0,0,1-5.74-5.68A78.9,78.9,0,0,0,30.08,59.15Z"/><path class="cls-1" d="M31.08,62.36c-.12,0-2.31,0-5.69-.29a71.11,71.11,0,0,1-6.07-5.32A78.47,78.47,0,0,0,31.08,62.36Z"/><path class="cls-1" d="M32.8,66c-.12,0-2.31.13-5.7.08a74,74,0,0,1-6.4-4.92A78.47,78.47,0,0,0,32.8,66Z"/><path class="cls-1" d="M35.06,69.09c-.12,0-2.29.25-5.68.37a71.63,71.63,0,0,1-6.65-4.58A78.62,78.62,0,0,0,35.06,69.09Z"/><path class="cls-1" d="M37,72.37c-.12,0-2.3.27-5.68.43a72.75,72.75,0,0,1-6.7-4.5A80.55,80.55,0,0,0,37,72.37Z"/><path class="cls-1" d="M40.28,75.34c-.12,0-2.27.46-5.63.9a73.06,73.06,0,0,1-7-3.94A79.17,79.17,0,0,0,40.28,75.34Z"/><path class="cls-1" d="M44.57,78.65c-.11,0-2.24.55-5.58,1.12a72.61,72.61,0,0,1-7.19-3.68A77.58,77.58,0,0,0,44.57,78.65Z"/><path class="cls-1" d="M48.46,81c-.12.06-2.19.74-5.47,1.59a70.74,70.74,0,0,1-7.48-3A78,78,0,0,0,48.46,81Z"/><path class="cls-1" d="M29.54,40.1c-.13,0-2.76-.46-5.53-1.14a63.42,63.42,0,0,1-4.91-6.2A69.51,69.51,0,0,0,29.54,40.1Z"/><path class="cls-1" d="M29.54,36c-.13,0-2.23-.35-5.47-1.14a65.6,65.6,0,0,1-4.66-6.25A66.73,66.73,0,0,0,29.54,36Z"/><path class="cls-1" d="M29.63,19.39c-.57-.21-3.91-2.38-4.7-2.9A61.52,61.52,0,0,1,23,9,60.7,60.7,0,0,0,29.63,19.39Z"/><path class="cls-1" d="M29.53,14.72a50.56,50.56,0,0,1-4-3.3,50.34,50.34,0,0,1-.64-7.26A52.38,52.38,0,0,0,29.53,14.72Z"/><path class="cls-1" d="M29.46,11.39A39.47,39.47,0,0,1,26.6,7.31,31.53,31.53,0,0,1,28.11,0,39.92,39.92,0,0,0,29.46,11.39Z"/><path class="cls-1" d="M64.55,82.15c11-6.16,21-14.42,21.76-27.5.16-13.27.46-40,.59-53.27L87.18,28c.08,8.89.22,17.75.25,26.66A25.44,25.44,0,0,1,83.56,67.6C76.2,79.17,62.73,85.44,50.37,90.11c0,0,1-1,2.49-2.49A123.47,123.47,0,0,0,64.55,82.15Z"/><path class="cls-1" d="M86.78,32.46c.13,0,2.24-.6,5.44-1.71a69.49,69.49,0,0,0,4.54-6.67A79.6,79.6,0,0,1,86.78,32.46Z"/><path class="cls-1" d="M86.59,28.27c.12,0,2.67-.81,5.34-1.82A67.56,67.56,0,0,0,96,19.69,70.47,70.47,0,0,1,86.59,28.27Z"/><path class="cls-1" d="M86.67,24c.12,0,2.09-.84,5.07-2.35a62.33,62.33,0,0,0,3.13-7.13A67.07,67.07,0,0,1,86.67,24Z"/><path class="cls-1" d="M86.65,44.68c.13,0,2.28-.38,5.57-1.19a73.26,73.26,0,0,0,5.14-6.23A77.55,77.55,0,0,1,86.65,44.68Z"/><path class="cls-1" d="M86.5,48.4c.13,0,2.29-.29,5.62-1a72.46,72.46,0,0,0,5.39-6A78.62,78.62,0,0,1,86.5,48.4Z"/><path class="cls-1" d="M86.76,51.75c.13,0,2.3-.22,5.64-.8A72.35,72.35,0,0,0,98,45.1,79.11,79.11,0,0,1,86.76,51.75Z"/><path class="cls-1" d="M86.24,55.16c.13,0,2.31-.11,5.67-.51a72.47,72.47,0,0,0,5.86-5.56A77.84,77.84,0,0,1,86.24,55.16Z"/><path class="cls-1" d="M86.24,59.15c.13,0,2.31-.15,5.66-.63a70.53,70.53,0,0,0,5.75-5.68A78.49,78.49,0,0,1,86.24,59.15Z"/><path class="cls-1" d="M85.24,62.36c.13,0,2.31,0,5.69-.29A71.33,71.33,0,0,0,97,56.75,78.59,78.59,0,0,1,85.24,62.36Z"/><path class="cls-1" d="M83.52,66c.13,0,2.31.13,5.7.08a74.27,74.27,0,0,0,6.41-4.92A78.59,78.59,0,0,1,83.52,66Z"/><path class="cls-1" d="M81.26,69.09c.12,0,2.3.25,5.69.37a71.41,71.41,0,0,0,6.64-4.58A78.62,78.62,0,0,1,81.26,69.09Z"/><path class="cls-1" d="M79.29,72.37c.12,0,2.29.27,5.68.43a72.75,72.75,0,0,0,6.7-4.5A80.55,80.55,0,0,1,79.29,72.37Z"/><path class="cls-1" d="M76.05,75.34c.12,0,2.26.46,5.62.9a73.06,73.06,0,0,0,7-3.94A79,79,0,0,1,76.05,75.34Z"/><path class="cls-1" d="M71.75,78.65c.12,0,2.24.55,5.59,1.12a72.61,72.61,0,0,0,7.19-3.68A77.92,77.92,0,0,1,71.75,78.65Z"/><path class="cls-1" d="M67.87,81c.11.06,2.19.74,5.47,1.59a71.62,71.62,0,0,0,7.48-3A78.08,78.08,0,0,1,67.87,81Z"/><path class="cls-1" d="M86.78,40.1c.13,0,2.76-.46,5.53-1.14a64,64,0,0,0,4.92-6.2A70.29,70.29,0,0,1,86.78,40.1Z"/><path class="cls-1" d="M86.78,36c.13,0,2.23-.35,5.47-1.14a62.36,62.36,0,0,0,4.66-6.25A66.73,66.73,0,0,1,86.78,36Z"/><path class="cls-1" d="M86.7,19.39c.56-.21,3.91-2.38,4.69-2.9a59.73,59.73,0,0,0,2-7.45A61.26,61.26,0,0,1,86.7,19.39Z"/><path class="cls-1" d="M86.79,14.72a51.77,51.77,0,0,0,4-3.3,50.33,50.33,0,0,0,.63-7.26A51.82,51.82,0,0,1,86.79,14.72Z"/><path class="cls-1" d="M86.86,11.39a36.33,36.33,0,0,0,2.86-4.08A31.53,31.53,0,0,0,88.21,0,39.92,39.92,0,0,1,86.86,11.39Z"/></g></g></svg>